<?xml version="1.0" encoding="UTF-8"?>
<svg version="1.1" viewBox="0 0 1676 1104" width="1280" height="1280" xmlns="http://www.w3.org/2000/svg">
<path transform="translate(850,33)" d="m0 0h10l17 3 12 4 10 7 12 11 9 12 8 19 3 13v17l-3 15-6 17-5 10-7 11-10 12 1 14 2 19v25l-4 32-7 27-1 2 9-3 22-2h28l14 3 11 6 8 7 5 8 4 10 1 5v10l-3 10-7 12-14 20-11 15-12 17-10 14-10 13-9 10-6 5-7-3-4-4v-10l9-34 9-31 2-8-21 6-18 6-26 12-20 11-14 10-16 15-8 8-8 7-11 10-13 10-18 14-23 16-28 17-14 8-8 1-5-3-4-5-1-2v-8l9-10 33-33 9-11 13-17 9-13 10-16 10-18 8-20 6-21 1-8v-25l-3-14-8-16-6-8-5-5-6-4-8-2-7 1-6 4-5 8-2 12 2 10 4 6 7 4 12 6 2 3-1 5-7 6-12 5h-14l-16-6-9-7-7-8-6-10-4-15-1-5v-14l4-19 7-16 7-10 9-10 11-11 15-11 18-10 20-8 38-12 22-6 20-8 17-9 10-8 8-8 6-12 2-7v-13l-5-14-9-10-9-6-14-5-15-4-4-4 1-5 5-5 8-3z" fill="#FDFDFD"/>
<path transform="translate(1536,649)" d="m0 0 5 1 28 11 25 11 4 2h10l13 4 7 4 7 8 4 8 2 7v7l-5-5-5-7-10-6h-3l5 5 8 10 8 16 4 15 5 26 1 9v30l-4 13-6 8-5 4-9 3-20 2-10-1-9-7-5-1-19 12-17 11-19 12-20 13-13 8h-2l1 3 6 1 13-10 11-7 18-11 14-7 7-3 3 1-11 9-11 8-14 11-12 11-18 18-7 9h-2l-3-5-2-1-1 10-6 25-5 15-8 15-9 11-9 6-18 4-29 4-22 3-15 3h-8l-10-4-11-8-7-7-6-5v-2l15-4 15-6 10-6 5-4 3-6-1-13-2-13-1-14v-21l3-24 5-15 8-15 10-13 8-7 14-8 13-4h12l13 4 11 8 6 5 4-1 14-11 14-10 18-14 14-10 13-10 18-13v-16l-3-9 1 5v9l-6 8-5 6-11 9-12 10-13 9-10 7-19 12-14 9-5-2-5-6-19-11-5-2v-3l15-8 21-13 23-14 31-21 16-11 13-11 14-11 7-8-1-5-22-22-8-7-9-8zm71 56-8 3-5 5-6 9v2l4-1 7-6 10-3 11 3 9 7 5 4 1-2-6-12-9-8-3-1zm12 31 3 4h2l-2 5-5 6v2h-5l-5-4h-2l-1 8v14l3 16 3 7 4-2 1-3 6 2 7 11 1 3 4-2 5-8 2-7v-9l-9 2-3 3-2 3-1-2v-7l2-3 7 1 6 1v-6l-2-2 1-1-1-9-4-11-4-2-2 6v16l-3-1-4-7 1-7 6-7 2-1-1-4-6-5zm0 66-2 3 4 4h5l2-4-5-3zm-207 21-11 4-11 9-9 12-7 15-5 19-2 20 1 18 4 21 5 13 9 14 5 6 1-2-8-14-7-19-3-17v-26l2-12 7-20 10-16 5-5v-2l4-2 7-4 8-3h14l10 3 9 6 12 11 6 8 1-3-9-14-9-10-11-7-10-3zm16 32 1 4 4 3h3l-8 11-5 6-4 2h-8l-3-2-2-4-2 1-4 13-1 7v17l3 16 5 10 4-1 3-9h11l5 5 9 14 3 4 5-1 1-3-4-6-3-1-7-14v-10l4-6 2-2h12l9 2 1-5-1-4h-19l-6-3-4-5-1-6 3-7 7-9 7-6-1-4-5-4-9-3zm22 17-7 6-2 5 3 17h15l1-1v-9l-4-13-2-5zm6 46-14 2-2 3v8l7 11 2 2 4-1 3-5 5-18v-2zm-30 30-4 3 1 4 6 2h6l3-3-8-6z" fill="#FDFDFD"/>
<path transform="translate(761,247)" d="m0 0h16l16 4 15 8 12 10 8 10 8 16 5 16 3 21v8l-4 22-5 17-8 18-8 14h2l4-4h2l2-4 10-11 10-13 14-21 9-16 12-25 6-16 1 2 9-3 22-2h28l14 3 11 6 8 7 5 8 4 10 1 5v10l-3 10-7 12-14 20-11 15-12 17-10 14-10 13-9 10-6 5-7-3-4-4v-10l9-34 9-31 2-8-21 6-18 6-26 12-20 11-14 10-16 15-8 8-8 7-11 10-13 10-18 14-23 16-28 17-14 8-8 1-5-3-4-5-1-2v-8l9-10 33-33 9-11 13-17 9-13 10-16 10-18 8-20 6-21 1-8v-25l-3-14-8-16-6-8-5-5-6-4-8-2h-8l4-6 5-4 10-5z" fill="#CECFCF"/>
<path transform="translate(344,810)" d="m0 0h13l12 4 10 7 8 8 9 14 7 16 2 10v25l-5 18-7 13-9 12 8-7 7-10 5-10 4-13 1-8v-16l-2-15-5-14 1-2 10 9 12 11 10 8 21 16 19 12 14 8 24 11 28 11 26 8 24 6 42 9 26 4 25 2 11-1 9-4 4-5 2-3 3 1v11l-5 10-10 11-6 1-15-1-4-1-1-5-9-1h-2v7l-4 1-34-4-30-5-26-7-22-7-10-3 2-4 3-2 1-3-10-3-7 1-5 4-8-1-23-9-25-10-8-2 1 3 15 6 26 11 14 6v3l-2 1h-9l-43-16-16-6h-5l-8 5-10 5h-2v2l6 2 20 8 23 9 43 14 28 8 28 7 33 6 43 5 21 2 29 1-5 6-16 8h-24l-41-5-34-6-43-10-58-16-35-10-30-10h-23l-26-5-13-5-11-6-7-6-7-11-7-21-2-10v-24l2-18 5-18 7-13 6-7 9-6zm7 11-10 3-9 7-6 8-5 10-4 13 1 3 5-12 8-11 8-7 10-3h7l10 3 9 7 8 11 7 16 2 9 1 11v11l-1 11-3 11 3-3 3-9 2-10v-19l-4-19-5-13-7-13-7-8-10-6-4-1zm-3 26-8 3-8 9-6 14-3 8v23l2 8 6 11 5 4 5 2h10v-4l-6-5-5-8-1-4 8-4 5 1 4 5 5 9 3-1-1-7v-13l3-8 5-7 6-4v-3h-11l-3-1-1-3v-23l-3-1-7 23-5 6-7 1-1-4 7-15 6-8v-4zm34 90v3l2-3z" fill="#FEFEFE"/>
<path transform="translate(79,609)" d="m0 0 26 5 14 7 9 7 10 9 11 12 9 11 13 14 8 7 10 9 13 10-1 2-20-7-22-7 8 8 8 7 12 9 8 5-6 7-7 7-8 7-11 11h-2l-3-29-4-19-4-9-6-10-8-8-11-7-10-4h-14l-8 4-6 5-2 4 15-5h13l10 4 8 6 8 9 8 16 2 7 1 8v25l-3 16-6 15-1 4 25 7 1 2h-36l-30-4-9-4-8-6-7-8-8-16-4-11-14-20-9-16-4-10v-6l7-2-2-9v-19l4-8 6-5 16-8 12-4 2-10-21 2h-8l1-3 13-9zm21 70-9 3-8 6-6 10-4 11v2h2l4-10 6-8 6-4 7-2h7l10 4 7 7 6 12 3 12 1 6v18l-2 10-4 10-4 7 4-2 6-8 4-10 2-13v-9l-4-21-7-16-7-8-12-6zm-3 20-6 3-4 5-4 11-4 15v13l3 7 4 6 6 5 2 1h7v-4l-5-4-4-5-5-1-1-2 3-1 2-10v-9l-5-6-1-4h2l2 4 6 6 1 7-3 6-2 2v3l5-1 1-1h6l5 4 5 7h2l-2-9-1-3v-8l3-7 3-5v-2l-8-1-2-9-1-9-3-1v10l-4 8-4 2-3-3 1-8 5-9 1-3z" fill="#FDFDFD"/>
<path transform="translate(1432,638)" d="m0 0h7l1 2-7 8-8 7-13 16-13 21-12 22-6 12-2 6-46 8-14 5-16 9-9 7-4 4-25 5-43 8-39 9-8 1-12-8-7-2-7-1 2-6 10-17 11-16 10-13 12-14 19-19 10-6 20-8 27-8 38-10 54-11 21-4 38-6zm-36 10-16 4-14 10-38 28-17 12-16 12-18 13-8 6v2l10-3 12-5 19-10 17-11 16-12 18-14 17-13 16-12 9-6v-1zm-29 5-27 6-20 5-16 9-11 8-37 25-24 16-16 11-15 10-22 15-15 10-2 1v2l14 8h12l10-2 18-13 15-11 23-16 15-11 36-26 20-14 14-10 17-12 13-9v-2z" fill="#FEFEFE"/>
<path transform="translate(1358,826)" d="m0 0h5l1 1v9l-3 9-7 11-8 8-19 8-36 12-30 9-32 8-16 3-2 6-10 22-10 19-5 7-6 2-54 4-47 3h-23l-10-9-13-13-14-11 2 4 7 9 10 12 8 11 4 4h47l26-2h7v1l-24 3-56 5-6-1-11-14-14-18-12-16-3-2-21-1-12-2-7-5-2-3v-6h3l6 5 7 2h25l-7-11-7-6-17-7-2-2 1-5 6 1 15 6 13 2h43l37-3 50-7 61-10 26-6 40-11 36-12 30-11 27-11zm-26 16-24 8-27 10-45 14-10 6-7 7-3 6v4h11l21-5 22-6 37-12 21-9 11-7 4-7v-6l-4-3zm-182 53-48 7-42 4-16 1-4 1 1 5 6 16 2 4 5 1 64-6 41-5 1-5-5-22z" fill="#FEFEFE"/>
<path transform="translate(341,648)" d="m0 0 5 1 52 16 31 10 40 13 17 8 10 8 7 7 12 17 12 21 11 24 12 30 3 9-8-1-25-8-32-10h-3l6 5v2l4 2 11 11h-3l-17-13-30-20-16-8-14-6-13-4-11-2-23-1-2-2-7-24-6-25-6-21-8-21-8-16zm80 30 1 5 13 11 13 10 18 14 13 10 28 22 16 12 6 2-1-5-12-23-7-11-11-14-9-8-15-8-29-10-19-7z" fill="#FEFEFE"/>
<path transform="translate(224,733)" d="m0 0 4 1 10 8 18 13 16 10 23 14 22 14 8 5-1 4-8 13-8 21-3 14-1 9v22l-4-2-11-10-14-11-17-14-14-11-17-13-15-10-18-10-3-3 2-4-7-7-7-8-9-10-2-4 6 1 24 10 27 13 16 8 43 22-1-1-14-10-30-20-11-7-21-14-7-5 2-4 10-10 7-8zm64 87 1 2 2-1z" fill="#FDFDFD"/>
<path transform="translate(1030,558)" d="m0 0h4l4 26 8 63 1 13-21 7h-4l-6-45v-4h-3l-4 24-7 32-16 5h-5l-12-22-13-24-1-1 1 12 5 36v6l-7 3-17 5-2-7-11-88v-7l24-9h5l15 26 13 22 6 10h1l11-49 5-23 2-3z" fill="#FDFDFD"/>
<path transform="translate(229,117)" d="m0 0 28 1 74 4 2 2 3 22v5l-5 3-50 18-8 3h-4v2l10 3 36 15 25 11 4 4 2 18v8h-18l-82-4-4-2-2-16v-7h28l13 1h14l-45-18-12-5-2-3-2-17 5-3 36-12 7-3 1-2-51-3-1-1-2-17z" fill="#FDFDFD"/>
<path transform="translate(1506,713)" d="m0 0 5 1 1 2-3 6-6 8-9 8-16 11-24 13-19 10-30 15-33 15-13 5-24 10-39 14-30 9h-4l1-4 9-4 22-11 16-9 14-8 4-3h2v-4h-8l-8 1-3-1 1-6 8-12 7-8 12-9 12-7 17-7 20-7 48-11 10-2h5l5 9 11 4h4l-9-4-3-6 2-5 3-2 16-1 9-3 13-6z" fill="#FEFEFE"/>
<path transform="translate(922,298)" d="m0 0h28l14 3 11 6 8 7 5 8 4 10 1 5v10l-3 10-7 12-14 20-11 15-12 17-10 14-10 13-9 10-6 5-7-3-4-4v-10l9-34 9-31 6-18 4-22v-17l-3-8-6-8-7-4-7-3 2-2z" fill="#FEFEFE"/>
<path transform="translate(249,623)" d="m0 0h38l13 4 12 9 8 9 9 16 7 16 11 33 9 28 4 10v2l-6-2-16-10-19-11-4-2-2 5-5 4-9-1-18-6-7-5-3-10 1-18-5-2-16-8-19-9-18-10-6-5-5-18-2-11 1-2 22-3 16-2-1 8-7 32-2 2-10-6-2-6-2-23h-9l5 25 1 4 5 2 9 6 22 11-11-7v-7l4-15 6-24zm19 5-4 3 1 4 7 7 13 10 17 14 17 13 5 1 1-7-5-12-9-15-7-8-10-6-12-3zm-16 53m2 1m1 1m25 11-1 1 1 7 7 10 10 8 9 4h5l2-6-1-9-5-6-14-6-9-3z" fill="#FEFEFE"/>
<path transform="translate(434,411)" d="m0 0 4 1 14 15 1 6-5 12-19 44-1 2 11-6 22-14 18-11 4 2 3 3v2h2l7 8 2 4-22 14-21 13-24 15-18 11-5-1-13-14-1-5 17-41 6-15-1-1-16 9-26 16-6 4-4-2-14-15v-3l14-8 19-12 24-15 26-16z" fill="#FEFEFE"/>
<path transform="translate(697,583)" d="m0 0 19 3 14 6 10 9 6 12 1 5v9l-1 1h-7l-18-5-4-3-3-7-11-5-8-1-9 2-9 6-7 8-5 13v11l5 8 8 5 9 2 10-1 10-5 3-5-10-2-17-4-1-3 5-11 2-4 8 1 44 11 1 5-9 17-8 9-11 7-13 5-12 2h-9l-12-2-11-5-6-4-5-5-4-5-4-8-1-4v-17l4-13 8-13 8-9 10-7 11-5 12-3z" fill="#FEFEFE"/>
<path transform="translate(1482,636)" d="m0 0h14l12 3 11 6 9 6 13 12 13 13 9 11 6 6-1 4-39 6-11 1-11-5-15-5-7-1h-9l-11 4-4 3h-2v2h-2l-2 4-5 12-52 12h-2l1-5 12-25 8-13 10-14 11-13 12-10 13-8 14-5zm7 6-7 3-10 9-13 13-7 8-15 15-7 8-11 11-7 8-2 4 9-1 9-3 11-10 7-8 53-53 1-4zm17 3-7 6-7 8-15 16-7 8v1l8-1 16-8 8-7 15-13 1-3-7-6z" fill="#FEFEFE"/>
<path transform="translate(564,527)" d="m0 0 6 1 17 10 4 3-1 6-14 37-12 31-9 23-8-4-16-10 2-5 4-11-10-7-17-10-1-1h-5l-12 8h-5l-13-8-7-4 1-3 25-14 15-9 22-13 24-14zm-8 31-17 10-13 8 1 3 13 7 4 3 3-1 8-21 3-6v-3z" fill="#FEFEFE"/>
<path transform="translate(263,308)" d="m0 0 22 1 93 5 3 3 8 18 2 3-1 4-19 14-19 13-13 10-19 13-10 8-4-1-7-14-3-9 12-8 1-3-11-24-3-6v-2h-18l-4-4-10-20zm54 26 8 19 4 2 20-14 6-5v-1l-15-1z" fill="#FEFEFE"/>
<path transform="translate(759,59)" d="m0 0 12 1 10 3 9 7 7 7 8 13 4 14v16l-4 12-4 6-9 8-9 3h-13l-9-3-10-6-9-10-7-12-3-10-1-7v-8l3-15 6-9 7-6 7-3z" fill="#CFCFCF"/>
<path transform="translate(1307,207)" d="m0 0 4 1 23 23 7 8 14 14 7 8 10 10 7 8 8 8 1 5-9 25-1 1-13-1-69-10-20-3-1-2 9-24 66 11h6v-2l-4-2-15-16-37-37 1-6z" fill="#FEFEFE"/>
<path transform="translate(1315,98)" d="m0 0 10 2 10 3 1 5-2 31 14 4 5 1 1-31 4-1 15 4 1 1v19l-1 14 8 1 13 3v-18l1-18 14 2 7 2 1 2-3 44-1 16-2 1-48-12-50-12-2-2 2-34z" fill="#FEFEFE"/>
<path transform="translate(812,599)" d="m0 0h60l1 4-3 15-2 2h-36l-1 11-2 9h33l-1 9-2 9-1 1-32 1-3 18-1 3 37 1-2 16-1 3-35 1h-27l-1-4 16-97z" fill="#FEFEFE"/>
<path transform="translate(1151,479)" d="m0 0h1l1 31 1 54 12 26v4l-14 9-4 3-4-1-13-28-18-14-36-26-3-2v-3l11-7 9-7h5l9 8 13 10 9 7-1-9v-39l9-7z" fill="#FEFEFE"/>
<path transform="translate(1051,141)" d="m0 0 10 1 6 3 4 4v7l-7 14-9 12-12 13-9 9-8 7-15 13-17 13-18 13-31 21-4 1 1-3 14-10 13-11 10-8 12-11 11-12 11-14 6-12 1-4v-7l-3-6-4-2h-20l-22 5-24 8-7 3h-4l1-4 30-15 27-12 36-12z" fill="#CECFCF"/>
<path transform="translate(1256,786)" d="m0 0h4l-1 3-11 8-13 11-11 9-11 10-13 10-14 8-15 6-20 5-48 7-37 4h-18l3-2 20-6 36-7 32-8 21-7 3-4 5-13 4-6 5-5 6-5 12-6 21-6 25-5z" fill="#FDFDFD"/>
<path transform="translate(669,349)" d="m0 0 4 1-3 5-7 7-8 7-9 9-11 14-8 13-3 8 1 7 5 6 5 2h21l24-6 28-10 3 1-4 4-16 8-28 13-23 9-26 8-17 3h-13l-7-4-2-4 1-9 6-12 10-13 12-13 8-7 9-9 11-9 15-12 11-8 10-8z" fill="#CECFCF"/>
<path transform="translate(697,213)" d="m0 0h2l-1 5-5 15-2 8v20l6 18 7 12 5 6 6 4 4 1 4 5 18 9 2 3-1 5-7 6-12 5h-14l-16-6-9-7-7-8-6-10-4-15-1-5v-14l4-19 7-16 7-10 9-10z" fill="#CECFCF"/>
<path transform="translate(1197,427)" d="m0 0 3 1 10 13 14 17 13 17 10 12 2 3 4-2 12-14 4-5 4 1 8 9 2 1-1 5-11 13-10 11-7 8-7 9-4-2-11-13-13-17-13-16-8-10-11-14-6-8 1-3 5-5z" fill="#FEFEFE"/>
<path transform="translate(1357,879)" d="m0 0h2l-1 10-5 20-6 18-9 14-16 8-20 6-24 5-36 7h-9l4-2 36-12 22-8 16-8 6-4 7-8 7-16 3-12v-6l-43 16-29 10-12 5-9 7-7 11-6 11-9 8-11 7h-2l1-4 8-16 7-16 6-8 8-5 18-5 19-5 39-12 19-7z" fill="#FEFEFE"/>
<path transform="translate(1255,344)" d="m0 0 4 1 13 12 11 9 15 13 12 11 11 9 13 11-2 5-10 17-5-2-10-9-8-7-14-12-10-9-11-9-12-11-9-7 2-5z" fill="#FEFEFE"/>
<path transform="translate(850,33)" d="m0 0h10l17 3 12 4 5 11 3 9v18l-5 18-5 9-8 9-1-2 2-7v-13l-5-14-9-10-9-6-14-5-15-4-4-4 1-5 5-5 8-3z" fill="#CECFCF"/>
<path transform="translate(1123,997)" d="m0 0h5l-2 5-10 10-16 8-14 1h-46l-8-4-10-9-5-5v-2h50z" fill="#FEFEFE"/>
<path transform="translate(450,818)" d="m0 0 15 5 16 8 11 8 8 8 10 13 9 14 5 9-1 2-25-5-16-8-1-4 2-9v-7l-2-5-4-2-3-1h-7l-4 5-1 2v8h-4l-3-5-3-15-2-14z" fill="#FEFEFE"/>
<path transform="translate(543,757)" d="m0 0 3 3 12 23 3 5 26 9 6 5-1 9-2 6 10 3 19 10 13 11 7 10 5 11 1 4v12l-3 1-4-16-5-10-7-8-12-9-17-9-21-7-7-2-2-2-6-16-10-24-8-17zm20 35 5 13 4 2 14 2 3-2-1-5-14-7-8-3z" fill="#FEFEFE"/>
<path transform="translate(87,605)" d="m0 0h29l16 4 16 8 8 5 30-8 26-4 24-2h24l14 1v1l-41 2-31 4-31 7h-5l3 6 8 10 8 12 5 8-1 2-13-10-13-11-11-9-10-9-14-9-10-4-4-1-15-1h-15z" fill="#FEFEFE"/>
<path transform="translate(969,939)" d="m0 0 13 1 2 1 4 12 6 10 2 4 4 2 9 5 14 2 3 4v4h-19l-11-2-9-6-7-8-7-14-4-12z" fill="#FEFEFE"/>
<path transform="translate(525,961)" d="m0 0 2 1v2l10 3 23 7 25 7 40 8 23 3 5 2-4 2h-11l-27-3-25-4-29-7-28-8-5-5-1-5z" fill="#FEFEFE"/>
<path transform="translate(202,721)" d="m0 0h15l10 1-2 5-4 2-2 4-6 7h-2l-2 4-13 13-6-1-3-7-7-3 2-4 8-8 7-8z" fill="#FEFEFE"/>
<path transform="translate(533,952)" d="m0 0 8 5 25 8 30 8 39 7 24 3 1 4-1 1-15-1-43-6-30-7-31-9-14-5 4-6z" fill="#FEFEFE"/>
<path transform="translate(1149,791)" d="m0 0h11v2l-16 6-26 11-22 11-20 12-14 10-11 8v-3l11-10 8-7 15-12 17-11 16-8 19-7z" fill="#FEFEFE"/>
<path transform="translate(688,888)" d="m0 0 5 1 7 9 3 8v16l-4 5-4 2h-4l2-4 3-1v-3h-7l-1-4 1-3v-9l-5 5-5 9-5 4-7 2h-4l1-4 8-8 12-18z" fill="#FEFEFE"/>
<path transform="translate(408,808)" d="m0 0 13 2 21 6 2 2 4 27-1 3-23-23-6-5-10-10z" fill="#FDFDFD"/>
<path transform="translate(435,933)" d="m0 0 56 21 12 5v1l-22-1-36-12-10-4-2-2v-6z" fill="#FEFEFE"/>
<path transform="translate(1415,888)" d="m0 0 5 2 4 5 2 5-1 10-3 6-4 4h-7l-5-6-1-3v-11l4-8zm-3 4-5 8-1 8 2 5 4 2 5-5 2-9-3-7-1-2z" fill="#FEFEFE"/>
<path transform="translate(994,852)" d="m0 0h2l5 13 5 7v4l-6 2-7-1-7-6-1-3 4-8z" fill="#FEFEFE"/>
<path transform="translate(1132,777)" d="m0 0 3 1-1 2-17 6-9 4-5-1-2-3 1-4 4-2z" fill="#FEFEFE"/>
<path transform="translate(355,877)" d="m0 0 2 2-2 12v10l-5 1-3-6v-12l4-5z" fill="#FEFEFE"/>
<path transform="translate(735,85)" d="m0 0 1 3-1 2 2 15 1 9 3 9-2 2-5-10-3-14v-8l1-7z" fill="#FEFEFE"/>
<path transform="translate(673,982)" d="m0 0h9l11 1-1 5-1 1-18-1-1-5z" fill="#FEFEFE"/>
<path transform="translate(327,878)" d="m0 0 12 5 4 4 1 4-3 7-5 6-1-2 1-8v-10l-9-4z" fill="#FDFDFD"/>
<path transform="translate(103,723)" d="m0 0h4v10l1 7-4 1-4-4-1-4 2-8z" fill="#FCFCFC"/>
<path transform="translate(1611,760)" d="m0 0 4 2 3 3 1 4v9l-2 4-5 1-1-4 4-4-1-5-4-5z" fill="#FEFEFE"/>
<path transform="translate(672,993)" d="m0 0 11 1 6 2v3h-14l-4-1z" fill="#FEFEFE"/>
<path transform="translate(759,59)" d="m0 0 12 1-1 3-1-1-11 1-4-1v-2z" fill="#FEFEFE"/>
<path transform="translate(751,61)" d="m0 0h2v2l-10 6-4 4v-3l8-7z" fill="#FEFEFE"/>
<path transform="translate(804,96)" d="m0 0h3l2 8v10h-1l-1-9-3-6z" fill="#FEFEFE"/>
<path transform="translate(333,904)" d="m0 0 2 1-1 2v7h-4l-1-5 2-3h2z" fill="#FEFEFE"/>
<path transform="translate(736,74)" d="m0 0h2l1 3-3 5v2h-3l1-6z" fill="#FEFEFE"/>
<path transform="translate(332,872)" d="m0 0 4 1v2h-6v-2z" fill="#FEFEFE"/>
<path transform="translate(1629,792)" d="m0 0 3 2-1 3-3-3z" fill="#FEFEFE"/>
<path transform="translate(182,754)" d="m0 0 6 1-4 1z" fill="#FEFEFE"/>
<path transform="translate(513,950)" d="m0 0h2v2l-3-1z" fill="#FEFEFE"/>
<path transform="translate(1609,772)" d="m0 0 2 3h-2z" fill="#FEFEFE"/>
<path transform="translate(1632,770)" d="m0 0 2 1z" fill="#FEFEFE"/>
<path transform="translate(542,755)" d="m0 0" fill="#FEFEFE"/>
<path transform="translate(82,607)" d="m0 0 2 1z" fill="#FEFEFE"/>
<path transform="translate(509,817)" d="m0 0" fill="#FEFEFE"/>
<path transform="translate(508,816)" d="m0 0" fill="#FEFEFE"/>
<path transform="translate(507,815)" d="m0 0" fill="#FEFEFE"/>
<path transform="translate(506,814)" d="m0 0" fill="#FEFEFE"/>
<path transform="translate(541,754)" d="m0 0" fill="#FEFEFE"/>
<path transform="translate(81,608)" d="m0 0" fill="#FEFEFE"/>
</svg>
