<?xml version="1.0" encoding="UTF-8"?>
<svg version="1.1" viewBox="0 0 1736 1136" width="1280" height="1280" xmlns="http://www.w3.org/2000/svg">
<path transform="translate(844,77)" d="m0 0h16l14 3 13 5 13 10 9 9 9 14 6 15 3 13v18l-4 18-5 14-9 16-9 11-4 4 1 18 2 18v21l-4 33-6 25-1 3 31-3h27l14 3 11 6 9 8 7 14 2 7v11l-3 10-7 12-14 20-10 14-13 18-12 17-16 20-7 5-5-2-5-3-1-2v-11l11-40 8-27 1-5-10 3-18 5-25 10-16 8-21 12-11 9-10 9-13 12-3 3h-2v2l-8 7-13 11-17 13-19 14-20 13-21 13-14 7-8-1-7-8v-9l9-10 9-9 8-7 12-13 9-10 11-14 15-20 15-25 7-14 6-15 6-20 1-8v-28l-3-12-5-12-6-10-5-6-9-6-3-1h-11l-6 4-5 6-3 10v9l4 9 5 4 14 6 3 3v6l-4 5-12 6-3 1h-13l-12-4-9-5-9-8-7-11-4-10-3-13v-15l4-19 8-17 12-16 8-8 11-9 10-7 16-9 19-8 18-6 34-10 24-8 19-9 13-9 11-11 5-10 2-7v-15l-4-11-6-8-8-7-16-7-16-4-5-3-1-5 4-6 8-4z" fill="#EF8B34"/>
<path transform="translate(1533,694)" d="m0 0 7 1 15 6 36 15 3 2h11l13 4 8 6 5 6 4 8 2 7v6l-4-1-6-9-6-5-7-3 7 8 8 10 7 16 8 38 1 8v34l-4 11-6 9-6 4-13 3-8 1h-12l-7-2-8-7-6 1-10 7-18 11-26 17-17 11-14 9v4l5-1 15-11 16-10 17-10 11-5 4 1-5 5-16 12-14 11-10 9-16 16-9 11h-4l-3-4-6 28-8 24-6 11-7 9-8 7-10 4-18 3-44 6-16 3h-8l-10-4-11-8-7-7-6-5 1-2 20-6 19-10 5-4 3-7-1-12-2-11-1-13v-27l3-21 6-17 7-13 10-13 8-7 14-8 7-3 7-1h10l11 3 10 6 11 9 8-6 14-10 13-10 48-36 11-8v-16l-2-4v9l-8 11-12 11-13 10-18 13-20 13-18 12-5-1-5-6-15-9-10-5v-3l15-8 28-17 13-8 24-16 20-14 12-9 17-14 9-8 2-3-1-5-22-22-11-9zm70 55-9 4-6 7-3 5 1 3 9-7 6-2h9l10 4 8 8h2l-3-9-6-8-6-4-3-1zm13 31 1 3 2 1-1 5-7 9-6-3-4-1-1 19 2 15 4 10 4-2 2-2 7 1 2 5 3 5 1 4 4-2 5-8 2-8v-8l-10 2-3 6-2-2v-8l2-2 7 1 6 1v-6l-1-3-1-10-4-9-6-9-6-4zm0 66-2 1 1 4 3 2 5-1 1-3-6-3zm-207 21-10 3-11 8-9 11-8 15-4 15-3 16v27l3 16 3 12 8 16 4 6 5 6 1-2-9-16-7-20-2-13v-28l3-15 6-15 7-12 8-10 8-6 9-4 11-1 14 3 9 5 12 11 6 7 1-3-12-17-9-8-10-5-7-2zm16 32-1 2 5 5h2l-3 6-9 11-4 2h-8l-3-2-1-3-3 1-4 13-1 9v11l2 16 5 12 4 2 4-9v-2h11l5 5 9 13 3 5 5-1 1-3-4-6-5-5-5-10-1-5 3-8 4-5 6-1 11 2h5l-1-7-5-1h-14l-5-2-5-5-1-6 4-10 6-7 7-6-1-4-5-4-9-3zm39 3m-18 14-7 6-2 5 3 16 1 1h15v-10l-4-13-3-5zm6 46-13 2-3 4v7l6 9 3 4 4-1 4-9 3-10v-6zm-30 30-4 3 1 4 6 2h6l2-1-1-4-8-4z" fill="#EF8C34"/>
<path transform="translate(339,854)" d="m0 0h15l12 5 9 6 8 8 9 14 5 10 4 16 1 15-2 15-5 16-8 13-6 8 10-10 8-14 4-10 2-13v-16l-3-17-4-11v-2l5 2 10 10 11 9 12 10 14 10 10 7 13 8 10 6 31 14 24 9 18 6 31 8 43 9 24 4 9 1h28l9-4 4-5 2-3 3 1v11l-5 10-10 11-2 1-20-1-3-1-1-6h-11v6l-1 2-23-2-29-4-24-5-25-7-24-8 2-4 2-1 1-4-7-2h-8l-6 4h-6l-28-11-25-10-5-1v2l27 12 27 10 3 2v2l-4 2h-8l-20-7-33-13-6-2-5 1-15 8-5 1v2l6 2 14 6 17 6 19 7 40 13 39 11 35 7 29 4 36 4 13 1 26 1-2 4-15 9-4 1h-25l-48-6-36-7-60-15-60-17-37-12h-24l-25-5-15-6-11-7-8-9-5-10-7-25-1-14 1-19 4-20 4-11 6-11 5-6 10-7zm8 11-11 4-8 6-6 8-5 11-1 6 4-5 8-11 9-6 3-1h15l10 4 8 7 7 11 7 17 2 17v23l2-3 2-12v-15l-4-20-6-15-7-12-6-7-8-5-7-2zm-6 27-7 4-7 9-5 13-3 8v22l2 8 6 11 5 4 6 2h8l2-1-2-4-6-5-6-9v-2l8-4h7l2 4 6 11 3-1-1-7v-13l3-9 5-6 6-4-1-3h-11l-3-3-1-2v-8l2-12-1-2-4 1-6 21-4 6-2 1h-6l-1-4 7-15 5-8v-3zm-26 9 1 2zm-1 3m74 52 1 3zm-1 3 1 3zm-1 3 1 2z" fill="#EF8C35"/>
<path transform="translate(760,292)" d="m0 0h11l11 2 16 7 6 4 5 3v2l4 2 8 9 7 11 4 10 4 13 2 15v24l-4 20-8 22-8 17 5-3 2-3h2l2-5 2-3h2l3-6h2l2-4 7-10 1-2h2l2-4 9-14 8-14 9-19 4-9 3-8 1-1 11-1 14 3 8 7 4 9 1 2v17l-3 17-3 12-4 4-26 7-25 10-16 8-21 12-11 9-10 9-13 12-3 3h-2v2l-8 7-13 11-17 13-19 14-20 13-21 13-14 7-8-1-7-8v-9l9-10 9-9 8-7 12-13 9-10 11-14 15-20 15-25 7-14 6-15 6-20 1-8v-28l-3-12-5-12-6-10-5-6-9-6-5-2-7-1 2-5 9-6 14-4z" fill="#CB3543"/>
<path transform="translate(844,77)" d="m0 0h16l14 3 13 5 13 10 9 9 9 14 6 15 3 13v18l-4 18-5 14-9 16-9 11-4 4 1 18 2 18v21l-2 19h-1l-3-14-1-6h-2l-1-5h-2v-2l-3 1v-4l-2-1v-2l-10 1v2l-3 3 2 2-12 5 2 2-2 1h-13l-3-1-24 1-2-1-11 1-5-1-21 4-11 1-13 1-13 3-4 2h-4v-2l-4-1 1-4-1-2h4v-2l-7-1-2-3 1-1h-7l-5 1-3-2v-2h-13l-6 5-4-2 3-10 5-12 3-3 6-10v-2l14-9 15-8 26-10 34-10 26-8 20-9 13-8 10-9 7-8 4-10 1-4v-15l-4-11-6-8-8-7-16-7-16-4-5-3-1-5 4-6 8-4z" fill="#F8B451"/>
<path transform="translate(74,653)" d="m0 0 10 1 20 5 17 10 15 14 7 8 9 10 9 11 15 14 13 11 9 7-4 1-29-10-9-2 7 7 8 7 10 8 10 6v2l-8 7-7 6-17 17h-2l-4-34-4-17-7-13-7-8-11-8-11-5-3-1h-13l-8 4-6 5-2 4 10-4 5-1h12l9 3 9 6 8 9 7 12 4 13 1 14v14l-2 16-4 13-5 11 12 2 13 4 1 3-37-1-23-3-13-4-8-6-8-9-8-16-4-11-13-18-9-16-5-12v-6l7-2-2-9v-19l4-8 6-5 16-8 11-4h2l1-10-15 1-6 1h-8l1-3 10-7zm22 70-9 3-7 5-6 9-2 5 1 3 6-9 8-6 7-2h7l10 4 7 7 6 12 4 16v23l-3 11-4 8 1 2 5-6 5-12 2-13-1-15-4-16-5-12-7-9-10-6-7-2zm-3 20-6 3-4 5-3 7-2 9-3 11v12l3 7 4 6 6 5 2 1h7l1-4-7-5-4-4-5-1 4-8 1-13-5-7-1-4 5 5 5 4 1 2v7l-3 5-2 4 12-1 5 4 5 7h2l-3-11v-10l5-10v-3l-7-1-2-5-1-12-1-2h-2v11l-4 7v2l-6-1-1-1v-7l5-10 2-3zm-22 6 1 2z" fill="#EF8D35"/>
<path transform="translate(1426,682)" d="m0 0h9v4l-15 15-8 9-10 15-12 20-11 21-4 10-49 9-17 7-17 11-8 7-60 11-48 11h-6l-10-7-5-2-10-2 2-6 9-16 11-16 13-17 12-13 17-17 10-6 19-8 35-10 40-10 54-11 49-8zm-33 10-16 4-16 11-16 12-19 14-14 10-38 28-7 6 2 1 15-6 16-8 16-9 18-13 13-10 18-14 13-10 16-12 4-4zm-33 6-18 4-25 6-10 5-16 11-33 22-16 11-34 23-24 16-20 14-5 3v2l14 8h10l10-2 9-6 19-14 16-11 36-26 11-8 19-13 18-13 14-10 18-13 11-8z" fill="#F8B451"/>
<path transform="translate(1355,870)" d="m0 0 5 1v11l-8 16-6 7-10 6-15 6-24 8-25 8-38 10-23 5-9 17-9 20-8 14-4 4-13 2-93 6h-23l-8-7-14-14-14-11 2 4 7 9 12 15 6 8 1 3 6 1h19l36-2h13v1l-49 5-27 2-5-5-10-12-12-16-10-13-5-5-22-1-11-2-6-4-3-4v-5h4l5 4 8 2h24l-6-9-4-5-22-11-1-1v-5l4-1 13 6 11 3 9 1h40l39-3 50-7 59-10 27-6 45-13 36-12 30-11 15-6zm-25 16-14 4-30 11-21 7-29 9-12 6-9 8-3 6v4h14l26-7 16-5 25-8 22-8 16-8 5-4 3-6-1-7-3-2zm-183 53-50 7-53 5-7 1-1 2 7 19 2 4 5 1 64-6 36-4 6-2-1-9-4-18z" fill="#EF8D35"/>
<path transform="translate(338,692)" d="m0 0 10 3 31 9 36 12 30 9 25 9 14 7 12 11 8 9 10 16 12 22 11 25 12 31v1l-8-1-16-5-35-11-9-3v2l4 2 11 12-1 2-12-9-16-11-19-12-23-11-21-6-6-1-23-1-3-5-6-20-6-25-6-22-10-25-6-12zm79 30 1 5 13 11 9 7 17 13 13 10 14 11 18 14 13 10 7 4 3-1-9-19-10-16-9-12-11-11-16-9-43-15-5-2z" fill="#F8B451"/>
<path transform="translate(1533,694)" d="m0 0 7 1 15 6 36 15 3 2h11l13 4 8 6 5 6 4 8 2 7v6l-4-1-6-9-6-5-7-3 7 8 8 10 7 16 7 33-1 4-4-1v-2l-4 1-4-12-4-5-2-4-8-5 4 4-1 5-8 10-10-5v11l-1 6-3-4-2 8h-2l-2 4-3-1v-2l-12 5-8-1v-3l-9 2-13 3-9 2h-7l-4-2 13-10 19-14v-16l-2-4v9l-8 11-12 11-13 10-18 13-20 13-18 12-5-1-5-6-15-9-10-5v-3l15-8 28-17 13-8 24-16 20-14 12-9 17-14 9-8 2-3-1-5-22-22-11-9zm70 55-9 4-6 7-3 5 1 3 9-7 6-2h9l10 4 8 8h2l-3-9-6-8-6-4-3-1z" fill="#F8B451"/>
<path transform="translate(221,776)" d="m0 0 24 18 31 20 20 12 14 9 7 4 4 3-2 6-6 10-5 11-5 16-2 12-1 29-5-3-5-5-10-9-10-8-14-11-16-13-12-9-14-10-20-12-6-3v-7l-16-17-7-7-1-4 7 1 21 9 15 7 30 15 41 21-8-6-17-12-17-11-25-16-14-10v-4l7-7 7-8 9-10z" fill="#EF8C34"/>
<path transform="translate(760,292)" d="m0 0h11l11 2 16 7 6 4 5 3v2l4 2 8 9 7 11 4 10 4 13 2 15v24l-4 20-8 22-8 17 5-3 2-3h2l2-5 2-3h2l3-6h2l2-4 7-10 1-2h2l2-4 9-14 8-14 9-19 4-9 3-8 1-1 11-1 14 3 8 7 4 9 1 2v17l-3 17-3 12-4 4-26 7-25 10-16 8-21 12-11 9-8 6 4-8 2-7 9-16 7-18 6-25 1-14-1-16-5-10-2-2-18-5-9-3-6 2-9 1-2 2-6 1v2h-2l-1 6-3 3h-2v17h-1l-1-23-3-12-5-12-6-10-5-6-9-6-5-2-7-1 2-5 9-6 14-4z" fill="#EC4E59"/>
<path transform="translate(225,161)" d="m0 0 30 1 55 3 16 1 3 3 3 26-8 4-50 18-5 2h-4v2l10 3 40 17 22 10 3 5 2 24h-16l-78-4-9-1-2-12-1-12h27l27 2v-2l-10-3-26-11-15-6-6-3-1-2-1-17 5-3 41-14 5-2-23-2-28-1-3-1-2-9z" fill="#EF8C35"/>
<path transform="translate(1027,602)" d="m0 0 3 1 8 59 4 32 1 9-2 2-20 6h-2l-2-9-5-39-1-5-4 16-9 43-5 3-11 3-5-1-10-18-14-26-2-2 1 14 5 37-1 4-20 6-4-1-12-95v-5l9-3 17-6 4 2 12 21 16 27 5 9 2-4 9-41 7-29 5-3z" fill="#EF8C35"/>
<path transform="translate(1502,757)" d="m0 0 5 1 1 3-6 10-8 8-18 13-24 13-19 10-38 19-27 12-17 7-25 10-40 14-19 6-8 2-1-4 16-8 27-14 10-6 14-9h2v-3l-18 1-2-2 1-5 7-11 8-9 12-9 14-8 15-6 20-7 54-12 9-1 5 9 11 4 6 2v-2l-9-3-4-3-1-5 3-5 3-1 20-2 17-8z" fill="#F8B451"/>
<path transform="translate(919,342)" d="m0 0h27l14 3 11 6 9 8 7 14 2 7v11l-3 10-7 12-14 20-10 14-13 18-12 17-16 20-7 5-5-2-5-3-1-2v-11l11-40 8-27 4-15 3-14 1-8v-17l-4-9-5-6-3-2-7-2-5-2-8-1v-1z" fill="#F8B451"/>
<path transform="translate(254,666)" d="m0 0h21l14 2 10 5 9 7 7 7 8 14 9 20 23 69 1 4-7-3-26-15-12-7-2 5-5 4h-7l-18-6-8-5-3-5-1-5v-18l-17-10-22-10-19-10-5-5-3-8-4-21 1-2 21-3 17-2-1 9-7 32-2 2-10-7-2-5-2-25-8 2 1 8 4 18 5 4 24 14-4-4v-7l10-41 1-1zm7 7-1 5 8 8 17 13 13 11 16 12 6 1 1-6-8-17-8-12-8-8-10-5-10-2zm-20 48m4 2m1 1m1 1m30 13-2 4 3 8 9 10 12 7 7 1 2-3v-11l-7-8-15-6z" fill="#F8B451"/>
<path transform="translate(431,455)" d="m0 0 5 3 9 10 4 5-1 4-10 25-14 33 8-4 42-26 5 1 7 8 6 6-1 4-11 7-19 12-42 26-11 7-5-1-9-10-5-6 3-9 17-42 5-11-23 13-22 14-8 4-12-13-4-5 3-3 48-30 23-14z" fill="#F8B451"/>
<path transform="translate(74,653)" d="m0 0 10 1 20 5 17 10 15 14 7 8 9 10 9 11 15 14 13 11 9 7-4 1-29-10-9-2 7 7 8 7 10 8 10 6v2l-8 7-7 6-17 17h-2l-4-34-4-17-7-13-7-8-11-8-11-5-3-1h-13l-8 4-6 5-1 2h-9l-3-2h-11l-8-3-5 10h-2l-1 4-3 2-2-7v-19l4-8 6-5 16-8 11-4h2l1-10-15 1-6 1h-8l1-3 10-7z" fill="#F8B451"/>
<path transform="translate(688,628)" d="m0 0h12l14 3 11 5 8 6 6 8 3 8 1 12-1 2h-7l-18-5-4-4-3-5-8-5-3-1h-14l-10 5-6 5-6 11-2 6v13l4 6 6 5 10 3h8l10-3 6-5 1-3-10-2-16-4-1-5 6-12h7l36 9 9 3 1 2-7 16-8 10-11 8-12 5-13 3h-13l-12-3-14-7-8-8-6-12-1-4v-15l4-13 8-14 12-12 10-6 15-5z" fill="#EF8C35"/>
<path transform="translate(808,448)" d="m0 0 5 2-3 7-3 4-2 4-4 4-1 3h-2l-2 9-7 7h-2v2l-8 7-13 11-17 13-19 14-20 13-21 13-14 7-8-1-7-8v-9l9-10 9-9 8-7 12-13 9-10 11-14 7-9 8-6h2v-2h4v-2l7-1v-2l5-2 2-2v2h5v-2h6l9-4 6-2 5-2 4 2v2l7-1 6-3 3-1z" fill="#B52034"/>
<path transform="translate(1476,680)" d="m0 0h19l12 4 15 9 14 13 15 15 9 11v2l4 2 1 4-6 2-40 6-7-1-20-8-13-2-11 1-8 4-8 7-6 13-13 3-35 8h-5l1-6 11-23 10-16 9-12 9-10 10-10 14-9 15-6zm12 6-9 2-11 10-7 8-23 23-7 8-9 9-7 8-9 9v2l9-1 10-3 36-36 9-10 13-12 11-12 2-4-1-1zm14 3-5 4-7 8-13 14-7 8-4 5 8-1 14-6 10-9 12-10v-2h2l1-5-6-5z" fill="#F8B451"/>
<path transform="translate(754,103)" d="m0 0h9l12 3 9 6 5 5 7 8 7 14 3 15-2 15-4 9-5 7-8 6-7 2h-14l-10-3-10-7-7-7-7-11-4-12-1-6v-13l3-12 6-9 8-7z" fill="#EF8B34"/>
<path transform="translate(559,572)" d="m0 0h6l19 11 3 3-3 9-13 35-14 36-5 14-3 1-21-12 1-6 5-12-4-2-19-11-6-4-7 1-11 7-5-1-11-7-8-4v-2l16-9 44-26 24-14zm-6 29-25 15-7 4v2l16 9 2 2 4-1 12-30z" fill="#EF8C35"/>
<path transform="translate(261,352)" d="m0 0 108 6 7 2 7 15 4 9-8 7-18 13-14 10-18 13-19 13-5 4-4-2-8-18-1-3 9-7 5-2-6-15-9-19-19-2-3-3-8-17zm52 26 2 6 7 15 4-1 15-10 10-8v-1l-7-1z" fill="#EF8C34"/>
<path transform="translate(1303,251)" d="m0 0 5 2 4 5 30 30 7 8 11 11 7 8 14 14 2 3-1 8-7 21-1 1-13-1-75-11-13-2-1-3 8-23 36 6 34 6 3-1-54-54-3-4 3-11z" fill="#EF8C34"/>
<path transform="translate(825,643)" d="m0 0h42l1 1-1 11-2 8-1 1h-36l-3 20h33l-2 13-2 6-2 1h-31v7l-3 14h36l1 4-2 13-2 3-35 1h-26v-8l14-85 2-9z" fill="#F8B451"/>
<path transform="translate(1311,143)" d="m0 0 10 1 10 3v17l-1 19 6 2 13 3 1-24 1-7 10 1 9 3v17l-1 16 9 1 12 3v-14l1-21 3-1 16 3 2 1-1 26-2 31-1 5-12-2-74-18-14-4v-20z" fill="#F8B452"/>
<path transform="translate(1040,186)" d="m0 0h17l6 3 4 4v7l-9 17-12 15h-2l-2 4-8 8-8 7-7 7-14 11-12 10-16 12-18 13-19 13-3 1-1-4 13-10 11-9 13-11 7-6h2v-2l8-7 11-12 10-13 4-9 1-8-2-7-3-3-5-1h-17l-19 4-26 9-9 4-5-1 3-5 16-8 38-17 25-9 22-6z" fill="#F9B552"/>
<path transform="translate(1145,524)" d="m0 0h3l1 82 13 29-2 4-12 8-4 3h-3l-14-29-11-9-18-13-17-13-10-7v-3l16-11 4-3 4 1 28 22 3 2-2-46 5-5 15-11z" fill="#F8B451"/>
<path transform="translate(667,392)" d="m0 0 2 1-2 5-13 13-8 7-10 11-7 10-7 12-2 6 1 7 5 6 7 2h16l23-5 32-12 3 1-1 4-27 13-25 11-18 7-25 8-18 3h-12l-8-4-2-4v-7l4-9 7-11 12-14 10-10 8-7 13-12 14-11 19-14z" fill="#EF8C35"/>
<path transform="translate(922,393)" d="m0 0h1l-1 16 4 6 2 1 2-4 4-1-2 1 1 1h10l4-3h9l4 1h7l3 1v2h2l1 5h-2l-1 7-12 17-11 15-12 17-12 16-9 11-7 5-5-2-5-3-1-2v-11l11-40 8-27 4-15z" fill="#EF8C34"/>
<path transform="translate(1251,830)" d="m0 0h4l-1 4-11 8-11 9-15 13-10 9-17 12-17 8-21 6-31 5-39 5-19 2h-15l3-3 16-5 32-6 29-7 26-8 4-3 5-13 6-10 8-7 12-6 15-5 29-6z" fill="#F8B451"/>
<path transform="translate(692,255)" d="m0 0 4 1-6 15-4 19v11l5 19 7 13 3 6 6 5v2l5 1 24 12 2 2v6l-4 5-12 6-3 1h-13l-12-4-9-5-9-8-7-11-4-10-3-13v-15l4-19 8-17 12-16z" fill="#A60F29"/>
<path transform="translate(474,505)" d="m0 0 5 1 7 8 6 6-1 4-11 7-19 12-42 26-11 7-5-1-9-10-5-6 3-9 14-35 6-2 5 2 2-1 3 1v2l4 1 1 7-1 6-2 4 8-4 21-13z" fill="#EF8C34"/>
<path transform="translate(883,372)" d="m0 0h17l4 1 11-1h5l3 7-2 23-3 12-4 4-26 7-25 10-16 8-5 1-3-1-7 1 3-4 2-5 9-11 11-15 8-13 10-18 5-4z" fill="#CB3543"/>
<path transform="translate(225,161)" d="m0 0 30 1 55 3 16 1 3 3 3 26-8 4-42 15h-2l1-7 3-1 1-6-2-3h-3v-2l-3-3 5-2-23-2-28-1-3-1-2-9z" fill="#F8B451"/>
<path transform="translate(1353,923)" d="m0 0h2l-1 11-5 20-5 15-7 12-5 5-16 8-22 6-49 10-4 1h-9l3-3 25-8 21-7 21-9 11-7 6-7 7-15 4-15 1-5-23 8-21 8-23 8-16 6-10 7-7 10-8 15-15 11-6 2 1-4 11-23 7-14 7-6 10-4 28-7 43-13 15-6z" fill="#EF8D35"/>
<path transform="translate(1192,472)" d="m0 0 4 1 14 17 11 14 13 16 11 14 4-2 10-11 7-8 4 2 9 10-1 4-11 13-13 14-8 10-1 2h-2l-1 2-5-5-12-14-9-12-11-14-9-11-11-14-7-9 1-4 11-12z" fill="#EF8C34"/>
<path transform="translate(946,627)" d="m0 0 4 2 20 35-6 3-1 2h-4v2l-9 1 1 3 1 15 5 37-1 4-20 6-4-1-12-95v-5l9-3z" fill="#F8B451"/>
<path transform="translate(755,499)" d="m0 0 9 1-1 4v6l-15 12-18 13-20 13-21 13-14 7-8-1-7-8v-9l9-10 9-9 8-7 12-11 3 1 1-2h2l1-2 2-2-1-2h2l1-2 4-1 2 1 15-1v2h4l12-3z" fill="#A60E28"/>
<path transform="translate(1252,388)" d="m0 0 5 3 13 12 11 9 11 10 11 9 12 11 8 7 6 5-1 5-8 14-2 3-5-2-13-12-11-9-11-10-11-9-14-13-11-9-2-2 1-5 10-16z" fill="#EF8C35"/>
<path transform="translate(688,628)" d="m0 0h12l14 3 11 5 8 6 6 8 3 8 1 12-1 2h-7l-18-5-4-4-3-5-8-5-3-1h-14l-10 5-6 5-3 3-5-2-15 2-7 3h-2l2-6 7-11 11-11 10-6 15-5z" fill="#F8B451"/>
<path transform="translate(754,103)" d="m0 0h9l12 3 9 6 5 5 7 8 7 14 1 8-9-3-6-1-11 1h-26l-3 1h-7v2l-4 2-4 1v2h-2l-1 4h-2l-2-9v-13l3-12 6-9 8-7z" fill="#F9B552"/>
<path transform="translate(844,77)" d="m0 0h16l14 3 9 3 6 12 3 10v17l-4 16-4 9-3 4h-4l-1-16-4-11-6-8-8-7-16-7-16-4-5-3-1-5 4-6 8-4z" fill="#EC4F59"/>
<path transform="translate(1392,162)" d="m0 0 18 3 2 1-1 26-2 31-1 5-12-2-37-9-3-2-2-6-4-2 1-5-2-5 2-1 1 3 3-1 1-2h3l1-4 1-1v-2l-5-1-2-6 4-13 1-2h4l1 2v19l4 1v5l10 1 12 3v-14l1-21z" fill="#EF8C34"/>
<path transform="translate(807,691)" d="m0 0 9 2 4 1 6 2 2 2 12 2h11l3 1v2l-2 1h-31v7l-3 14h36l1 4-2 13-2 3-35 1h-26v-8l6-37 4-3h2l2-5z" fill="#EF8D35"/>
<path transform="translate(321,356)" d="m0 0h12l36 2 7 2 7 15 4 9-8 7-18 13-14 10-9 6 1-5 5-7 3-7-2-4-9-2-2-1 1-3 14-10 1-1-6-1h-32v-2h9v-3h2l1-6-4-11z" fill="#F9B552"/>
<path transform="translate(559,572)" d="m0 0h6l19 11 3 3-3 9-13 35-3-1-2-3-10-5h-4l-3-5 3-9 2-5-11 6-10 6h-2v-11l-1-3-5-1-6-3 4-3 24-14z" fill="#F8B451"/>
<path transform="translate(289,231)" d="m0 0 5 1 30 13 14 7 2 4 2 24h-16l-38-2-2-2 1-2v-11l2-7 5-2-2-3-5-3-1-5 2-1 1-4 1-5z" fill="#F8B451"/>
<path transform="translate(1027,602)" d="m0 0 3 1 7 52v6l-3-3-2-1v-2l-9 2-8-1-2-3-6 1-1 2h-2v2h-3v2l-8 7h-4l2-12 10-43 5-3z" fill="#F8B451"/>
<path transform="translate(1118,1041)" d="m0 0h6l-2 5-5 6h-2l-1 3-10 6-7 3-19 1h-41l-7-3-9-6-8-10v-1h49z" fill="#EF8D35"/>
<path transform="translate(445,862)" d="m0 0 11 3 20 9 12 9 8 8 13 17 11 19-1 2-26-5-15-8-1-3 1-3v-15l-4-5-2-1h-10l-4 6-1 9-5-3-3-11z" fill="#EF8E36"/>
<path transform="translate(529,996)" d="m0 0h2l3 3 10 4 29 9 25 6 34 6 22 3 1 5h-10l-49-7-31-7-31-9-11-4 3 3 27 9 34 9 37 7 22 3 1 3-6 2-29-3-32-5-28-7-23-6-8-4-2-3v-6l6-8z" fill="#EF8D37"/>
<path transform="translate(1127,589)" d="m0 0 2 1-1 2 10-2v2l3-1 1-2 5 1 2 16 13 29-2 4-12 8-4 3h-3l-14-29-11-9-3-2 1-9 4 1 2-6 5-5z" fill="#EF8C34"/>
<path transform="translate(1487,817)" d="m0 0h4l2 5 2 2v3h-2v5h-2l-2 5-2 4-6 1-2 7-12 8-5-1-5-6-15-9-10-5v-3l15-8 5-3h7l4-2 3-1 8-1 2 1h11z" fill="#EF8C34"/>
<path transform="translate(947,672)" d="m0 0 2 1 3 17 5 37-1 4-20 6-4-1-5-39v-10l5-6 3-4 10-2v-2z" fill="#EF8C35"/>
<path transform="translate(225,161)" d="m0 0 30 1 22 1 4 2 3 5-1 5h-1l-1 12-1 1h-21l-28-1-3-1-2-9z" fill="#EF8C35"/>
<path transform="translate(692,255)" d="m0 0 4 1-6 15-4 19v11l5 19 7 13 1 3h-2l-6-9-10-3v-2l-7 1-2 4-5 2v3h-2l-2 2-1-6v-15l4-19 8-17 12-16z" fill="#CC3644"/>
<path transform="translate(386,483)" d="m0 0 10 1 2 7-1 3h2l2 6-3 6-26 16-10 6-16-16-1-3 38-24z" fill="#EF8C35"/>
<path transform="translate(1303,251)" d="m0 0 5 2 4 5 30 30 4 6-10 2h-2v6l-2 1 4 5-1 6-7-6-29-29-3-4 3-11z" fill="#F9B552"/>
<path transform="translate(474,505)" d="m0 0 5 1 7 8 6 6-1 4-11 7-38 24v-3l4-6 3-4-1-3 1-4-3 1v-2h-9l-4-4 14-8 14-9z" fill="#F8B451"/>
<path transform="translate(1192,472)" d="m0 0 4 1 14 17 11 14 5 6v2l-9 2-2 6h-3v2l-3 1v6l-5-5-8-10-11-14-7-9 1-4 11-12z" fill="#F9B552"/>
<path transform="translate(152,730)" d="m0 0 2 1v2l4 2 15 14 13 9 5 3v2l-8 7-7 6-17 17h-2l-4-34-3-13-1-13 3-1z" fill="#EF8D35"/>
<path transform="translate(1252,388)" d="m0 0 5 3 13 12 11 9 6 5-2 1 1 4h2l-1 5-5 1-2 5-6 6-8-6-13-12-11-9-2-2 1-5 10-16z" fill="#F9B552"/>
<path transform="translate(82,649)" d="m0 0h30l16 4 9 4 14 8 2 1 23-7 21-4 31-3h28l10 1v2l-31 1-30 3-38 8-4 1 2 4 13 18 8 13v2l-5-2-14-12-13-11-11-9-14-11-14-7-15-2h-20z" fill="#F8B452"/>
<path transform="translate(1280,322)" d="m0 0 48 8-2 1v2l-4 4-2 6h-2l2 11-12-1-35-5-1-3z" fill="#F9B552"/>
<path transform="translate(541,805)" d="m0 0 4 4 11 21 4 3 24 8 5 5v7l-2 7 15 7 13 7 10 8 8 9 6 12 2 7v12l-3 1-5-18-5-9-5-6-13-10-15-8-24-8-7-2-15-37-8-18zm19 31 1 5 4 9 16 3 4-2-1-5-10-5z" fill="#F8B350"/>
<path transform="translate(856,95)" d="m0 0 10 1 9 2 1 2 8 2h3l1 3 3 3v20l-6 18-4 5h-4l-1-16-4-11-6-8-8-7-6-3 1-4 1-1v-3z" fill="#CC3744"/>
<path transform="translate(529,996)" d="m0 0h2l3 3 10 4 29 9 25 6 34 6 22 3 1 5h-10l-49-7-31-7-31-9-7-3h-5l1-5z" fill="#EF8F36"/>
<path transform="translate(965,983)" d="m0 0 14 1 3 8 7 14 5 5 8 6 17 3 4 6-1 2h-20l-12-3-8-6-6-7-7-14-4-11z" fill="#EF8D36"/>
<path transform="translate(1124,891)" d="m0 0h13l1 1h14l-4 6-1 2-40 6-44 5h-15l3-3 16-5 32-6z" fill="#F09038"/>
<path transform="translate(198,765)" d="m0 0h16l9 1-2 5-14 15-8 8-5 6-5 1-4-3-3-5-5-3 1-4 7-7 7-8z" fill="#EF8E36"/>
<path transform="translate(679,322)" d="m0 0h2v2l7 1 5 3 4 6v2h2l6 7 2 1v2l5 1 6 3 3 3-10-1-5-4v-2l-8-2-2 1-15 2-3 1v3h-2v2h2l1 9h-3l-7-11-4-10-1-3v-7l3 1v-3l6-4 1-2z" fill="#B62034"/>
<path transform="translate(1016,246)" d="m0 0 4 1v4l-5 5-5 9-12 10-13 10-19 14-20 14-8 5-2-1 1-4 12-9 11-9 13-11 7-6h2v-2l8-7 11-12 1-2 6-2 2-4z" fill="#EF8E36"/>
<path transform="translate(880,416)" d="m0 0h10l3 5v2l-28 11-20 10-6-1-7 1 3-4 2-5 4-2 6-8h2v-2l4-3 11-2 4-1h9z" fill="#B72135"/>
<path transform="translate(1145,835)" d="m0 0 9 1-3 3-28 11-29 14-23 14-17 12-4 3-2-1 11-11 8-7 14-11 15-10 15-8 18-7z" fill="#F8B451"/>
<path transform="translate(684,932)" d="m0 0 5 1 7 9 3 7v18l-6 5h-5l2-4v-3h-5l-1-1 1-13h-3l-8 14-7 3-8 1 2-5 10-11 11-18z" fill="#EF8E36"/>
<path transform="translate(233,668)" d="m0 0h3l-1 9-7 32-2 2-10-7-2-5-2-25h-4v-2z" fill="#F9B552"/>
<path transform="translate(404,852)" d="m0 0 9 1 26 7 2 7 3 21-1 4-5-4-4-5-2-1v-2l-4-2-24-24z" fill="#EF8F36"/>
<path transform="translate(667,392)" d="m0 0 2 1-2 5-13 13-8 7-10 11-7 10-5 8-2-4v-4h-4l-6 2-4-1 10-10 11-9 15-12 14-10z" fill="#F8B552"/>
<path transform="translate(1316,854)" d="m0 0 2 2h3v-2l2 1v3l5-2v5l-5 3-37 13-19 6-8 2-1-4 16-8 25-13 16-2z" fill="#F08F37"/>
<path transform="translate(430,978)" d="m0 0 7 1 21 8 35 13 4 2v2h-17l-20-6-25-9-6-3-1-6z" fill="#EF8F36"/>
<path transform="translate(1124,891)" d="m0 0h13l1 1h14l-4 6-1 2-26 4h-13l-2-2v-3l7-2 6 1-1-3 3-3z" fill="#F08F37"/>
<path transform="translate(96,715)" d="m0 0h12l9 3 8 5-2 3-6 2-2 3-8-5-7-2-9 1-6 2v-3l-6-2 2-3 10-3z" fill="#F8B451"/>
<path transform="translate(228,652)" d="m0 0h28l10 1v2l-31 1-30 3-23 5h-5l-6-2 1-2 25-5z" fill="#F8B451"/>
<path transform="translate(990,896)" d="m0 0h2l5 13 6 9-3 3-9 1-8-5-2-5 5-10z" fill="#F9B552"/>
<path transform="translate(612,873)" d="m0 0 7 4 10 9 7 10 4 10 1 4v12l-3 1-5-18-5-9-5-6-1-3-2-1v-3h-2v-2l-2-1-6-6z" fill="#F1943A"/>
<path transform="translate(198,673)" d="m0 0h10l-4 3 1 8 4 18 5 4 14 8v2l-9-2-10-5-5-5-3-8-4-21z" fill="#F1933A"/>
<path transform="translate(1410,932)" d="m0 0 5 1 5 5 2 5-1 12-4 6-3 3h-6l-4-4v-1l6-2 3-5 1-7-4-10z" fill="#F09138"/>
<path transform="translate(835,438)" d="m0 0v3l-2 2 7-1 3 3-20 12-15 13v-3l3-3 1-7 6-10 2-1-2 7 5-3 2-3 5-3z" fill="#E84E56"/>
<path transform="translate(1126,821)" d="m0 0 5 1-1 2-21 8-4 2h-5l-3-3 1-5 3-2z" fill="#F8B24F"/>
<path transform="translate(1116,893)" d="m0 0 4 1-1 4h-7l-5 2 1 3 2-1v2l4 1-14 2h-5l-1-2-8-2v-2l-2-1 28-6z" fill="#F7AF4E"/>
<path transform="translate(94,743)" d="m0 0 4 1 3 2v11l-5 9-4 1-4-3v-7l5-10 2-2z" fill="#F09239"/>
<path transform="translate(692,255)" d="m0 0 4 1-6 15-4 19-1 8h-1v-10l1-10v-4l-5 2h-3v2l-3 1 2-5 10-13z" fill="#EC5359"/>
<path transform="translate(404,852)" d="m0 0 9 1 8 2v3l5 1-3 3h-4l2 5h4l5 6-2 2-4-1-20-20z" fill="#F7B04E"/>
<path transform="translate(491,749)" d="m0 0 4 2 9 10 10 16 2 3 3 9 5 9-1 2-3-2-8-16-7-11-9-12-3-6z" fill="#F29B3F"/>
<path transform="translate(351,921)" d="m0 0h1v23l-2 2-6-1-1-2v-15l2-4z" fill="#EF8D37"/>
<path transform="translate(684,932)" d="m0 0 5 1 7 9 3 7v6l-3-3-2-6-5-2-8-1v2h-4l2-5z" fill="#F8B451"/>
<path transform="translate(1623,789)" d="m0 0h3l-1 13v10l-4 1-5-9 1-7z" fill="#F7AF4E"/>
<path transform="translate(323,922)" d="m0 0 9 3 8 6v7l-4 7-4 2v-20l-6-1z" fill="#F08F37"/>
<path transform="translate(1079,869)" d="m0 0 2 1v2l-16 10-15 11-2-1 11-11 8-7 4-3 7-1z" fill="#F1943B"/>
<path transform="translate(81,763)" d="m0 0 3 1 5 6 4 4v7l-3 5-3 4 4 1-7 1 2-11v-7l-5-7z" fill="#F1973C"/>
<path transform="translate(669,1026)" d="m0 0h14l6 1-1 6h-14l-6-2z" fill="#F09037"/>
<path transform="translate(99,767)" d="m0 0 5 1-1 8 1 8-4 1-4-3-1-7 2-6z" fill="#F0923A"/>
<path transform="translate(541,805)" d="m0 0 4 4 11 21 3 3 1 7h-2v2h-2l-14-33z" fill="#F1943A"/>
<path transform="translate(1623,751)" d="m0 0 4 1 8 16v4l-4-1-3-5-6-9v-4z" fill="#F09239"/>
<path transform="translate(1636,817)" d="m0 0h1v5l-7 3-4 1-3 6-3-3v-8l3-3 7 1 6 2z" fill="#F29A3F"/>
<path transform="translate(1328,932)" d="m0 0 2 1 1 2-23 8-10 4-4-2 5-3 15-5 10-4z" fill="#F1953B"/>
<path transform="translate(191,656)" d="m0 0h11v1l-10 2-2 3-8 2h-5l-6-2 1-2z" fill="#F1943A"/>
<path transform="translate(1608,805)" d="m0 0 4 2 3 5 1 7-3 6-2 2h-3l-1-3 4-5-2-7-2-5z" fill="#F5A446"/>
<path transform="translate(992,910)" d="m0 0h5l6 8-3 3h-6l-3-2-1-7z" fill="#EF8D35"/>
<path transform="translate(668,1037)" d="m0 0h8l8 2v4l-5 1-11-1-1-4z" fill="#F08C3A"/>
<path transform="translate(835,438)" d="m0 0v3l-2 2 7-1 3 3-13 8-3-1v-2-3z" fill="#CE3B44"/>
<path transform="translate(172,685)" d="m0 0 4 2 8 13 2 5-5-2-7-6-1-4 1-4z" fill="#F1963C"/>
<path transform="translate(1105,1017)" d="m0 0h13v1l-38 4h-6v-1l-5-1v-1z" fill="#F5A546"/>
<path transform="translate(559,833)" d="m0 0 25 8 1 3-9-1-17-7z" fill="#F5A647"/>
<path transform="translate(887,134)" d="m0 0 1 4-4 9-3 4h-4v-11l2 2 1-2h2v2l3-2z" fill="#EC5157"/>
<path transform="translate(238,652)" d="m0 0h18l10 1v2h-32z" fill="#F6A849"/>
<path transform="translate(705,244)" d="m0 0 3 1h-2l-2 6-5 7h-3v-2l-3-1 5-5z" fill="#F08F37"/>
<path transform="translate(1244 1e3)" d="m0 0h6l-1 4-8 2h-9l3-3z" fill="#EE694F"/>
<path transform="translate(541,805)" d="m0 0 4 4 8 17h-2l-1 2-9-21z" fill="#F4A043"/>
<path transform="translate(1309,939)" d="m0 0 2 1-3 3-10 4-4-2 5-3z" fill="#F09239"/>
<path transform="translate(1614,816)" d="m0 0h2l-1 6-4 5h-3l-1-3z" fill="#F8B451"/>
<path transform="translate(882,149)" d="m0 0v3l-6 8-3 2 3-12h5z" fill="#F09138"/>
<path transform="translate(1145,835)" d="m0 0 9 1-3 3-9 1-2-3z" fill="#F29B3F"/>
<path transform="translate(187,738)" d="m0 0 5 1 6 5-4 1-8-3z" fill="#F39F42"/>
<path transform="translate(513,782)" d="m0 0h3l8 16-1 2-3-2-7-14z" fill="#F09339"/>
<path transform="translate(560,839)" d="m0 0 2 2 1 6-4 2-2-4 1-5z" fill="#F5A446"/>
<path transform="translate(933,227)" d="m0 0 7 1-5 5-5-1z" fill="#F29940"/>
<path transform="translate(1463,815)" d="m0 0m-1 1m-2 1h2l2 4-7 2-3-1 4-4z" fill="#F9B552"/>
<path transform="translate(483,843)" d="m0 0 7 2 6 7-1 2-12-9z" fill="#F4A345"/>
<path transform="translate(330,948)" d="m0 0 1 2h-2l1 8-2 1-2-1-1-6z" fill="#F4A043"/>
<path transform="translate(940,311)" d="m0 0 4 2-4 4-3 1-1-4z" fill="#D44744"/>
<path transform="translate(590,864)" d="m0 0 8 1 1 3h2v2l-5-1-4-2v-2z" fill="#EF8C35"/>
<path transform="translate(176,659)" d="m0 0h6l1 3-11 1v-3z" fill="#F39E42"/>
<path transform="translate(704,455)" d="m0 0 3 1-1 4-4 2-4-1h3l1-4z" fill="#EE6654"/>
<path transform="translate(1133,837)" d="m0 0 4 1-7 4-4-1v-2z" fill="#F1943A"/>
<path transform="translate(491,749)" d="m0 0 4 2 4 4-1 3-3-1-3-5z" fill="#F08F3A"/>
<path transform="translate(1635,748)" d="m0 0 2 1v6l-4-1-1-4z" fill="#F2973D"/>
<path transform="translate(328,916)" d="m0 0 4 2-1 1h-5v-2z" fill="#F39E41"/>
<path transform="translate(1625,836)" d="m0 0 3 2-1 3-3-2z" fill="#F39C40"/>
<path transform="translate(1402,942)" d="m0 0h1v7l-2 1z" fill="#F9B552"/>
<path transform="translate(179,798)" d="m0 0 6 1v2l-6-2z" fill="#F5A547"/>
<path transform="translate(1402,950)" d="m0 0h1v7h-1z" fill="#F9B552"/>
<path transform="translate(1119,1016)" d="m0 0 2 1z" fill="#F9B552"/>
<path transform="translate(540,803)" d="m0 0" fill="#FBD9A8"/>
<path transform="translate(648,1038)" d="m0 0" fill="#F9B552"/>
<path transform="translate(1403,957)" d="m0 0" fill="#F9B552"/>
<path transform="translate(331,947)" d="m0 0" fill="#F9B552"/>
<path transform="translate(1047,893)" d="m0 0" fill="#F9B552"/>
<path transform="translate(1606,817)" d="m0 0" fill="#F9B552"/>
<path transform="translate(539,801)" d="m0 0" fill="#FEFEFE"/>
</svg>
