<?xml version="1.0" encoding="UTF-8"?>
<svg version="1.1" viewBox="0 0 1484 916" width="1280" height="1280" xmlns="http://www.w3.org/2000/svg">
<path transform="translate(789,35)" d="m0 0 17 1 13 3 15 6 14 9 12 11 9 11 9 15 6 15 3 13v35l-3 15-7 19-10 19-9 12-9 10-2 3 1 11 3 20 1 13v31l-3 26-5 26-7 26 7-3 18-2 21-1h20l24 3 11 4 11 7 9 10 6 10 4 13v17l-3 12-6 11-24 34-20 28-12 17-14 19-10 13-8 10-6 4h-7l-6-3-5-5v-10l10-38 13-45 3-13-42 12-25 10-30 15-17 11-14 10-15 13-12 12-8 7-9 9-8 7-11 9-15 12-20 15-19 13-26 17-28 17-13 6-7-1-7-4-4-7-1-9 5-10 17-16 22-22 7-8 12-14 9-11 11-14 11-16 12-19 12-21 10-22 7-21 4-24 1-9v-16l-4-23-5-14-8-15-9-10-14-8-6-2h-8l-8 5-6 7-4 10v17l4 9 5 6 10 5 10 4 4 3 1 9-4 6-5 4-16 6h-15l-17-5-13-7-10-9-8-10-6-13-4-12-2-13v-14l3-19 5-15 8-16 12-16 9-10 7-7 19-14 16-10 16-8 20-8 34-11 35-10 30-10 23-11 13-9 14-12 5-7 7-17 2-9v-11l-2-10-6-12-8-10-8-6-14-7-16-3-12-3-5-5-1-2v-7l5-6 12-5 8-2z" fill="#67CF6D"/>
<path transform="translate(674,312)" d="m0 0h9l16 3 19 7 10 6 10 8 11 11 9 14 6 13 4 11 5 25v29l-4 24-6 20-7 16-10 19-10 16-5 9h-2l-1 5-6 8-30 28-25 20-20 15-19 13-26 17-28 17-13 6-7-1-7-4-4-7-1-9 5-10 17-16 22-22 7-8 12-14 9-11 11-14 11-16 12-19 12-21 10-22 7-21 4-24 1-9v-16l-4-23-5-14-8-15-9-10-14-8-6-2h-12l2-4 10-7 10-6 19-6z" fill="#278831"/>
<path transform="translate(883,379)" d="m0 0h20l24 3 11 4 11 7 9 10 6 10 4 13v17l-3 12-6 11-24 34-20 28-12 17-14 19-10 13-8 10-6 4h-7l-6-3-5-5v-10l10-38 13-45 3-13-42 12-25 10-30 15-17 11-12 8-2-1 3-5 9-10 3-4h2l2-4 12-16 12-17 9-14 10-17 8-14 9-19 10-25 10-5 18-2z" fill="#278831"/>
<path transform="translate(990,703)" d="m0 0 4 2 7 61 6 54-3 3-24 7-2-3-7-57v-4h-2l-2 13-11 53-2 5-11 4-6 2h-6l-5-8-24-46-2-3 5 49 2 16-10 4-14 4-5-1-8-64-5-46v-7l7-3 22-6h5l16 29 14 24 9 16h1l6-27 9-39 5-20 4-4z" fill="#67CF6D"/>
<path transform="translate(40,207)" d="m0 0h119l2 6 5 26-2 3-36 15-29 12-8 4 48 18 29 11 7 3 3 7 4 22v4l-27 1-93-1-3-12-2-16 2-1 62 1-1-2-37-13-30-11-3-12-1-11 8-4 22-8 18-7 13-5h2v-2h-67l-2-3-3-20z" fill="#68D06E"/>
<path transform="translate(789,35)" d="m0 0 17 1 13 3 15 6 14 9 12 11 9 11 9 15 6 15 3 13v35l-3 15-7 19-10 19-8 11-4-1-2-5-3-1 1-7-1-10-1-7-6-8-3-6-10-3v-2l-5-2v-2l-7-1-1 2-8 3-1 2-3-1-1-7 7-8 7-14 3-9 1-6v-11l-2-10-6-12-8-10-8-6-14-7-16-3-12-3-5-5-1-2v-7l5-6 12-5 8-2z" fill="#278831"/>
<path transform="translate(883,379)" d="m0 0h20l24 3 11 4 11 7 9 10 6 10 4 13v17l-3 12-6 11-24 34-8 12-4-2 2-3-4 2-3 5-6 1-4 1-5 1v2l-12 1-9-3 1-3-4-2-7-2-1-9v-4l4-8 2-6 1-11 7-38v-19l-3-10-5-9-7-6-9-5-3-3 4-2z" fill="#67CF6D"/>
<path transform="translate(662,69)" d="m0 0h17l14 5 11 7 11 11 8 13 5 11 3 14v17l-3 12-7 12-8 8-8 5-7 2h-20l-11-4-11-7-12-12-8-13-5-11-3-13v-16l4-15 5-9 6-7 11-7z" fill="#67CF6D"/>
<path transform="translate(292,538)" d="m0 0 4 1 9 8 7 8 2 5-22 58-5 13 11-7 32-21 14-10 5 1 14 14 3 4-2 4-82 54-11 7-3 2h-3l-7-8-8-8-3-4 1-5 13-34 10-27 2-7-20 13-32 21-4 3-6-1-9-10-7-8 1-3 44-29 30-20 20-13z" fill="#68D06E"/>
<path transform="translate(595,733)" d="m0 0h15l17 3 16 8 9 9 6 12 1 5v12l-1 2-7-1-21-5-4-4-5-8-4-3-10-3h-14l-10 4-10 9-7 12-3 12 1 9 3 6 8 7 7 3 5 1h12l9-3 9-7v-2l-18-5-12-3-1-1 1-7 6-12 2-1 38 10 17 4 3 2-3 11-8 15-9 9-13 8-17 6-8 1h-17l-16-4-13-7-9-9-7-14-2-13 2-13 5-14 7-12 9-10 9-8 14-7 11-3z" fill="#67CF6D"/>
<path transform="translate(446,669)" d="m0 0 6 1 13 7 11 7 1 3-13 36-9 26-13 36-5 12-5-1-20-12-2-4 5-13v-5l-10-6-19-11-5-3-6 2-11 7-5 2-24-14 2-4 25-15 13-8 28-17 21-13 20-12zm-9 35-19 12-15 9-2 1v2l23 13h2l11-27 3-10z" fill="#67CF6D"/>
<path transform="translate(90,426)" d="m0 0h57l56 1 18 1 5 3 12 24-1 4-9 8-16 12-14 11-13 10-18 14-13 10-8 6-4-2-12-24 8-7 8-6-8-16-11-21-1-1h-20l-5-5-11-20zm63 26 1 5 10 19h4l14-10 12-9 3-2v-2l-14-1z" fill="#68D06E"/>
<path transform="translate(1036,176)" d="m0 0h20l9 4 4 5v11l-4 10-9 14-9 11-12 13-13 13-8 7-10 9-14 11-13 11-14 10-16 12-12 8-18 13-12 7h-4l2-4 13-11 20-16 14-12 16-15 15-15 8-10 9-14 4-9 2-11-2-8-5-2-6-2-12-1-20 2-20 5-34 12-8 3-4-1 1-4 13-8 21-10 33-15 30-11 30-9z" fill="#298A32"/>
<path transform="translate(1324,303)" d="m0 0 3 1 7 9 11 12 9 11 14 15 7 8 11 13 7 8 18 20 1 6-10 27-3 4-12-2-105-20 1-5 9-23 5-1 18 4 37 8 19 4h6l-14-15-7-8-13-14-7-8-12-13-11-12 1-5 8-20z" fill="#67CF6D"/>
<path transform="translate(549,445)" d="m0 0h5l-1 5-9 9-8 7-22 22-10 13-8 13-4 9-1 4v7l3 6 5 4 9 3h18l20-4 27-8 26-10 4 2-1 4-19 10-36 16-28 12-30 10-25 6-5 1h-19l-7-3-5-5-1-2v-8l4-11 7-11 7-9 11-12 7-8 10-10 8-7 9-9 11-9 13-11 17-13 14-10z" fill="#298A33"/>
<path transform="translate(1339,178)" d="m0 0 17 5 5 3-1 16-3 26 16 4 7 2 1-16 2-18 1-3 7 1 13 4 2 2-4 37 16 4 9 2 1-18 2-18 2-5 17 4 5 3-4 38-3 29-1 3-9-1-64-19-40-12-3-2 3-25 5-45z" fill="#68D06E"/>
<path transform="translate(733,750)" d="m0 0h71l1 5-4 16-3 2h-40l-1 9-3 15h29l9 1-2 18-1 2-38 1-5 26h42l1 5-3 16-1 1-17 1-54 1-2-3 5-26 14-85z" fill="#68D06E"/>
<path transform="translate(584,265)" d="m0 0h2l-1 7-3 6-3 4h-2l-2 13-1 6 1 2h-2l1 5 2 21 5 20 8 16 8 10 8 8 6 2 3-1 5 6 10 5 10 4 4 3 1 9-4 6-5 4-16 6h-15l-17-5-13-7-10-9-8-10-6-13-4-12-2-13v-14l3-19 5-15 8-16 12-16 9-10z" fill="#278831"/>
<path transform="translate(631,565)" d="m0 0 6 2 2 3 8 4 3 5 3 3 1 6-2 6v14l5-2 4-1 2-2 2 2-11 9-23 16-29 19-28 17-13 6-7-1-7-4-4-7-1-9 5-10 17-16 22-22 7-8 12-14 9-11 3-3z" fill="#67CF6D"/>
<path transform="translate(1130,614)" d="m0 0h1v97l5 12 9 21v3l-15 10-7 5h-2l-7-14-9-21-12-10-20-15-14-11-19-14 2-4 16-11 7-5 5 2 12 11 14 11 8 6v-55l9-7 11-7z" fill="#67CF6D"/>
<path transform="translate(1185,556)" d="m0 0 4 1 14 19 14 18 10 14 10 13 6 8v2l4-1 11-12 7-8 4-4 4 1 9 12 1 5-9 10-7 8-7 7-7 8-12 13-3 2-8-10-13-18-10-13-14-19-14-18-12-16 1-4 15-16z" fill="#67CF6D"/>
<path transform="translate(1256,460)" d="m0 0 4 2 4 3v2l4 2 8 8 8 7 16 15 8 8 8 7 17 16 8 7 3 3-1 5-7 10-6 9-2 1-11-9-11-11-8-7-8-8-8-7-10-10-8-7-7-7-8-7-6-5-2-5 9-13z" fill="#67CF6D"/>
<path transform="translate(636,88)" d="m0 0 2 4-2 14-1 2-1 6 5 2 4 10v2h2v2h2v3l4 1 1 2 6 3 4 3 9 2 7 3 1 2 9 2 2 2 11 4 1 1h7v-2l9-5 4-1 2-2v-2h2v-8l2-10h2l1 2v17l-3 12-7 12-8 8-8 5-7 2h-20l-11-4-11-7-12-12-8-13-5-11-3-13v-16l4-15z" fill="#288A32"/>
<path transform="translate(1044,184)" d="m0 0 4 2-1 5-4 1h-7v-2l5-5z" fill="#68D06E"/>
<path transform="translate(1056,186)" d="m0 0h3l1 4 2 1-2 2-6-1v-5z" fill="#68D06E"/>
</svg>
