<?xml version="1.0" encoding="UTF-8"?>
<svg version="1.1" viewBox="0 0 2048 1173" width="1280" height="1280" xmlns="http://www.w3.org/2000/svg">
<path transform="translate(1050,22)" d="m0 0h20l23 3 16 5 12 6 14 11 13 12 11 13 8 13 7 14 6 16 4 15 1 8v24l-3 18-6 20-7 19-12 22-7 10-9 11-8 9v13l5 45v34l-4 36-4 27-9 36-2 11 1 1h9l4-1-5-1v-2h-4l2-4 1-1 29-3 15-1h41l17 2 15 5 15 9 11 10 9 14 6 15 2 9v17l-3 11-8 16-10 16-13 18-11 16-10 14-9 12-12 17-14 20-20 26-9 11-10 10-7 4-9-3-6-5-3-5v-10l8-32 8-31 7-24 10-37 1-2-21 6-26 8-25 9-29 13-19 10-18 10-11 7-14 11-26 24-14 14-8 7-12 11-8 7-16 13-9 7-15 12-11 8-19 14-19 13-48 30-19 11-13 6-5 1-9-4-8-8-4-8v-7l4-8 11-12 9-9 8-7 31-31 7-8 9-10 9-11 10-13 12-16 14-20 10-16 9-15 10-18 12-27 7-21 7-26 2-15v-40l-3-16-7-19-9-16-9-12-9-9-17-10-7-3-6 1-11 7-8 9-5 11-2 7v19l5 12 6 8 10 6 16 7 6 7-1 7-7 8-14 7-13 4h-16l-14-3-15-6-12-9-10-9-8-11-7-12-6-18-4-24v-9l5-30 7-21 11-20 14-19 19-19 8-7 13-10 19-12 23-12 27-11 30-10 33-10 26-7 30-10 23-10 14-7 17-11 11-9 8-8 9-14 6-15 2-10v-20l-3-12-8-15-8-9-14-10-19-8-17-4-15-4-6-4-3-4 1-7 6-8 6-4 24-6z" fill="#9D9D9D"/>
<path transform="translate(917,378)" d="m0 0 17 1 16 4 13 5 16 9 9 7 10 9 10 11 10 15 8 17 7 25 4 23 1 11v11l-3 24-5 21-6 20-5 12-13 27-12 20-10 15-8 11-1 7-4 6-7 7-8 7-12 11-8 7-16 13-9 7-15 12-11 8-19 14-19 13-48 30-19 11-13 6-5 1-9-4-8-8-4-8v-7l4-8 11-12 9-9 8-7 31-31 7-8 9-10 9-11 10-13 12-16 14-20 10-16 9-15 10-18 12-27 7-21 7-26 2-15v-40l-3-16-7-19-9-16-9-12-9-9-17-10-7-3-1-3 4-5 12-7 19-6z" fill="#404040"/>
<path transform="translate(1171,461)" d="m0 0h41l17 2 15 5 15 9 11 10 9 14 6 15 2 9v17l-3 11-8 16-10 16-13 18-11 16-10 14-9 12-12 17-14 20-20 26-9 11-10 10-7 4-9-3-6-5-3-5v-10l8-32 8-31 7-24 10-37 1-2-21 6-26 8-25 9-29 13-19 10-18 10-3 2h-4l1-5 7-12 8-10 11-16 19-29 12-20 13-24 12-25 10-25 2-2h12l4-1-5-1v-2h-4l2-4 1-1 29-3z" fill="#8D8D8D"/>
<path transform="translate(1050,22)" d="m0 0h20l23 3 16 5 12 6 14 11 13 12 11 13 8 13 7 14 6 16 4 15 1 8v24l-3 18-6 20-7 19-12 22-7 10-9 11-8 9v13l4 34v9l-1 10-7 8-4 1-9-3-5-4-7-8-7-6-11-5-16-9-10-12v-2l-4-2-5-5-14-12-6-4-4-4-10-4-8-3-13-3-11-1-3-1-19-1-15-3-6-4-1-4 6-5 33-9 30-10 23-10 14-7 17-11 11-9 8-8 9-14 6-15 2-10v-20l-3-12-8-15-8-9-14-10-19-8-17-4-15-4-6-4-3-4 1-7 6-8 6-4 24-6z" fill="#8D8D8D"/>
<path transform="translate(1351,891)" d="m0 0 4 1 3 20 6 44 10 82 2 14v6l-4 3-31 10h-4l-2-10-4-25-6-48-2-4-3 9-8 44-10 44-5 4-20 6h-8l-7-10-15-28-15-29-7-9-2-1 5 39 6 42v8l-9 4-26 8-5-1-5-30-6-50-9-71-2-14 4-3 26-8 14-5 5 2 9 14 13 23 15 25 14 24 6 9 2-3 17-74 6-26 3-18 4-4 36-12z" fill="#9D9D9D"/>
<path transform="translate(22,161)" d="m0 0 75 3 78 4 14 1 3 2 3 15 4 27-1 5-8 4-29 10-28 10-38 14-7 2 4 3 16 6 43 18 53 23 6 4 2 7 3 38-1 1h-17l-122-6-24-2-6-1-2-8-2-19v-13h21l59 4h10l-3-3-38-16-43-17-10-4-3-4-2-15v-15l12-5 38-13 24-8 10-4 1-2-19-1-31-2-28-1-11-1-3-5-3-25z" fill="#9D9D9D"/>
<path transform="translate(362,649)" d="m0 0 5 1 6 5 7 8 11 12 1 7-13 32-13 30-11 28-3 7 9-3 16-10 21-13 19-12 17-11 7 1 24 26-2 4-10 7-21 13-19 12-47 29-24 15-18 11-4 1-13-13-14-16 3-9 8-20 12-29 11-28 5-13v-3l-25 15-27 16-13 8-19 11-5-3-9-11-12-14-1-3 22-14 24-15 19-12 52-32 22-14z" fill="#9D9D9D"/>
<path transform="translate(794,934)" d="m0 0h9l24 4 21 8 13 9 8 9 7 14 3 11v15l-1 3-2 1-9-1-29-8-6-4-4-9-5-5-8-5-9-3-10-1-14 2-14 7-10 9-7 10-5 11-4 14v10l4 10 7 9 8 5 12 4 6 1h10l12-3 11-6 5-4 1-4-8-3-18-5-15-3-3-2 1-8 8-18 1-1 12 1 25 6 48 12 3 4-12 25-6 10-6 7-14 11-15 8-18 6-11 2-16 1-18-2-13-4-16-8-9-7-8-8-8-13-4-13-1-7v-12l3-16 6-16 8-14 9-12 9-9 14-10 14-7 16-5z" fill="#9D9D9D"/>
<path transform="translate(891,621)" d="m0 0 1 2-1 5 6 9 7 7 20 10 8 7v2h2v2h2l5 6 3 3 3 6 1 11-3 8-7 12-7 11 2 1-13 11-9 7-15 12-11 8-19 14-19 13-48 30-19 11-13 6-5 1-9-4-8-8-4-8v-7l4-8 11-12 9-9 8-7 31-31 7-8 9-10 9-11 10-13 12-16 14-20 10-16 9-15z" fill="#8D8D8D"/>
<path transform="translate(577,840)" d="m0 0 7 1 22 12 15 11-1 6-11 29-16 43-11 28-18 46-3 6-5-1-20-12-12-7-1-4 9-20v-5l-15-10-24-14-9-6-4-1-18 11-7 5-7-2-16-10-14-8v-3l11-8 21-12 26-15 25-15 29-17 32-19zm-12 51-17 9-30 19-6 3 4 4 16 9 11 7 3 1 3-5 12-29 6-16v-2z" fill="#9D9D9D"/>
<path transform="translate(897,65)" d="m0 0h18l16 4 10 5 13 11 8 8 10 15 6 13 4 15 2 12v9l-4 19-8 16-9 10-8 6-10 4-5 1h-22l-13-3-11-6-10-8-7-7-11-15-8-17-4-16-1-18 3-20 5-12 8-11 9-8 10-5z" fill="#8D8D8D"/>
<path transform="translate(80,478)" d="m0 0 28 1 58 3 30 2 61 3 11 1 5 5 13 29 3 6-2 5-13 10-17 12-17 13-16 11-54 39-15 10-4 1-6-10-12-26 2-4 11-8 9-6-3-9-9-21-11-23-2-3-30-2-4-4-12-23-4-10zm87 42 2 5 13 29 4 1 15-10 17-12 11-10-3-2-26-1z" fill="#9D9D9D"/>
<path transform="translate(1809,310)" d="m0 0 4 1 18 18 5 4 7 8 18 18 7 8 10 10 7 8 16 16 7 8 14 14 7 8 9 9 4 6-3 10-12 35-3 3-11-1-121-18-35-5-1-3 11-30 4-9 114 19h6l-7-8-13-13-7-8-68-68 2-9 10-30z" fill="#9D9D9D"/>
<path transform="translate(1822,130)" d="m0 0 9 1 22 6 1 1v23l-2 37 32 8 1-32 1-21 3-1 25 6 5 3v21l-2 32 33 8 2 1v-18l2-42 2-1 26 5 5 2 1 1v13l-5 88-4 1-104-25-58-14-2-2v-17l6-80z" fill="#9D9D9D"/>
<path transform="translate(1025,959)" d="m0 0h55l8 1v7l-5 23-3 4h-60l-1 12-3 21 54 1-1 8-4 19-2 4h-53l-3 22-2 13 1 1 58 1 1 3-4 26-1 2-3 1-48 1h-51l-1-4 8-53 16-98 3-13 1-1z" fill="#9D9D9D"/>
<path transform="translate(1134,468)" d="m0 0 14 1 12 5 10 9 6 10 4 12v26l-6 32-4 17-1 3-15 5-25 7-29 10-29 13-17 8-23 13-5 3h-4l1-5 7-12 8-10 11-16 19-29 12-20 13-24 12-25 10-25 2-2h12l4-1 1-2h-2v-2z" fill="#404040"/>
<path transform="translate(1547,762)" d="m0 0h4l1 99v29l1 9 11 25 9 20 1 4-5 5-14 9-11 9-4-1-9-17-13-28-5-6-17-13-19-14-16-12-14-10-18-13-7-5 2-4 22-15 11-8 6 2 14 11 26 20 12 9-1-7-2-53v-19l8-7 16-11z" fill="#9D9D9D"/>
<path transform="translate(1380,201)" d="m0 0h15l13 4 6 5 3 6v7l-8 18-10 15-10 13-11 12-30 30-11 9-10 9-16 12-18 14-14 10-36 26-20 14-16 10-6 1 5-5 14-10 13-10 13-11 10-8 13-11 10-9 7-7 7-8 10-11 9-11 11-15 7-14 2-8v-13l-3-7-5-5-8-2h-28l-22 4-25 7-30 10-12 5-6 1-1-4 5-3 40-20 29-14 28-12 38-13 26-7z" fill="#8D8D8D"/>
<path transform="translate(753,543)" d="m0 0 3 1 1 5-4 6-13 12-8 7-25 25-11 14-10 15-8 16-3 9 2 10 5 7 6 4 10 3h23l23-4 25-7 43-16 7-1 2 1-2 4-14 8-19 9-33 15-28 12-34 12-28 9-31 6-14 1-11-2-6-4-5-6-1-8 3-12 6-12 9-13 13-16 9-10 9-9 8-7 13-13 8-7 10-9 14-11 15-12 19-14 13-11z" fill="#424242"/>
<path transform="translate(1171,461)" d="m0 0h41l17 2 15 5 15 9 11 10 9 14 6 15 2 9v17l-3 11-8 16-8 13-2-4-9-3-14-4-12-2-19-7-11-9-9-7-6-9-3-11-1-16-4-18-6-11-8-7-15-8-3-1v-2z" fill="#9D9D9D"/>
<path transform="translate(1050,22)" d="m0 0h20l23 3 16 5 12 6 14 11 13 12 11 13 8 13 7 14 6 16 4 15v31l-2 2-4-7-6-18-1-7-5-5-3-4v-2l-9-3-9-4v-2l-6-2h-8l-6 8-8 16-7 10-6 5-4 1-1-5 1-6v-20l-3-12-8-15-8-9-14-10-19-8-17-4-15-4-6-4-3-4 1-7 6-8 6-4 24-6z" fill="#414141"/>
<path transform="translate(1626,675)" d="m0 0 4 2 9 11 8 10 11 13 13 17 13 16 10 13 18 22 4-1 12-13 9-11 9-10 5 1 8 9 9 11-2 5-14 17-9 10-7 8-9 10-11 12-8 11-4-2-9-10-11-14-32-40-10-13-14-17-11-14-13-16-4-6 1-4 15-16 7-8z" fill="#9D9D9D"/>
<path transform="translate(762,378)" d="m0 0 9 2 6 5v2h2l4 10 5 16 8 20 9 16 9 11 10 8 5 2 8 2 7 6 13 6 10 5 5 6-1 7-7 8-14 7-13 4h-16l-14-3-15-6-12-9-10-9-8-11-7-12-6-18-4-24v-9l5-30 2-5 3-5z" fill="#414141"/>
<path transform="translate(1723,537)" d="m0 0 5 2 7 7 11 9 11 10 11 9 15 13 10 9 8 7 20 18 11 9 12 10 8 7-2 5-11 19-6 11-5-1-17-14-10-9-8-7-11-10-11-9-12-11-11-9-12-11-11-9-11-10-11-9 1-6 9-14 9-15z" fill="#9D9D9D"/>
<path transform="translate(780,766)" d="m0 0 1 2 4 1 7-2h7l6 3 6 7 4 9v7l-4 10-4 7 3 1-16 10-16 9-11 5-5 1-9-4-8-8-4-8v-7l4-8 11-12 9-9 8-7z" fill="#9D9D9D"/>
<path transform="translate(1337,273)" d="m0 0 19 1 7 3 15-1 1 4-31 31-11 9-10 9-16 12-18 14-14 10-36 26-20 14-16 10-6 1 5-5 14-10 13-10 13-11 10-8 13-11 10-9 7-7 7-8 10-11 9-11 11-15 7-14 3-10 1-2z" fill="#444"/>
<path transform="translate(1294,225)" d="m0 0h5l3 4v2l5 2 9 11-1 5-24 1-25 5-25 7-30 10-12 5-6 1-1-4 5-3 40-20 29-14z" fill="#454545"/>
<path transform="translate(792,320)" d="m0 0h3l1 7-6 23-4 18-1 7v14l5 23 7 19 7 11 9 12 11 7 4-1 3 1 5 9-1 2-9-2-6-4-10-9-9-13-8-15-6-16-6-20-2-6h-2l-5-5-9-3-8 1-2 5-1-2 6-16 10-18 14-19z" fill="#8D8D8D"/>
<path transform="translate(1e3 419)" d="m0 0 5 4 10 15 9 19 8 31 4 26v12l-3 22-4 21-6 21-12 29-8 15-8 14 1 4h2l2-4 5-6 15-15 8-11 9-11 9-12 18-27 15-26 8-15 8-16 9-20 8-20 3-2v6l-4 5-10 25-12 25-14 26-15 24-14 21-12 17-11 15-5 11 2 1-14 10-15 13-7 7-8 7-7 6 3-12 8-10 12-19 10-17 15-31 6-19 6-22 3-19 1-11v-11l-3-24-6-25-4-12-8-16-7-11-5-6z" fill="#8D8D8D"/>
<path transform="translate(1158,690)" d="m0 0h7l6 3 10-1 7-2-1 5-10 13-9 11-10 10-7 4-9-3-6-5-3-5v-10l2-7 4-6 4-2 9-2z" fill="#434343"/>
<path transform="translate(817,649)" d="m0 0 4 1-2 4-14 8-19 9-24 11h-3v-2l-3-1-3-6-2-2 21-6 40-15z" fill="#8E8E8E"/>
<path transform="translate(753,543)" d="m0 0 3 1 1 5-4 6-13 12-8 7-12 12-7 6v-9l-3 1h-8l5-5 30-23 13-11z" fill="#8E8E8E"/>
<path transform="translate(904,375)" d="m0 0h21l14 2 18 6 16 8 13 9 5 6-4-2-11-8-17-9-15-5-10-2-17-1-22 2-21 7-11 7-2 5-8 3h-4l1-4 9-7 16-9 10-4 14-3z" fill="#8D8D8D"/>
<path transform="translate(918,66)" d="m0 0 10 2 9 4 9 6 12 11 3 4-5-1-4 2-9-1-6-3-14-14v-8l-5-1z" fill="#9D9D9D"/>
<path transform="translate(437,730)" d="m0 0 5 2 11 12 12 13-2 4-4 2-3-3-3-8-7-8-5-8-4-4z" fill="#8F8F8F"/>
<path transform="translate(1230,1083)" d="m0 0 2 2 2 10v6l-4 3-3-1 2-19z" fill="#8E8E8E"/>
<path transform="translate(195,202)" d="m0 0h2l2 11-1 5-1 1h-6l3-16z" fill="#8E8E8E"/>
<path transform="translate(779,1022)" d="m0 0 1 4v4l5 2-1 4h-7l-3-2 1-8z" fill="#909090"/>
</svg>
