<?xml version="1.0" encoding="UTF-8"?>
<svg version="1.1" viewBox="0 0 1808 1756" width="1280" height="1280" xmlns="http://www.w3.org/2000/svg">
<path transform="translate(906,116)" d="m0 0h50l39 3 44 5 41 7 35 8 35 10 33 11 33 13 29 13 16 8 25 13 23 13 19 12 21 14 19 14 12 9 14 11 13 11 15 13 12 11 5 4v2l4 2 20 20 7 8 14 15 9 11 11 13 13 17 12 16 13 19 13 20 12 20 15 27 14 27 15 34 13 35 11 33 10 36 8 37 6 36 4 29 3 44 1 24v51l-9 1h-1451l-11-1-1-24v-20l1-41 3-39 5-35 5-29 8-34 9-33 12-36 11-30 16-36 13-26 12-22 14-24 13-20 11-16 13-18 14-18 8-10 7-9h2l2-4 11-12 7-8 14-15 17-17 8-7 13-12 11-9 10-9 34-26 20-14 15-10 24-15 24-13 19-10 16-8 36-16 26-10 36-12 40-11 31-7 43-7 49-5z"/>
<path transform="translate(883,509)" d="m0 0h186l330 1 13 19 12 17 2 3v3h-159l-281-1 3 6 3 4 1 3 7 1 437 1 6 7 10 15 12 17 1 2-5 1h-436l4 6 5 7 442 1 6 7 11 16 12 17v2l-24 1h-417l7 10 2 3 443 1 7 9 9 13 13 19v1h-441l2 3v3h2l4 7 443 1 5 6 13 19 10 14 2 4-6 1h-386l-49-1 7 12v2h443l7 8 10 15 10 14 2 3v3l-10 1h-416l-13-1 2 5 1 4h2l2 4h426l17 1 4 5v2h2v3h2l7 11v2h2l7 10v3h2l5 10-7 1-507-1-7-8-13-19-10-14-11-16-13-19-14-20-16-23-12-17-13-19-32-46-8-12-12-17-14-20-11-16-12-17-16-23-21-30-11-16-14-20-8-11z" fill="#BBBBBA"/>
<path transform="translate(404,598)" d="m0 0 384 1-2 5-13 19-10 14h-276l8 12v2h257l-1 4-8 11-11 16-7 10-3 1h-196v3h2l6 10 144 1 34 1-1 4-10 15h-2l-1 4-6 8-2 4h-2l-1 4-2 3h-119l1 5h2l5 8 100 1-3 6h-2l-1 4-7 10-7 11-5 6-2 4h-44l1 6h2l5 7 23 1v4l-8 12-10 14-10 15h-2l-1 4-5 7h-3l-17-25-12-17-14-20-44-64-10-14-11-16-7-9-4-7-10-14-16-23-12-17-14-20-8-12-12-17z" fill="#BBBBBA"/>
<path transform="translate(1076,1448)" d="m0 0h23l22 3 14 5 9 6 7 7 7 14 3 21v4l-7 1h-34l-1-1-1-11-4-8-8-4-10-2h-14l-15 2-9 4-3 7v10l3 7 4 3 12 2 46 1 16 3 10 4 6 4 7 8 4 8 3 14v18l-3 14-7 12-8 7-10 5-19 5-18 2h-28l-15-2-14-4-12-6-6-5-7-10-5-13-1-6v-13l1-1h32l7 1 4 13 7 8 8 3h34l11-4 3-1 2-5 1-2v-12l-3-5-5-3-12-2-49-2-16-3-12-7-7-9-5-12-2-18 2-17 4-12 6-8 8-7 11-5 15-4z" fill="#7B7976"/>
<path transform="translate(636,1448)" d="m0 0h21l21 3 15 5 12 7 10 9 7 9 7 15 3 13 2 11v30l-4 21-5 13-8 13-9 9-11 7-16 6-14 3-11 1h-23l-14-2-14-4-16-8-12-11-7-11-4-8-4-13-2-12-1-12v-10l2-21 4-16 8-16 7-9 8-7 14-8 17-5zm5 34-14 3-10 5-8 9-6 12-3 16v17l3 16 7 14 7 7 15 7 4 1h21l12-4 10-6 6-7 5-12 2-10 1-10v-9l-2-17-4-11-6-8-8-7-14-5-6-1z" fill="#7B7976"/>
<path transform="translate(871,521)" d="m0 0h2l5 8 7 10 8 12 2 4-2 3h-2l-2 5-13 18-13 19-12 17-11 16-12 17-9 13-16 23-21 30-11 16-2 4h-2l-2 5-7 10-8 12-12 17-10 14-32 46-10 14-3 6h-2l-2 5-12 17-9 13h-46l6-11 9-12 10-14 3-5h2v-3h2l2-5 9-13 10-14 5-8h2l2-5 9-13 10-15 7-10 10-15h2l2-5 12-17 7-10 10-14 7-10 10-15 9-12 1-3h2l2-5 9-13 14-20 11-16 7-10 9-13 7-10 11-16 14-20 10-15z" fill="#848483"/>
<path transform="translate(339,1451)" d="m0 0h39l2 1v67h80v-67l11-1 29 1v167l-1 1h-38l-1-3-1-64h-79v66l-1 1h-39l-1-1z" fill="#7B7976"/>
<path transform="translate(1227,1451)" d="m0 0h113l21 1 1 1v18l-1 13-2 1h-94v34h52l20 1 1 1v14l-1 16-1 1h-71v34l96 1 1 1v28l-1 3-2 1h-134l-1-1v-167z" fill="#7B7976"/>
<path transform="translate(793,1451)" d="m0 0h15l24 1 1 1 1 99 2 14 5 10 7 6 10 5 4 1h22l11-4 9-6 5-8 2-6 1-7 1-105 11-1 30 1v106l-4 20-4 9-6 10-9 10-11 7-17 6-10 2-10 1h-24l-17-3-13-5-10-6-10-9-7-10-6-14-3-14-1-13v-97z" fill="#7B7976"/>
<path transform="translate(365,938)" d="m0 0 5 1 4 8 12 29 16 38 10 24h2l11-26 18-43 11-28 2-2h29l1 1v142h-27l-1-2v-75l-3 3-16 39-12 29-2 5-2 1h-21l-7-14-15-37-10-24-3-2 1 6v71h-27l-1-1v-142z" fill="#696B6C"/>
<path transform="translate(1205,965)" d="m0 0h15l12 3 14 8 1-9 1-1h27l1 6v103l-1 16-4 13-7 11-9 9-8 5-16 4h-21l-15-3-11-6-8-7-7-10-4-9-2-9 1-5 26 1 4 10 6 7 8 4 5 1h12l11-4 5-4 4-8 1-5 1-14-15 8-7 2-8 1h-11l-12-2-14-7-9-8-7-11-5-15-1-6v-20l4-16 7-13 10-10 16-8zm6 26-10 3-8 7-4 7-2 8v17l3 9 6 9 5 4 9 3h12l11-4 8-7 5-10 1-5v-13l-2-10-5-8-8-7-9-3z" fill="#696B6C"/>
<path transform="translate(391,614)" d="m0 0h2l7 11 14 20v4l-11 15-16 23-14 20-11 16-32 46-14 20-16 23-11 16-12 17-11 16-14 20-10 14-35 1-11-1 6-9 7-10 3-5h2v-3h2l2-5 1-2h2l2-5 11-16 7-10 8-11 5-8h2l1-4 8-11 7-10 11-16 21-30 18-26 13-19 12-17 18-26 10-14 10-15 4-5z" fill="#848483"/>
<path transform="translate(612,965)" d="m0 0h18l9 2 11 6 5 3 2-10h28v116h-27l-2-7v-3l-11 6-7 3-14 2-16-1-12-4-11-7-7-8-8-16-3-13v-20l4-15 6-12 9-10 10-7 11-4zm8 26-10 3-8 7-5 10-1 4v20l4 9 7 8 3 3 5 2 6 1h9l10-3 9-7 5-8 2-6v-18l-3-9-4-6-8-7-10-3z" fill="#696B6C"/>
<path transform="translate(1e3 965)" d="m0 0h18l9 2 16 9 2-10h27l1 1v114l-1 1h-26l-2-7v-3l-10 6-13 4-8 1h-9l-12-2-12-5-10-8-7-10-5-12-3-13v-17l3-15 7-14 10-11 10-6 11-4zm8 26-9 3-6 4-6 8-3 11v16l4 11 5 7 5 4 10 3h12l10-4 8-7 5-9 1-4v-19l-3-9-6-8-8-5-7-2z" fill="#696B6C"/>
<path transform="translate(1407,965)" d="m0 0h14l14 3 9 4 6 4 9 8 8 14 3 10 1 15-2 9-1 2 3 3-4 14-5 10-10 11-11 7-9 3-6 1h-24l-13-4-10-6-10-10-7-12-4-12-1-7v-15l3-15 8-16 6-7 10-7 9-4zm1 25-9 3-8 7-4 8-1 4 3 2h51l3-1-3-9-6-8-7-4-5-2zm-22 44 2 9 4 6 8 7 8 3h11l10-3 9-8 5-12v-2z" fill="#696B6B"/>
<path transform="translate(756,1218)" d="m0 0h19l16 4 13 7 7 7 7 11 5 14 1 5v22l-3 11-6 12-9 11-10 7-12 5-12 2h-14l-12-2-14-7-10-9-7-9-6-14-2-8v-19l3-12 5-12 7-9 7-7 14-7zm0 26-9 5-7 8-3 8-1 6v11l3 12 6 9 8 5 7 2h12l10-4 8-7 4-8 1-5v-19l-4-11-5-6-12-6z" fill="#696B6C"/>
<path transform="translate(520,1219)" d="m0 0h31l5 11 17 42 7 16 2 1 12-32 10-26 5-12h30l1 2-38 95-16 39-10 24-3 5h-30l3-9 12-29 6-15-1-8-8-20-23-53-12-29z" fill="#696B6C"/>
<path transform="translate(903,567)" d="m0 0 3 1 3 5v2h2v3h2l2 3v5l-8 11-15 22-14 20-11 16-24 34-11 16-16 23-13 19-14 20-9 13-14 20-8 12-14 20-22 32-13 18-9 13h-24l2-5 13-18 3-5h2l2-5 8-12 7-10 12-18h2l1-4h2l2-5 15-22 10-14 9-14h2l1-4 12-17 16-23 13-19 2-3h2l1-4 11-16 4-6h2l2-5 7-10 5-8h2l2-5 3-5h2l2-5 1-2h2l2-5 12-18h2l2-5 7-10 10-15z" fill="#828180"/>
<path transform="translate(820,965)" d="m0 0h24l11 4 9 6 8 9 5 12 2 10v75l-1 1h-27l-1-69-2-9-5-8-10-5-9-1-9 2-5 4h-2l-6 12-1 10-1 63-1 1h-27l-1-2v-113l1-1h27l2 8z" fill="#696B6C"/>
<path transform="translate(903,1219)" d="m0 0h27l1 4 1 69 3 9 4 5 8 4 4 1h8l9-3 7-5 4-7 2-13v-63l1-1h27l1 1v114l-1 1h-26l-1-1v-7l-10 4-11 4-9 1h-9l-12-2-8-4-10-9-6-10-3-7-2-16v-68z" fill="#696B6C"/>
<path transform="translate(365,938)" d="m0 0 5 1 4 8 12 29 16 38 10 24h2l11-26 18-43 11-28 2-2h29l1 1v142h-27l-1-2v-75l-3 3-16 39-12 29-2 5-2 1h-21l-7-14-15-37-10-24-3-2 1 6v71h-27l-1-1v-142zm-18 5-2 2-1 5-1 24 1 6h-2l2 10v85l1 1 18 1 1-12v-12l1-22-1-48h2l2 6 5 11 8 20 4 11 2 4v5l4 5 13 28 3 3 3 1h9l6-9 11-25 9-24 8-19 6-15 3-2 1 92 1 1h17l1-116-1-17h-16l-6 2-6 12-13 34-9 20-12 29-5 13-10-21-8-20-13-28-13-32-4-8-1-1z" fill="#5B4525"/>
<path transform="translate(421,658)" d="m0 0h2l7 10-1 6-12 17-9 13-12 17-16 23-12 17-15 22-11 16-10 14-26 38-7 10-8 12-12 17-3 5h307v1h-320l-6-1 4-7 12-17 22-32 12-17 9-13 13-19h2v-3h2l2-5 11-16 16-23 7-10 8-12 12-17 8-11 7-11h2l2-5 8-12z" fill="#81817F"/>
<path transform="translate(1157,1217)" d="m0 0h7l1 4-1 26-18 1-8 2-6 4-4 5-2 12-1 63-1 1h-27v-116h27l1 1v6l10-4 11-4z" fill="#696B6C"/>
<path transform="translate(853,797)" d="m0 0h53l3 1 1 4v63l-1 2h-56l-1-3v-64z" fill="#BDBDBC"/>
<path transform="translate(924,797)" d="m0 0h54l2 4v65l-1 1h-56v-69z" fill="#B7B7B5"/>
<path transform="translate(1205,965)" d="m0 0h15l12 3 14 8 1-9 1-1h27l1 6v103l-1 16-4 13-7 11-9 9-8 5-16 4h-21l-15-3-11-6-8-7-7-10-4-9-2-9 1-5 26 1 4 10 6 7 8 4 5 1h12l11-4 5-4 4-8 1-5 1-14-15 8-7 2-8 1h-11l-12-2-14-7-9-8-7-11-5-15-1-6v-20l4-16 7-13 10-10 16-8zm9 5-19 2-10 5-10 9-7 10-4 12-1 11v15l2 12 6 12 10 11 14 7 7 1h14l11-2 13-5 7-6 5-7-1 30-4 10-4 6-7 4-6 3-8 1h-10l-9-2-7-4-3-1-2-5-4-9-8-1h-6l-3 3 3 12 6 9 7 7 14 7 12 2h17l12-3 8-4 10-9 7-9 3-9 2-26v-93l-1-5h-16l-2 1v17l1 2-10-10-11-8-5-2z" fill="#5C4728"/>
<path transform="translate(903,1219)" d="m0 0h27l1 4 1 69 3 9 4 5 8 4 4 1h8l9-3 7-5 4-7 2-13v-63l1-1h27l1 1v114l-1 1h-26l-1-1v-7l-10 4-11 4-9 1h-9l-12-2-8-4-10-9-6-10-3-7-2-16v-68zm10 1-2 2-3 1v71l2 12 5 10 7 7 8 5 11 3h15l12-3 9-6 7-8 2-1v15l4 2h12l3-3-1-100-2-5-5-1h-4v2h-5l-1 8-2 52-2 14-5 9-3 3v2l-5 2-10 3h-13l-9-4-4-3h-2l-2-4-4-9v-31l1-1 1-11 1-4-1-8v-7l-4-10-1-3-5-1z" fill="#5D4829"/>
<path transform="translate(923,716)" d="m0 0 11 1 9 4 9 5 10 9 6 7 5 8v3h2l4 13 1 6v11l-2 1h-54l-1-1z" fill="#B8B8B6"/>
<path transform="translate(820,965)" d="m0 0h24l11 4 9 6 8 9 5 12 2 10v75l-1 1h-27l-1-69-2-9-5-8-10-5-9-1-9 2-5 4h-2l-6 12-1 10-1 63-1 1h-27l-1-2v-113l1-1h27l2 8zm12 4-11 2-12 5-12 8-2-11-1-1h-16l-1 1-1 20v83l1 1h18l1-9v-31l1-33 4-7 6-5 9-5 6-2h8l8 2 8 5 6 7 3 8 1 69 3 1h15l1-1v-33l-1-30-2-14-3-8-7-9-8-7-9-4-9-2z" fill="#5B4626"/>
<path transform="translate(520,1219)" d="m0 0h31l5 11 17 42 7 16 2 1 12-32 10-26 5-12h30l1 2-38 95-16 39-10 24-3 5h-30l3-9 12-29 6-15-1-8-8-20-23-53-12-29zm15 4-7 1 2 9 5 13 6 13 7 17 14 30 4 9 2 10v7l-6 17-5 11-7 17v3l19 1 8-15 6-17 5-12 7-18 5-11 10-25 6-16 13-34 2-5v-5h-18l-4 9-13 33-9 25-6 12-7-14-8-21-15-32-5-11-2-1z" fill="#5C4626"/>
<path transform="translate(901,717)" d="m0 0h7v64l-1 1-28 1h-27v-8l3-15 5-12 6-8 9-10 8-6h3v-2l8-4z" fill="#BBBBBA"/>
<path transform="translate(1407,965)" d="m0 0h14l14 3 9 4 6 4 9 8 8 14 3 10 1 15-2 9-8-1-17 2-1 1h-57l4 11 7 8 7 4 4 1h11l10-3 8-7 5-12h21v2l-7 1h-12l-1 9-7 9-8 5-5 1h-19l-12-6-5-4-5-11-1-4v-10h84v-12l-3-13-5-10-10-12-10-6-7-3-5-1h-17l-11 2-10 4-9 7-8 10-5 11-2 14v12l2 12 4 10 8 11 9 7 10 4 12 2h15l16-4 9-6 7-6 6-10 2-4 2-9 2-3h3l1 3-5 16-7 11-7 7-11 7-9 3-6 1h-24l-13-4-10-6-10-10-7-12-4-12-1-7v-15l3-15 8-16 6-7 10-7 9-4z" fill="#5C4727"/>
<path transform="translate(452,814)" d="m0 0h42l1 1v53h-44v-53z" fill="#B9B8B7"/>
<path transform="translate(396,815)" d="m0 0h44v53h-44z" fill="#B9B9B8"/>
<path transform="translate(1e3 965)" d="m0 0h18l9 2 16 9 2-10h27l1 1v114l-1 1h-26l-2-7v-3l-10 6-13 4-8 1h-9l-12-2-12-5-10-8-7-10-5-12-3-13v-17l3-15 7-14 10-11 10-6 11-4zm4 5-11 2-10 5-8 7-8 11-4 8-2 7v25l3 13 5 10 6 8 8 6 9 4 9 1h12l13-2 12-6 7-7 4-5v19l19 1 1-60v-42l-1-3-2-1h-16l-2 5 1 16-9-12-10-7-6-2-8-1z" fill="#5B4625"/>
<path transform="translate(612,965)" d="m0 0h18l9 2 11 6 5 3 2-10h28v116h-27l-1-1v-6h23l1-10-1-64v-19l-1-10h-16l-2 6 2 14-2 1-4-6-4-5-8-6-10-4-13-1-13 1-13 5-4 3h-2v2l-5 5-5 7-5 13-1 3-1 17 2 17 5 11 6 9 9 7 9 4 5 1h22l12-3 6-4 3-1 2-4 5-6 2 1v13l-3 1v-2l-20 10-14 2-16-1-12-4-11-7-7-8-8-16-3-13v-20l4-15 6-12 9-10 10-7 11-4z" fill="#5B4626"/>
<path transform="translate(436,749)" d="m0 0 4 1v53l-1 1h-43v-16l4-10 7-11 8-8 15-8z" fill="#B7B7B6"/>
<path transform="translate(452,749)" d="m0 0 9 3 12 5 10 9 7 10 5 14v14h-44v-52z" fill="#B8B8B7"/>
<path transform="translate(756,1218)" d="m0 0h19l16 4 13 7 7 7 7 11 5 14 1 5v22l-3 11-6 12-9 11-10 7-12 5-12 2h-14l-12-2-14-7-10-9-7-9-6-14-2-8v-19l3-12 5-12 7-9 7-7 14-7zm0 5-14 4-10 6-5 5-8 9-3 5-3 9-1 6v20l3 13 3 5 7 9 10 9 12 6 8 2h20l12-3 8-4 11-10v-2h2l6-10 4-13v-22l-3-11-4-9-7-9-7-7-14-7-4-1z" fill="#5C4626"/>
<path transform="translate(330,800)" d="m0 0 3 3-2 1v3h-2v4l-4 2-4 10-2 2h-3l-1 6h2l-1 6-11 15-14 21-12 17-3 5h307v1h-320l-6-1 4-7 12-17 22-32 7-10 5-1 3-5h2v-2l4-2v-5l3 1-1-3 4-5z" fill="#777573"/>
<path transform="translate(1157,1217)" d="m0 0h7l1 4-1 26-18 1-8 2-6 4-4 5-2 12-1 63-1 1h-27v-116h27l1 1v6l10-4 11-4zm-4 5-17 4-8 4-3 3h-3l-2-9-1-1h-16l-2 4v100l1 2 7 1h9l2-2 1-67 3-6 5-5 2-1v-2l9-3 11-2 8-2 1-9-1-6-4-3z" fill="#5B4524"/>
<path transform="translate(1226,848)" d="m0 0h391l17 1 2 3-204-1h-236l-5-1v-1z" fill="#726B5F"/>
<path transform="translate(761,1239)" d="m0 0h10l9 2 9 6 7 8 5 12v17l-4 13-7 9-8 6-9 3h-16l-10-4-9-7-6-9-2-9v-19l3-9 6-9 8-6 7-3zm-5 5-9 5-7 8-3 8-1 6v11l3 12 6 9 8 5 7 2h12l10-4 8-7 4-8 1-5v-19l-4-11-5-6-12-6z" fill="#5B4625"/>
<path transform="translate(618,987)" d="m0 0h18l10 4 6 5 7 11 3 10v15l-4 12-7 9-8 6-7 3-5 1h-16l-8-4-10-9-6-11-1-5v-19l4-11 6-8 6-5zm2 4-10 3-8 7-5 10-1 4v20l4 9 7 8 3 3 5 2 6 1h9l10-3 9-7 5-8 2-6v-18l-3-9-4-6-8-7-10-3z" fill="#5B4525"/>
<path transform="translate(1008,987)" d="m0 0h19l9 3 9 7 6 10 2 5v24l-4 10-7 9-8 5-12 3h-14l-10-5-8-6-6-10-2-8v-18l3-10 8-11 9-6zm4 4-9 3-6 4-6 8-3 11v16l4 11 5 7 5 4 10 3h12l10-4 8-7 5-9 1-4v-19l-3-9-6-8-8-5-7-2z" fill="#5B4524"/>
<path transform="translate(1205,987)" d="m0 0h23l10 5 7 7 6 12 1 3v19l-3 10-7 9-6 5-7 4-7 2h-15l-10-4-9-8-5-10-1-5v-24l5-12 7-8zm6 4-10 3-8 7-4 7-2 8v17l3 9 6 9 5 4 9 3h12l11-4 8-7 5-10 1-5v-13l-2-10-5-8-8-7-9-3z" fill="#5B4525"/>
<path transform="translate(1407,985)" d="m0 0h17l12 6 8 9 4 10v8l-1 1-34 1h-25l-7-1-1-1v-8l4-10 6-7 6-4zm1 5-9 3-8 7-4 8-1 4 3 2h51l3-1-3-9-6-8-7-4-5-2z" fill="#5A4423"/>
<path transform="translate(421,658)" d="m0 0h2l7 10-1 6-12 17-8 11-2-2 1-5 3-5h2l2-5h-2l-1 4h-3l-1 5-4 1v4l-4 1-1 5-2-2-3 1-1 4-2 3-5 1-2 1 2-5 8-11 9-13 1-2h2l2-5 8-12z" fill="#81807F"/>
<path transform="translate(705,862)" d="m0 0h2l1 5-3 3h-2l1 2 4-4h2v-3h2l-1 4-3 3-5 10-2 1-2 6-2 2 3 3v1h-24l2-5 3-3v2l6-5 1 2 2-6v-2l3-2 1-4h3l1-3 2-1z" fill="#7A7875"/>
<path transform="translate(853,797)" d="m0 0h53l3 1 1 4v63l-1 2h-49v-1h47l1-67h-54v21l-1 44h-1v-64z" fill="#6C6151"/>
<path transform="translate(415,684)" d="m0 0 1 2-2 3-3 3-2 1-2 10-5 1-3 5-4 6v2l-6 3-1 3-2 1 1 3-3 4h-2l-2 4h-3l-1 4h-2v4l-3 1v2h-2v-2l-3 1v-2h2v-2h2l1-7 3-4h2l1-2 1-1 3-7 3-1v-2h3l-1-2 2-1 1-3 4-4 1-4 2 1 1-2 2 1 1-3 4-1v-4l4-1 1-5h3l1-4z" fill="#7B7976"/>
<path transform="translate(904,715)" d="m0 0h5l1 2v62l-2 5h-53v-1l52-2 1-64-11 1 3-2z" fill="#6B5F4C"/>
<path transform="translate(741,812)" d="m0 0 3 2-12 17-8 12h-2l-1 4-2 4-7 1 1-3 3-2 2-1-1-4 3-2 1-2h3l2-6-2-1 3-2-2-4 4-2 1 2 3-3v-3l3 1 1-6h3zm-17 14m-2 1 2 1-3 2z" fill="#7B7976"/>
<path transform="translate(725,826)" d="m0 0 3 4-3 1 1 3-1 5-4 1-2 2-1 4-2 4h-3l2 5-6 1-2-3-3 2 2-5 14-20z" fill="#7F7E7C"/>
<path transform="translate(1231,1460)" d="m0 0 9 1v2l-2 1-1 12-3 9-2 10-2 3-1-11v-25z" fill="#858584"/>
<path transform="translate(698,1474)" d="m0 0 5 1 8 4 6 11v4h-5l-4-8v15l-5-2 2-8-1-6-4-5-3-3z" fill="#858584"/>
<path transform="translate(686,1582)" d="m0 0 1 4v3l7-2-3 3h-3l-1 4-13 5-8 3h-6l3-3 12-2-3-5h2l2-5z" fill="#848483"/>
<path transform="translate(339,1476)" d="m0 0 2 1v42l1 7-1 6 1 3v10h-2l1 7v10l-1 6h-1z" fill="#858584"/>
<path transform="translate(913,1219)" d="m0 0h17l1 3-1 28-2-1-1-8v-7l-4-10-2-3h-6z" fill="#5A4423"/>
<path transform="translate(326,800)" d="m0 0 1 4-3 3h-2l-2 4-1 4-2 1-2 5h-3v2l-3 2-1 5-2-1-3 1 2-5 11-16 5-5z" fill="#7E7C79"/>
<path transform="translate(616,887)" d="m0 0 1 2h3l1 2 4 1v2l6-1h28l-1 2h-46z" fill="#7A7774"/>
<path transform="translate(387,710)" d="m0 0 2 1-1 6-2 1-2-1v2l-3 2-2 9h-3l-6 3 2-5 11-15z" fill="#7E7D7A"/>
<path transform="translate(364,747)" d="m0 0h2l2 4-3 3 1 2h-3v2l-2 1-1 5-3-1-1 4-2 3h-2l1-5h2v-3l-2-1 4-1-1-3 8-7z" fill="#7B7976"/>
<path transform="translate(459,992)" d="m0 0h1l1 27-2 16h-1v-30l-3 1 1-4 2-6z" fill="#6A6C6D"/>
<path transform="translate(693,872)" d="m0 0 2 3-2 3h-3l1 3-3 6-2-2-3 4h-2l1-5 7-9z" fill="#81807F"/>
<path transform="translate(1235,1581)" d="m0 0h1l2 8 2 6h-2l-2 5-2 2v-16z" fill="#858584"/>
<path transform="translate(1128,1466)" d="m0 0 9 1 3 3v2l3 1-3 3-4-2-1-4-7-2z" fill="#848382"/>
<path transform="translate(466,1496)" d="m0 0h1l-1 9-3 9-3 1v-6l3-7 2-2z" fill="#848483"/>
<path transform="translate(828,697)" d="m0 0h2l-2 5-3 4h-2l-2 6-4 5-1 3-3 1 2-6z" fill="#7B7976"/>
<path transform="translate(349,771)" d="m0 0h2l-1 4-3 6-3 1-1 4-3-1v-4h2l2-4 1-3h3z" fill="#7B7976"/>
<path transform="translate(764,789)" d="m0 0h2l-2 5-3 4-2 4h-2l-4 8-3-1h2l2-5 7-11z" fill="#7B7976"/>
<path transform="translate(616,887)" d="m0 0 1 2h3l2 4-1 2h-9z" fill="#76736D"/>
<path transform="translate(703,1567)" d="m0 0h3l-1 7-7 8-1-2 1-4h3l1-8z" fill="#858584"/>
<path transform="translate(728,841)" d="m0 0 2 2-6 8-2 1-2 5h-2v3h-2l1-4z" fill="#7B7976"/>
<path transform="translate(379,721)" d="m0 0h1v5l-2 4h-2l-6 3 2-5 5-5z" fill="#7D7C79"/>
<path transform="translate(875,630)" d="m0 0 2 1-10 15-3 2 2-6 4-4 3-5z" fill="#777674"/>
<path transform="translate(752,793)" d="m0 0 4 2h-2l-1 3-6 1v-2l-2-1 4-2zm-9 4 2 1-2 1zm2 2 2 1-2 1z" fill="#838382"/>
<path transform="translate(705,862)" d="m0 0h2l1 5-3 3h-4l-1-3z" fill="#7C7A78"/>
<path transform="translate(804,732)" d="m0 0 1 3-8 11-1 3h-2l1-4 8-12z" fill="#7B7976"/>
<path transform="translate(1246,1538)" d="m0 0h2l-1 5-5 3-2-2 4-5z" fill="#848483"/>
<path transform="translate(687,1484)" d="m0 0 7 6v5l-3-2-3-1z" fill="#848483"/>
<path transform="translate(369,996)" d="m0 0h2l1 10h-3l-2-1z" fill="#6B6C6D"/>
<path transform="translate(337,789)" d="m0 0 3 1-1 3-2 1 1 2-4 2-2-2 2-5z" fill="#7B7976"/>
<path transform="translate(672,1597)" d="m0 0h2l-1 3-7 2h-6l3-3z" fill="#858584"/>
<path transform="translate(1124,1567)" d="m0 0 1 3 3 1-1 7-4-2z" fill="#90908F"/>
<path transform="translate(201,887)" d="m0 0 1 2 3 1-3 2 1 3h-7z" fill="#76726D"/>
<path transform="translate(693,872)" d="m0 0 2 3-2 3-5 2-3 2 2-4 5-5z" fill="#7E7E7C"/>
<path transform="translate(900,593)" d="m0 0h6l-1 2-6 5v-4l-3-2z" fill="#7C7B78"/>
<path transform="translate(870,625)" d="m0 0 1 4-2 3h-3v2l-2-1 1-4z" fill="#7B7976"/>
</svg>
