<?xml version="1.0" encoding="UTF-8"?>
<svg version="1.1" viewBox="0 0 2048 941" width="1280" height="1280" xmlns="http://www.w3.org/2000/svg">
<path transform="translate(418,39)" d="m0 0h121l9 4 6 7 3 7 3 39 3 44 9 2 30 10 26 11 6 4 1 5-16 21-12 16-14 18-9 12-5 4-21-8-21-6-21-4-15-2h-42l-24 3-25 6-21 7-20 9-17 9-15 10-12 9-13 11-19 19-11 14-10 14-9 15-8 16-7 16-7 21-5 21-3 19-1 12v30l2 21 5 26 6 20 9 22 11 22 14 21 11 14 12 13 14 14 14 11 24 16 19 10 25 10 20 6 18 4 26 3h36l28-4 25-6 27-10 4 1 14 18 16 21 12 16 11 15-1 5-19 10-24 9-27 9-1 2-5 72-2 11-6 9-8 5h-127l-8-6-4-5-2-5-3-35-3-43-1-5-25-8-26-10-23-11-14-8-5 3-10 9-11 9-12 11-8 7-14 12-6 4-7 2h-7l-9-4-10-9-34-34-7-8-34-34-3-7v-11l5-10 12-13 9-11 10-11 9-11 9-10 2-5-15-29-11-27-7-21-3-12-74-5-13-2-8-6-4-7-1-4v-121l5-10 9-6 9-2 71-5 6-2 12-36 10-24 14-27-2-5-11-12-9-11-11-12-9-11-9-10-5-10v-10l3-8 11-12 71-71 9-5 10-1 9 3 14 12 10 9 11 9 12 11 11 9 4 3 5-1 31-16 23-9 29-9 2-1 1-5 5-70 2-11 4-6 7-6z" fill="#2384FB"/>
<path transform="translate(1295,345)" d="m0 0h27l16 23 13 19 16 23 11-15 10-15 22-32 3-3h25l1 1v129h-31l-1-73-12 17-13 19-4 5h-23l-10-15-13-19-5-7-1 72-1 1h-30z" fill="#F9FCFE"/>
<path transform="translate(399,345)" d="m0 0h26l7 9 22 32 16 23h2l16-24 12-17 13-19 3-4h26l1 1v128l-1 1h-30l-1-74-17 25-12 17h-23l-11-16-13-19-5-7-1 74h-30z" fill="#FBFCFE"/>
<path transform="translate(1035,342)" d="m0 0h25l15 4 14 7 11 9 8 11 6 13v2h-34l-6-8-9-6-11-3h-12l-10 3-9 6-6 7-4 9-2 10v9l3 12 5 9 7 7 11 5 4 1h15l10-3 9-6 6-9 2-5-41-1v-24h75v16l-3 15-5 12-6 10-6 7-12 9-12 5-11 3h-28l-16-5-11-6-10-9-7-8-7-14-4-18v-16l3-15 8-16 6-8 8-8 14-8 12-4z" fill="#FBFDFE"/>
<path transform="translate(709,345)" d="m0 0h26l10 13 26 36 14 19 5 7 1-75h30l1 1v128l-1 1h-26l-8-10-39-54-8-11-1 75h-31v-129z" fill="#F8FBFE"/>
<path transform="translate(610,345)" d="m0 0h31l12 29 27 68 12 30v3h-33l-8-20v-2h-51l-3 10-5 12h-33l1-5 43-108z" fill="#FBFDFE"/>
<path transform="translate(889,345)" d="m0 0h30l5 10 12 31 35 87v2h-33l-4-8-5-13h-50l-8 20-1 1h-33l3-9 48-120z" fill="#FCFDFE"/>
<path transform="translate(1139,345)" d="m0 0h87v25l-1 1h-55v25h50l1 1v25h-51v27h58v26h-89z" fill="#FAFCFE"/>
<path transform="translate(1914,345)" d="m0 0h87v26h-56v26l2-1h48l1 1v25h-51v27h58v26h-89z" fill="#FBFCFE"/>
<path transform="translate(1809,345)" d="m0 0h83v27l-22 1h-30v31h47v26l-46 1-1 44h-31z" fill="#FBFCFE"/>
<path transform="translate(1455,345)" d="m0 0h35l12 22 16 29 10-18 15-28 3-5h35l-2 6-14 24-16 29-14 24-1 32v14l-1 1h-30l-1-4v-41l-10-18-14-24-15-27-8-14z" fill="#FAFCFE"/>
<path transform="translate(1641,345)" d="m0 0h31v102h57v29h-87l-1-1z" fill="#FBFDFE"/>
<path transform="translate(1748,345)" d="m0 0h31v130h-31z" fill="#FEFEFE"/>
<path transform="translate(1963,565)" d="m0 0h19l9 3 4 5 2 9-3 7-5 5h-3l10 16 1 2h-8l-9-13-1-2-11-1v16h-6v-46z" fill="#2384FB"/>
<path transform="translate(832,565)" d="m0 0h20l9 3 4 5 1 2v11l-4 6-3 2h-3l10 16 1 2h-8l-10-14v-2h-11v16h-6z" fill="#2384FB"/>
<path transform="translate(602,565)" d="m0 0h20l9 3 4 5 1 2v11l-4 6-3 2h-3l10 16 1 2h-8l-9-13-1-2-11-1v16h-6z" fill="#2384FB"/>
<path transform="translate(471,570)" d="m0 0h10l6 3 5 5 2 6v10l-4 8-5 4-6 2-9-1-7-4-4-6-1-4v-8l3-8 7-6z"/>
<path transform="translate(707,565)" d="m0 0h18l9 3 5 6 1 2v10l-3 5-6 5-4 1h-14v15h-6l-1-1v-45z" fill="#2384FB"/>
<path transform="translate(980,570)" d="m0 0h9l8 4 4 5 1 3v14l-4 6-5 4-6 2-9-1-6-4-4-5-1-3v-13l5-8z"/>
<path transform="translate(1535,565)" d="m0 0h5l8 11 8 12 3 3 16-24 2-2 5 1v46h-6l-1-32-11 16-3 4h-5l-11-15-3-5-1 32h-7v-46z" fill="#2384FB"/>
<path transform="translate(1839,564)" d="m0 0h12l9 4 6 7 1 5h-6l-5-6-7-3h-9l-8 5-3 6v14l4 6 6 4 9 1 7-3 4-4 3-7h-18l-1-1v-5h26l-1 11-5 8-7 6-7 2h-9l-9-4-5-5-3-4-2-6v-12l4-10 8-7z" fill="#2384FB"/>
<path transform="translate(1127,565)" d="m0 0h5l5 10 14 34v3h-6l-4-8v-2l-23 1-4 9h-7l10-25 9-21z" fill="#2384FB"/>
<path transform="translate(1771,565)" d="m0 0 5 1 4 8 15 37v1h-7l-4-9-23-1-1 5-2 5h-7l3-9 15-37z" fill="#2384FB"/>
<path transform="translate(1631,565)" d="m0 0h5l5 10 14 35v2h-6l-4-8v-2l-23 1-4 9h-6l1-5 16-40z" fill="#2384FB"/>
<path transform="translate(978,564)" d="m0 0h13l10 5 5 6 3 8v12l-3 8-8 8-9 3h-9l-9-3-7-7-4-10v-10l3-9 5-6zm2 6-8 4-5 8v13l4 7 5 4 6 2 9-1 6-4 4-5 1-2v-14l-4-7-6-4-3-1z" fill="#2384FB"/>
<path transform="translate(470,564)" d="m0 0h13l10 5 6 9 2 8-1 11-4 8-7 6-8 3h-10l-8-3-7-6-4-9-1-10 3-10 7-8zm1 6-7 4-4 5-2 6v8l3 7 5 5 7 3 10-1 6-4 4-6 1-3v-10l-3-7-7-6-3-1z" fill="#2384FB"/>
<path transform="translate(1685,565)" d="m0 0h5l8 10 12 17 5 7 1-34h5l1 1v46h-6l-10-13-13-19-1-1-1 33h-6z" fill="#2384FB"/>
<path transform="translate(1041,565)" d="m0 0 7 1 14 20 9 13 1-33 5-1 1 1v46h-6l-11-15-12-17-1-1-1 33h-6z" fill="#2384FB"/>
<path transform="translate(907,564)" d="m0 0h13l6 3 4 5 1 7h-6l-3-6-4-2h-10l-4 3 1 7 10 4 12 5 4 5 1 9-4 6-8 4h-11l-8-4-4-5-1-7h6l3 6 5 3h9l4-2 1-7-3-3-17-6-6-5-2-5 1-7 5-6z" fill="#2384FB"/>
<path transform="translate(625,384)" d="m0 0 2 3 16 41v1h-34l1-5z"/>
<path transform="translate(903,385)" d="m0 0h2l16 42v2h-34l3-9z"/>
<path transform="translate(532,565)" d="m0 0 6 1 1 34 3 5 5 2h6l5-3 2-4 1-34 5-1 2 1v31l-3 9-4 5-7 3h-9l-8-4-4-5-2-7v-32z" fill="#2384FB"/>
<path transform="translate(1901,565)" d="m0 0h27l1 1v5h-22v14h20v6h-20v15h22l1 1v5h-30v-46z" fill="#2384FB"/>
<path transform="translate(1435,565)" d="m0 0h28l1 5-1 1h-22v14h21v6h-21v15h23v6h-29z" fill="#2384FB"/>
<path transform="translate(771,565)" d="m0 0h28v6h-22v14h20l1 1v5h-21v15h22l1 1v5h-29z" fill="#2384FB"/>
<path transform="translate(1377,565)" d="m0 0h26l1 5-1 1h-20v16h19v5l-1 1h-18v19h-7v-46z" fill="#2384FB"/>
<path transform="translate(385,565)" d="m0 0h6l4 5 10 17 8-13 6-9h6l-1 4-14 24-1 2-1 17h-6l-1-17-13-23-3-5z" fill="#2384FB"/>
<path transform="translate(1181,565)" d="m0 0h5l1 1v40h22v6h-29v-46z" fill="#2384FB"/>
<path transform="translate(1277,565)" d="m0 0h5l1 1v40h22l1 1v5h-29z" fill="#2384FB"/>
<path transform="translate(713,571)" d="m0 0h13l6 3 2 5-1 7-3 4-3 1h-14z"/>
<path transform="translate(1968,571)" d="m0 0h15l5 3 2 4-1 8-4 3-5 1h-11l-1-1z"/>
<path transform="translate(608,571)" d="m0 0h15l5 3 2 4-1 7-4 4-5 1h-11l-1-1z"/>
<path transform="translate(839,571)" d="m0 0h14l5 3 2 4-1 7-4 4-5 1h-11l-1-1v-17z"/>
<path transform="translate(1336,565)" d="m0 0h5l1 1v46h-6l-1-6v-40z" fill="#2384FB"/>
<path transform="translate(1129,575)" d="m0 0 3 4 6 15v2h-17l3-10z"/>
<path transform="translate(1772,575)" d="m0 0 3 3 6 15v3h-17l6-16z"/>
<path transform="translate(1633,575)" d="m0 0 2 2 7 17v2h-17l3-10z"/>
</svg>
