<?xml version="1.0" encoding="UTF-8"?>
<svg version="1.1" viewBox="0 0 2048 1208" width="1280" height="1280" xmlns="http://www.w3.org/2000/svg">
<path transform="translate(1054,60)" d="m0 0h23l20 4 19 5 11 6 11 9 12 11 10 11 10 15 8 17 6 18 3 15v29l-5 25-8 23-12 23-8 12-18 22 1 11 5 41v39l-4 36-4 24-8 32-1 10 5 1-1-4 3-3 20-3 13-1h53l17 3 12 5 11 6 13 12 6 9 7 15 3 12v17l-3 12-9 17-8 12-14 20-12 17-10 14-13 18-14 20-14 19-10 13-13 16-10 8-4 1-12-6-5-6-1-10 6-21 6-23 5-19 6-19 8-30 3-11-41 12-27 10-27 12-22 11-20 12-15 10-10 8-14 12-12 11-15 15-8 7-7 7-8 7-16 13-13 10-21 16-18 13-19 13-38 24-15 9-18 10-7 2-8-1-5-3-8-9-2-5v-9l4-7 9-10 10-10 8-7 29-29 7-8 10-11 22-28 13-18 12-18 12-20 9-16 11-23 8-21 7-24 3-16 1-9v-34l-3-17-6-18-11-21-9-11-7-7-10-6-11-4h-7l-8 4-8 7-6 10-3 9-1 5v11l3 10 6 10 11 7 18 7 5 5 1 8-3 6-9 7-17 7-12 2-16-1-14-5-12-6-13-10-9-10-10-16-7-19-3-15v-25l5-26 5-15 10-19 10-14 8-10 15-15 11-9 9-7 14-9 16-9 25-12 24-9 15-5 40-12 29-8 23-8 26-11 22-13 10-8 10-9 8-11 7-16 3-10 1-16-3-16-8-16-6-7-13-10-17-8-20-6-17-4-6-5-1-6 3-8 7-6 13-4z" fill="#9160CC"/>
<path transform="translate(910,407)" d="m0 0h28l19 4 13 5 15 8 13 10 14 14 11 15 10 21 7 26 3 19 1 10v18l-4 27-8 29-9 21-12 25-6 10-10 17-4 12-8 7-17 17-8 7-7 7-8 7-16 13-13 10-21 16-18 13-19 13-38 24-15 9-18 10-7 2-8-1-5-3-8-9-2-5v-9l4-7 9-10 10-10 8-7 29-29 7-8 10-11 22-28 13-18 12-18 12-20 9-16 11-23 8-21 7-24 3-16 1-9v-34l-3-17-6-18-11-21-9-11-7-7-10-6-11-4h-11l2-4 10-8 16-8z" fill="#5F29A1"/>
<path transform="translate(1165,488)" d="m0 0h53l17 3 12 5 11 6 13 12 6 9 7 15 3 12v17l-3 12-9 17-8 12-14 20-12 17-10 14-13 18-14 20-14 19-10 13-13 16-10 8-4 1-12-6-5-6-1-10 6-21 6-23 5-19 6-19 8-30 3-11-41 12-27 10-27 12-22 11-20 12-15 10-5 4-3-1 3-7 4-5 5-4 4-5h2l2-4 9-10 12-16 7-10 12-17 13-21 13-24 9-17 10-24 7-18 2-1v4l6-1 1-5 2-2 20-3z" fill="#9160CC"/>
<path transform="translate(1348,910)" d="m0 0h4l1 2 5 44 6 48 7 65-1 5-10 4-25 8h-2l-2-9-8-76-1-6-2 1-5 25-6 29-7 32-3 13-2 2-25 7h-5l-6-9-18-35-12-22-8-11 2 22 5 45 3 21-12 5-18 5-8 1-2-4-5-31-5-53-9-69v-5l5-3 28-8 11-4 4 1 8 16 10 17 13 23 14 25 7 12 4 4 2-12 6-24 6-27 8-31 5-28 5-3 25-7z" fill="#9160CC"/>
<path transform="translate(31,220)" d="m0 0h95l70 1 4 16 4 24v6l-12 6-37 15-36 15-14 6-6 1v2l9 3 29 11 39 14 26 10 15 6 3 5 8 37v4l-2 1h-21l-39-1-96-1-8-1-2-3-6-34 1-1h74l13-1-25-10-55-19-11-4-3-4-4-21v-6l5-4 14-6 24-9 30-12 5-4v-2h-81l-3-1-3-10-4-20z" fill="#9160CC"/>
<path transform="translate(910,407)" d="m0 0h28l19 4 13 5 15 8 13 10 14 14 11 15 10 21 7 26 2 33-1 17-4 25-4 13-4 6-4 8-2 1h-6l-8-8-13-4-8-4-3-3-9-5-12-10-9-4-2-1v-2h-2v-2l-3-1-3-4-9-1v2l-4 3-3 10-3 3 1-11 3-20v-34l-3-17-6-18-11-21-9-11-7-7-10-6-11-4h-11l2-4 10-8 16-8z" fill="#3E196B"/>
<path transform="translate(1054,60)" d="m0 0h23l20 4 19 5 11 6 11 9 12 11 10 11 10 15 8 17 6 18 3 15v29l-5 25-8 23-12 23-8 12-9 11-5 6-4-1-3-3-3-14v-6h-2l-4-8-8-9-4-5-7-5-8-3-4-6-6-3-1-2h-10l-13 2h-3l1-4 13-9 13-12 7-10 7-16 3-10 1-16-3-16-8-16-6-7-13-10-17-8-20-6-17-4-6-5-1-6 3-8 7-6 13-4z" fill="#5F29A1"/>
<path transform="translate(380,681)" d="m0 0 4 1 23 23 2 4-1 8-10 25-11 29-11 28-5 12 12-6 43-29 24-16 4-3 4 2 12 13 8 8 5 4-2 4-27 18-17 11-33 22-17 11-15 10-19 12-8 5-10-9-17-17-1-3 7-19 12-31 9-24 8-20 2-6-18 10-15 10-20 13-24 16-5 3-5-2-9-10-15-15v-3l20-12 43-29 23-15 17-11z" fill="#9160CC"/>
<path transform="translate(805,950)" d="m0 0h13l22 5 18 7 12 8 7 7 5 8 5 15 1 5v16l-3 1-40-10-3-5-3-7-5-5-11-6-10-2h-9l-11 2-13 7-11 10-7 11-6 15-1 4v15l5 10 5 6 14 7 11 3h13l13-4 11-6 4-4-1-3-19-7-20-4-3-3 1-8 7-16 1-1 11 1 35 9 34 8 4 3-1 5-14 28-11 12-14 10-15 7-15 5-11 2h-24l-17-4-16-8-11-8-7-7-7-11-4-9-2-9v-18l3-14 5-13 8-15 7-9 9-10 12-9 14-8 20-6z" fill="#9160CC"/>
<path transform="translate(905,102)" d="m0 0h19l16 4 11 6 12 11 8 8 9 14 5 10 5 17 1 6v18l-3 14-5 12-8 11-8 7-9 5-16 3-17-1-10-3-13-7-10-8-9-10-10-16-6-15-3-14-1-15 3-18 4-11 7-11 7-7 11-7z" fill="#9160CC"/>
<path transform="translate(100,526)" d="m0 0h97l86 2 5 6 8 16 9 16-1 6-12 9-17 13-14 11-17 13-15 12-12 9-13 10-14 11-14 10-3-1-8-14-9-17-1-5 15-11 7-5-1-5-10-19-15-29-33-1-13-25-5-8zm122 37-35 1 3 9 12 24 4-1 16-11 21-16 4-5-3-1z" fill="#9160CC"/>
<path transform="translate(595,862)" d="m0 0 5 1 17 9 15 10 4 3-1 6-7 18-11 32-18 50-17 46-2 3-6-2-25-15-6-4 7-17 3-9-9-6-15-9-14-8-11-7h-5l-10 7-12 7-3 1-22-11-11-7v-4l13-9 16-9 19-12 20-12 24-15 25-15 26-16zm-10 48-14 7-17 11-23 14 4 4 25 15 6 1 11-27 9-21z" fill="#9160CC"/>
<path transform="translate(1812,356)" d="m0 0 5 3 7 7 9 11 11 12 7 8 10 11 9 11 12 13 9 11 13 14 9 11 12 13 9 12-1 6-11 30-6 11-9-1-38-8-34-6-41-8-39-7-1-4 5-12 8-22 4-2 41 8 36 8 31 6 9 3-6-8-15-16-7-8-16-17-7-8-11-12-7-8-9-10-10-10-3-4 1-5 10-23z" fill="#9160CC"/>
<path transform="translate(1833,183)" d="m0 0 8 1 20 7 3 2-1 17-4 35v5l6 3 24 7 2-15 3-33 1-4 8 1 21 7 1 1v12l-4 32v8l31 9 2 1 6-51 1-6 10 1 19 5 2 2-1 17-5 47-4 35-9-2-34-10-50-15-66-19-1-1v-13l7-62 3-21z" fill="#9160CC"/>
<path transform="translate(1137,491)" d="m0 0h6l19 9 9 7 8 13 4 13v24l-6 36-4 19-4 10-2 6h-2l1-8 3-11-41 12-27 10-27 12-22 11-20 12-15 10-5 4-3-1 3-7 4-5 5-4 4-5h2l2-4 9-10 12-16 7-10 12-17 13-21 13-24 9-17 10-24 7-18 2-1v4l6-1 1-5 2-2z" fill="#3E196B"/>
<path transform="translate(993,975)" d="m0 0h99l-2 13-3 15-2 4h-59l-3 24-2 8 49 1 4 1-1 12-3 17-1 1-53 1-6 36 28-1h31l1 4-4 24-2 2-27 1h-72l1-12 8-49 12-73 5-27z" fill="#9160CC"/>
<path transform="translate(1376,235)" d="m0 0h17l11 3 8 7 2 5-1 8-10 21-12 17-9 10-7 8-17 17-8 7-8 8-8 7-13 11-14 11-17 13-18 13-16 12-20 14-18 13-9 6-6 1-1-4 11-9 13-10 14-11 13-11 14-11 15-14 8-8 7-8 9-10 9-11 9-13 5-12 1-5v-12l-3-8-3-3-6-2-7-1h-24l-25 5-35 11-27 11-5-1-1-5 21-12 31-15 39-17 30-11 30-9 23-5z" fill="#602AA2"/>
<path transform="translate(1543,787)" d="m0 0 2 1v27l-1 77v21l2 13 11 25 6 15v5l-13 9-15 10-4-1-5-8-11-25-6-12-5-5-13-11-28-21-14-11-20-15-11-8 2-4 17-11 12-8 4-3 5 1 8 7 10 9 14 11 17 14 1 1-1-47v-31l8-6 21-14z" fill="#9160CC"/>
<path transform="translate(765,569)" d="m0 0 5 1-1 7-14 14-8 7-16 15-7 8-11 13-14 21-7 15-1 9 4 9 4 5 9 4 4 1h24l20-4 25-7 38-14 8-3 5 1 1 4-5 4-30 15-36 16-24 10-22 8-41 13-25 4h-24l-8-4-5-6-1-9 4-13 9-16 16-21 15-16 10-9 12-12 8-7 12-11 11-9 15-12 18-13 17-13z" fill="#612BA2"/>
<path transform="translate(800,356)" d="m0 0 2 1 1 5-4 13-3 20v22l4 20 7 20 9 17 8 10 5 5 7 5 10 1 4 5 12 7 16 6 5 5 1 8-3 6-9 7-17 7-12 2-16-1-14-5-12-6-13-10-9-10-10-16-7-19-3-15v-25l5-26 5-15 10-19 10-14 8-10z" fill="#3F196C"/>
<path transform="translate(1619,706)" d="m0 0 5 1 10 13 13 17 14 19 10 13 30 40v2l5-3 9-9 9-11 11-12 3-1 5 4 6 9 7 8-1 5-9 9-7 8-14 15-7 8-15 16-6 7-3 1-5-5-14-18-9-12-14-19-13-17-14-19-20-26-11-15 2-4 14-14 7-8z" fill="#9160CC"/>
<path transform="translate(852,718)" d="m0 0 2 2-2 3 4 2 5 8 5 2 3 5 1-2 3 1 9 9 2 5 1 15-2 12-2 2-2 7 4-1-5 5-19 13-17 11-16 10-21 13-20 11-7 2-8-1-5-3-8-9-2-5v-9l4-7 9-10 10-10 8-7 29-29 7-8 10-11 11-14z" fill="#9160CC"/>
<path transform="translate(1719,574)" d="m0 0 5 2 11 11 8 7 15 14 10 9 12 11 32 30 13 12 7 7 8 7v5l-7 10-13 20-8-6-8-8-8-7-15-14-31-29-13-12-33-31-5-4-1-4 9-12 9-15z" fill="#9160CC"/>
<path transform="translate(1054,60)" d="m0 0h23l20 4 19 5 11 6 7 6-2 4h-5l4 16 1 5v12l-2 11-4 11-4 3h-6l-2 1-3-2-10-1-7-13-6-7-13-10-17-8-20-6-17-4-6-5-1-6 3-8 7-6 13-4z" fill="#3F196C"/>
<path transform="translate(1163,636)" d="m0 0 5 1 2 2h1v6l4 1 3-1 6 3 5 5h15l9-2v-2l12-1 3 2v2l4 3-1 4-13 18-14 20-14 19-10 13-13 16-10 8-4 1-12-6-5-6-1-10 6-21 6-23 5-19 6-19 3-12z" fill="#602AA2"/>
<path transform="translate(880,170)" d="m0 0 9 6 3 4v2l2 1 4-1 9 3 13 3 4 2 8 2 8 3 1-2 11 3 1 2 7-1 24-1 1-3 5-1v10l-4 14-6 11-9 10-11 7-10 3-16 1-14-2-16-8-11-8-10-11-10-16-6-15-2-7 1-9 5-1 5 3h2z" fill="#5F2AA1"/>
<path transform="translate(654,664)" d="m0 0 4 1 3 7v5l5 2 5 6v2l4 1 1 7h2v3l5 2 10 6 5 2 3 8v2l5 1 3 3 9 1 2 3-8 3-37 12-25 4h-24l-8-4-5-6-1-9 4-13 9-16 16-21z" fill="#3F196C"/>
<path transform="translate(800,356)" d="m0 0 2 1 1 5-4 13-3 20v22l4 20 7 20 9 17 8 10 5 5 7 5 10 1 4 6-9 1-10-6-8-7-8-10-1-3-4-2-2-3-7-2-17-3h-12l-9-2-2-2-2 4v-25l5-26 5-15 10-19 10-14 8-10z" fill="#5F29A1"/>
<path transform="translate(835,344)" d="m0 0 5 1v8h2v2h6l1 2 4 2 2 5h-4l-2-1v-2l-11-2-5-3-1-1h-6l-4 3h-2v2l-4 4v2l5-5 2 1-1 10 4 2 6-1 4-3h5l2 4v10l2 7-2 4v12l-1 2 4-1-1-9h3l5 4-2 6-3 3h-2v2l2 1-4 5-11 4-9 3-5 2h-2l-2 3 1 2h-2l-1 2-4-2-5-7-3-13v-18h2l-1-9 5-10 3-10 2-4h2v-2h2l2-4 4-6 10-6z" fill="#9F72D8"/>
<path transform="translate(1056,482)" d="m0 0 7 2v2l4 2 4 6h2v2l4 1 1 4 5 1 2 6-1 5-5 8-3 6-1 1h3l2-4 5-4-2 7-5 10-5 4-11 11h-4l-3-7-1-12-4-23-3-10 2-2v-10l2-5z" fill="#9F72D8"/>
<path transform="translate(1116,510)" d="m0 0 1 3-6 16-14 29-12 22-6 12-4 20-3 17-5 7-5 11 2 1-19 10-24 15-9 7-3-1 3-7 4-5 5-4 4-5h2l2-4 9-10 12-16 7-10 12-17 13-21 13-24 9-17 10-24z" fill="#5F29A1"/>
<path transform="translate(1299,361)" d="m0 0 6 1h10l2 1-2 6-13 10-38 28-18 13-17 12-18 13-5 2h-3l-1-4 11-9 13-10 14-11 13-11 14-11 15-14 8-8 8-7z" fill="#431D72"/>
<path transform="translate(1251,276)" d="m0 0h5l1 2-1 4 5 1 3 2-2 4-35 11-27 11-5-1-1-5 21-12 31-15z" fill="#431D72"/>
<path transform="translate(993,975)" d="m0 0h99l-1 4-5 1-2-1v-2h-42l-24 2-9 6h-2l-2 5-16 1 1-10 2-5z" fill="#A073D9"/>
<path transform="translate(1137,491)" d="m0 0h6l19 9 9 7 8 13 4 13v24l-6 36-4 19-4 10-2 6h-2l1-8 2-7v-5l4-10 5-23 4-24v-14l-2-10-4-10-7-9-8-6-12-5h-9l-9 2-1-4 3-3z" fill="#612BA2"/>
<path transform="translate(910,407)" d="m0 0h28l19 4 13 5 15 8 13 10 14 14-1 2-12-12-11-9-14-8-14-6-23-5h-17l-16 3-17 5-13 7-4 5 2 2-10 1 2-4 10-8 16-8z" fill="#5F29A1"/>
<path transform="translate(1331,950)" d="m0 0 4 1 3 7v4l-5-1v2l-4 4-1 2-7 1v-2l-5-2v-2h-6v-2h-2l2-4 5-1 2 1 1-3 5 1 4-4z" fill="#9F72D8"/>
<path transform="translate(1045,500)" d="m0 0 2 2 3 12 3 23v12l1 7-2 20-2-3-1-17-1-35-2-12z" fill="#A073D9"/>
<path transform="translate(1180,565)" d="m0 0h1l-1 12-6 32-5 13-2 6h-2l1-8 2-7v-5l4-10 5-23 2-9z" fill="#622CA3"/>
<path transform="translate(1249,505)" d="m0 0 5 1 8 4v-2l1-2 9 9v2l-7-1 1 4-7-1-10-8-1-5z" fill="#A073D9"/>
<path transform="translate(696,693)" d="m0 0 5 1 7 3 19 3v2l-12 2-8-1-7-3z" fill="#441E74"/>
<path transform="translate(825,435)" d="m0 0 3 1-7 8h-2l-1 5-1 2-5-1-4-6 1-2 3-1 5 1z" fill="#9F72D8"/>
<path transform="translate(1203,973)" d="m0 0 6 2 3 3-2 6-6-2v-3l-2-1z" fill="#A073D9"/>
<path transform="translate(1048,498)" d="m0 0 2 2 3 11-1 4-3-8-2-7z" fill="#A073D9"/>
<path transform="translate(977,1059)" d="m0 0h1v5h3v4l-3 1-2-1z" fill="#A073D9"/>
<path transform="translate(1733,586)" d="m0 0 6 4 6 7-4-2-8-7z" fill="#A073D9"/>
</svg>
