<?xml version="1.0" encoding="UTF-8"?>
<svg version="1.1" viewBox="0 0 1456 1276" width="1280" height="1280" xmlns="http://www.w3.org/2000/svg">
<path transform="translate(759,15)" d="m0 0h20l17 4 19 9 14 10 11 11 10 15 7 14 5 16 1 6v34l-4 17-7 19-10 18-8 11-9 10-2 3 2 18 2 13 1 16v23l-2 24-5 28-7 25-2 4 22-1 31-3h18l20 3 11 4 11 7 7 7 8 13 3 9 1 6v13l-3 14-7 12-10 14-16 23-13 18-12 17-13 18-13 17-7 9-4 5-5 3-9-1-6-4-3-4v-8l9-34 17-59 2-4-28 7-20 6-20 8-23 11-17 10-17 12-14 12-8 7-17 16-8 8-11 9-10 9-17 13-10 8-23 16-18 12-22 14-22 13-10 4-7-1-8-7-3-7v-7l6-10 16-15 24-24 7-8 22-26 14-19 15-23 13-22 11-24 7-21 4-18 1-9v-28l-3-16-6-16-8-15-9-10-11-7-9-3h-7l-10 6-7 9-3 11v11l4 11 5 6 10 5 13 5 3 4v7l-6 8-8 4-12 4h-15l-19-6-12-7-8-7-8-11-8-17-3-14-1-8v-12l3-20 7-19 10-18 11-14 6-7 8-7 10-8 19-12 16-9 20-8 36-12 25-7 23-7 25-9 16-8 11-7 14-11 6-7 10-21 2-8v-14l-4-13-7-12-9-9-12-7-12-4-18-3-8-4-2-3v-8l5-6 12-5zm74 349 1 2 14 1 7-2v-1z" fill="#396EA2"/>
<path transform="translate(757,883)" d="m0 0 10 3 16 8 15 8 14 10 14 11 15 14 12 12 7 8 10 8 11 7 14 5 6 1h12l12-3 16-8 27-16 22-13 16-8 19-8 10-1 7 3 3 3 1 10-3 6-4 5-11 9-5 5h-2v2l-4 4h-2l-2 4-9 11-12 20-8 18-5 18-3 14-2 20v33l3 23 5 22 8 24 5 14-1 7-7 7h-7l-13-7-14-12-11-12-11-16-10-17-8-14-4-5-7-3-9 1-5 3-5 9-3 9-1 9v27l2 16 6 29 1 8v12l-3 5-3 2-9-1-13-9-8-8-9-13-11-21-8-24-5-24-3-22v-30l3-35v-30l-2-15-7-21-9-20-13-23-10-16-10-13-9-11-11-13-1-5 5-7z" fill="#396EA2"/>
<path transform="translate(597,883)" d="m0 0 6 1 6 5 2 8-4 6-13 13-15 20-12 19-12 22-7 15-6 18-2 9-1 9v32l3 42v18l-4 34-5 19-6 18-8 18-9 14-9 10-8 7-11 6h-8l-3-3-2-6v-9l8-39 2-13v-29l-3-15-5-10-5-4-8-2-7 2-5 5-10 18-9 15-10 14-11 13-9 8-11 7-11 5-6-1-5-6v-10l13-40 3-15 3-20 1-16v-15l-2-24-4-22-6-18-8-16-8-14-9-12-9-10-8-7-12-10-7-10 1-8 5-6 5-2 11 1 17 7 20 10 17 10 19 12 16 9 14 6 9 2h12l12-3 10-4 12-8 10-9 14-15 12-12 11-9 10-8 17-11 14-8z" fill="#396EA2"/>
<path transform="translate(611,903)" d="m0 0 4 2 6 12 7 36 9 23 8 13 7 9 11 8 10 3h12l9-4 11-8 9-11 6-11 6-14 7-28 3-19 6-8 2-2 5 1 3 4 3 14v13l-3 30-3 23-8 44-1 9v11l4 24 4 15 8 21 11 25v7l-5 5-5-1-10-7-4-3v-2l-4-2-8-8-11-9-14-11-13-8-9-3h-14l-16 8-13 10-13 11-13 12-9 8-9 5-5-2-2-3 1-9 7-16 10-26 6-22 2-13v-24l-5-25-7-47-2-21v-26l2-7z" fill="#3DADE1"/>
<path transform="translate(865,359)" d="m0 0h18l20 3 11 4 11 7 7 7 8 13 3 9 1 6v13l-3 14-7 12-10 14-16 23-13 18-12 17-13 18-13 17-7 9-4 5-5 3-9-1-6-4-3-4v-8l9-34 17-59 2-4h-5l3-1 4-16 5-18-2-1v-28l-4-6v-5h-2l-1-5-4-2-5-5-12-3-3-3h6l1 1h7l2 1h7l3-1h-7l-5-2 3-2z" fill="#396EA2"/>
<path transform="translate(16,187)" d="m0 0h96l22 1 2 3 5 26-1 4-20 9-39 16-14 6h-2v2l9 2 75 28 3 3 5 23 1 7-1 1-13 1h-26l-79-1-2-4-3-17v-8l65 1v-2l-10-3-31-11-26-9-4-4-3-17 1-4 21-8 29-11 11-4 1-2h-67l-2-5-3-17z" fill="#396EA3"/>
<path transform="translate(964,684)" d="m0 0 5 1 2 14 11 94v8l-2 2-21 6h-4l-5-39-3-26h-2l-1 8-11 53-3 12-11 4-6 2h-5l-4-5-20-39-8-14-2-1 2 10 5 45 1 12-7 3-16 5h-4l-3-20-8-70-2-19v-9l8-3 21-6 4 1 26 46 9 16 4 7 2-4 6-25 7-31 7-28 5-3z" fill="#396EA3"/>
<path transform="translate(637,49)" d="m0 0h18l14 5 12 8 9 9 9 14 5 12 3 13v16l-4 15-7 11-7 7-8 5-7 2h-21l-9-4-12-7-10-10-7-10-7-14-4-15v-17l4-14 5-9 7-8 10-6z" fill="#3DADE1"/>
<path transform="translate(904,851)" d="m0 0 13 1 13 4 11 6 9 9 7 12 3 11 1 6v9l-2 12-4 10-9 12-8 7-13 6-7 2-11 1-13-2-13-5-11-9-7-9-5-10-3-10v-18l3-10 6-12 9-10 8-6 13-5z" fill="#396EA2"/>
<path transform="translate(446,851)" d="m0 0 12 1 12 3 13 7 8 8 7 11 5 14v20l-4 12-5 9-9 10-9 6-9 4-8 2h-19l-15-5-10-7-9-10-7-15-2-8v-16l4-14 6-10 9-10 10-6 11-4z" fill="#396EA2"/>
<path transform="translate(267,519)" d="m0 0 6 1 12 12 4 5-2 9-14 37-10 25v3l7-4 29-19 23-15 4 3v2l4 2 10 11 1 3-11 8-41 27-21 14-20 13-4 2-4-1-9-10-7-7 1-7 15-40 10-27-11 6-26 17-17 11-5 3-4-2-9-9-7-8 4-5 16-10 27-18 41-27z" fill="#396EA3"/>
<path transform="translate(617,1053)" d="m0 0 2 1 2 3 14 2 22 1 30-1 10-2 11 1 21 1 5 1v2l7-1 5 25 9 25 12 27v7l-5 5-5-1-10-7-4-3v-2l-4-2-8-8-11-9-14-11-13-8-9-3h-14l-16 8-13 10-13 11-13 12-9 8-9 5-5-2-2-3 1-9 7-16 10-26 6-22z" fill="#4896E0"/>
<path transform="translate(566,714)" d="m0 0h25l16 4 13 7 8 9 5 11 1 3v14l-1 1-9-1-19-5-5-8-5-5-10-4-3-1h-10l-12 4-9 7-6 8-5 11-1 5v10l3 7 5 6 10 5 4 1h14l9-3 9-6 2-4-10-2-21-5-2-4 7-16 11 2 48 12-1 7-6 14-7 10-10 8-14 7-13 4-9 1h-12l-14-3-10-4-11-8-7-9-5-12-1-4v-14l3-11 6-14 10-14 10-9 14-8z" fill="#396EA3"/>
<path transform="translate(834,362)" d="m0 0h5l1 2-6 1h-3-4l7 2 7 3 4 3v2l4 1 1 3 2 1-1 1 2 2v5l4 5v28l1 3-8 30-2 4-25 6-20 6-20 8-23 11-17 10-1-2-3-1 1-5-12 12h-2l-1-4 7-10 6-5 9-16 5-5 10-13 7-7 7-10h2l2-6 7-11 2-3h3l2-5 7-17 6-13 4-9 2-6z" fill="#3DADE1"/>
<path transform="translate(1013,156)" d="m0 0h17l10 3 5 6v11l-4 9-5 9-9 12-22 24-24 22-22 18-18 14-14 10-15 11-17 12-13 9-5 1-1-5 9-8 15-11 16-13 14-12 12-11 17-17 8-10 8-13 4-9 1-4v-8l-3-6-4-3-8-2h-15l-21 3-26 8-32 12-2-1v-5l20-11 33-15 26-11 26-9 28-8z" fill="#396EA3"/>
<path transform="translate(423,649)" d="m0 0 6 2 11 6 7 5 5 3-3 12-19 53-14 39-3 7-6-1-17-10-3-2 1-7 4-10v-4l-29-17-5-3-6 1-10 6-4 3-6-1-17-10-4-2 1-3 20-12 56-34 21-13zm-9 34-15 9-15 10-7 4 1 3 21 12 3 1 11-27 4-10v-2z" fill="#396EA3"/>
<path transform="translate(67,406)" d="m0 0h37l57 1 37 1 5 5 10 20v5l-11 10-16 12-28 22-13 10-18 14-5 4h-2l-8-14-5-10 1-4 14-10-2-6-15-30-1-3h-22l-5-5-10-19zm61 26 2 6 10 19 2 1 11-8 20-15v-3z" fill="#396EA3"/>
<path transform="translate(1300,284)" d="m0 0 4 2 11 13 10 11 9 11 13 14 9 11 10 11 7 8 11 12v2l3 1 1 5-11 29-2 3-25-5-54-10-37-7 1-7 8-20 3-2 51 11 29 6h3l-7-8-9-10-15-16-7-8-9-10-15-16-2-2v-5l5-12z" fill="#396EA3"/>
<path transform="translate(526,425)" d="m0 0 4 1-3 5-38 38-14 19-7 14-1 5v7l4 8 8 4 4 1h22l22-5 23-7 20-8 2-1h6l1 2-5 5-23 11-28 13-29 12-30 10-23 6-6 1h-18l-8-3-5-4-2-8 4-13 7-11 8-10 10-11 7-8 10-10 8-7 14-13 14-11 13-11 18-13z" fill="#396FA3"/>
<path transform="translate(1315,159)" d="m0 0 7 1 13 5 2 4-4 39 12 3 11 3 4-36 9 1 12 4-1 16-3 22 16 4 10 3 1-16 3-25 9 1 12 3 1 1v10l-5 41-2 20-8-1-60-18-41-12-6-3 1-15 6-50z" fill="#396EA3"/>
<path transform="translate(710,730)" d="m0 0h69l2 2-3 15-3 5h-41l-4 26h37l-1 13-2 7-37 1-2 8-3 18h42l1 4-3 16-1 2-42 1h-30l1-8 18-108z" fill="#396EA3"/>
<path transform="translate(557,250)" d="m0 0h2l-1 6 3-3-2 6-5 13-2 12v29l3 18 5 12 5 6 13 10 5 3v2h6l5 6 10 5 13 5 3 4v7l-6 8-8 4-12 4h-15l-19-6-12-7-8-7-8-11-8-17-3-14-1-8v-12l3-20 7-19 5-4 3-5 2-4h2l2-4 7-6 1-4 2-2z" fill="#4F86DF"/>
<path transform="translate(1105,595)" d="m0 0h2v27l-1 68 11 26 4 8-2 4-15 10-4 3-4-1-15-34-14-11-38-29-12-9 2-4 11-8 10-7 5 1 15 13 14 11 8 6-1-6-1-50 7-6 15-10z" fill="#396EA3"/>
<path transform="translate(1161,536)" d="m0 0 4 2 16 21 39 52h3l7-8 11-12 4-5h3l9 13 2 2-1 4-15 16-9 10-4 5h-2l-2 4-7 7-3 4h-3l-7-10-11-15-12-16-16-21-14-19-9-12 1-4 7-8 6-7h2z" fill="#396EA3"/>
<path transform="translate(637,49)" d="m0 0h18l14 5 12 8 5 6v3l3 6v2h2l1 4 3-1 2 6 2 4 1 9-18 3-21 1-27-1h-14l-8-1v2l-4 2-4-1v-17l4-14 5-9 7-8 10-6z" fill="#31BDDE"/>
<path transform="translate(672,923)" d="m0 0h13l13 5 6 5 6 9 2 8v13l-4 10-9 10-8 4-8 2h-8l-13-4-8-7-4-5-4-9v-16l4-10 7-8 12-6z" fill="#31BDDE"/>
<path transform="translate(1232,441)" d="m0 0 5 2 13 13 8 7 15 14 16 15 12 11 13 12 6 5-1 4-4 5-10 16-6-4-12-12-8-7-10-10-8-7-7-7-8-7-15-14-13-13 2-5 9-14z" fill="#396EA3"/>
<path transform="translate(620,1033)" d="m0 0 5 3 8 2 4 2 16-1h35l6-1h14l15-3 2-1h6v2l3-1 2 5v5h2l2 8v8l-4 2-5-3h-11l-18-1-5-1-10 2-38 1-14-1-15-2-2-5 1-3v-8z" fill="#40A5E1"/>
<path transform="translate(611,903)" d="m0 0 4 2 6 12 7 36 9 23 2 4 1 7 4 4 3 5v3h3v2l2 1-7 1-5-3-12 1-3-2-9 2-3 1h-3l-4-25-3-23-1-12v-26l2-7z" fill="#31BBDC"/>
<path transform="translate(744,904)" d="m0 0 5 1 3 4 3 14v13l-3 30-3 23-2 11-1-3h-2l-2 6-4-4h-5l-7-2-4 1h-2l-7 1-2-5 3-1 2-6 2-4 1-5 7-17 7-28 3-19 6-8z" fill="#31BCDE"/>
<path transform="translate(834,362)" d="m0 0h5l1 2-6 1h-3-4l7 2 7 3 4 3v2l4 1 1 3 2 1-1 1 2 2v5l2 4v15l-4 7-6-3h-14l-9 1-14-1-8-1-1-1v-8l2-10 6-13 4-9 2-6z" fill="#23D3DE"/>
<path transform="translate(663,1090)" d="m0 0 6 2h6v2l-16 7-13 9-11 9-10 9-8 7-11 10-9 5-5-2-2-3 1-9 7-16 9-23 3-1 7-1 4-2 9-1 3 1 11-1v1h10v-2h7z" fill="#4F86E0"/>
<path transform="translate(643,49)" d="m0 0h12l14 5 12 8 5 6v3l3 6v2h2l1 6-4-2v-2l-11-2-6 3-7 1-1 1h-26l-13 1-5-2v-2l-6 1-2 4v-3l3-8 2-6 3-2 1-3 4-1 2-5 10-6z" fill="#23D3DE"/>
<path transform="translate(855,391)" d="m0 0 2 2v28 3l-2 4-5 8-4 3-23-1-9-1h-13l-2 1h-13l-3-1-1-4 4-10 8-15 5-12h1v13l24 2 7-1h14l6 3 3-6v-15z" fill="#31BDDF"/>
<path transform="translate(746,1089)" d="m0 0 2 3 8 21 11 25v7l-5 5-5-1-10-7-4-3v-2l-4-2-8-8-11-9-14-11-13-8-4-2v-2l13 3h7l5 1v-1l13-2 5-2 4-1 6-2h4z" fill="#4F86E0"/>
<path transform="translate(557,250)" d="m0 0h2l-1 6 3-3-2 6-5 13-2 12v29l3 18 1 7h-2v2l-14-1-9-2-7-2-1-2 1-3-2-7h2l-2-9 1-9 7-19 5-4 3-5 2-4h2l2-4 7-6 1-4 2-2z" fill="#3DADE1"/>
<path transform="translate(705,115)" d="m0 0h1v16l-3 10-7 11-7 7-8 5-7 2h-21l-9-4-12-7-8-8 1-3 14-1 13-2 31-1 10-3 7-2 1-7 3-12z" fill="#4F86DF"/>
<path transform="translate(700,121)" d="m0 0 2 1v6l-2 7-7 3-10 3-34 1-10 2-14 1h-3l-7-10 1-5h2l1-3 6-2 14-1 8-1h26l10 1 13-2z" fill="#4896E0"/>
<path transform="translate(522,314)" d="m0 0 2 3v6h-2l3 7-1 4 7 2 9 2 11 1 3 1v-2l3-1 5 9 8 7 5 7 5 5-2 1h-8l-12-1-8 1h-9l-6 1-3-1v-2l-3-1-2 3-4-11-3-18v-12z" fill="#4896E0"/>
<path transform="translate(694,110)" d="m0 0 7 2 1 10-7 1-13 2-9-1h-31l-3 1-14 1-6 2-5 5-6-12 1-4 7-1v-2l5-1 16-1h46z" fill="#3FA6E1"/>
<path transform="translate(675,963)" d="m0 0h13l9 3 1 2h10l1 3-6 8-6 5-10 4-4 1h-8l-13-4-8-7-3-3v-4l14-7z" fill="#4896E1"/>
<path transform="translate(663,949)" d="m0 0h39l5 7 5 2-1 9-1 2h-12l-2-3-8-2h-13l-10 1-11 6h-3l-1 2-4-9v-11l2-3h11z" fill="#3DACE1"/>
<path transform="translate(775,461)" d="m0 0h16l7 3h7l7-1 5 1-1 2-24 8-26 12-20 11-4 2v-2l-3-1 1-8 9-9 5-4 4-6 4-3h2v-2z" fill="#4895DF"/>
<path transform="translate(638,980)" d="m0 0 4 4 6 9 4 5 11 8 10 3 1 6 2 1-4 2-1-1-13-1-13-2-15 1-3 1-3-2-7 1v-2l-3 1-3-4-1-8 9-3 6-1 3 2 12-1 5 3 5-1v-2h-3l-1-6-3-1-1-3h-2l-2-4z" fill="#35B4E0"/>
<path transform="translate(610,913)" d="m0 0 4 1 3 4v7l6 12 2 1 4 20-3 9-4-2-7-1-3-2-3 1-2-1-3-10 3-4 1-2h-2l-1-9v-14l2-6h2z" fill="#23D3DF"/>
<path transform="translate(718,980)" d="m0 0 1 3-5 10-2 2 1 3h3l7-2h3l7 2h6l3 7-3 8-6-1-11 1-15 4-14-1h-6l-2-3 3-1v-2l5-1 1-4 11-8 9-11z" fill="#35B5E0"/>
<path transform="translate(743,910)" d="m0 0 6 1 1 4v24l-2 10-1 1 1 5-3 8-3 4-8 1-3-4 1-5-1-1-1-12 3-13 2 1 2-10 3-12z" fill="#23D2DE"/>
<path transform="translate(788,419)" d="m0 0 1 4 2 3 10 2 7-1 13-1h23l6 1 5-4 1 2-5 10-5 4-23-1-9-1h-13l-2 1h-13l-3-1-1-4 4-10z" fill="#35B5E0"/>
<path transform="translate(685,94)" d="m0 0h7l8 2v5l-18 3-21 1-27-1h-14l-8-1v2l-4 2-4-1 1-8 5-1 14-1h41l18-1z" fill="#35B4DF"/>
<path transform="translate(549,309)" d="m0 0 3 4 3 18 1 7h-2v2l-14-1-9-2-7-2-1-2 1-3-2-7h2l2-8h7l13 4z" fill="#3FA6E1"/>
<path transform="translate(800,448)" d="m0 0 14 1h5l6 2v2l-9 4h-6v5h-3v2l-2 1h-7l-7-3h-16l-11 2v2l-4 3-2-1 6-8 1-2h2l2-4 4-2 14-2 4-1z" fill="#3FA6E2"/>
<path transform="translate(557,250)" d="m0 0h2l-1 6 3-3-2 6-4 9h-2l-1 5-1 4-1 7-2 11-5 4-4-1v-2l-7 1-5 3v-7l3-7 5-4 3-5 2-4h2l2-4 7-6 1-4 2-2z" fill="#35B3DE"/>
<path transform="translate(681,923)" d="m0 0 4 1 10 6v2l5 1 1 6h-12l-17 1h-11l-7 1-1-2 3-2 2-3 6-4 11-6z" fill="#23D3DF"/>
<path transform="translate(744,904)" d="m0 0 5 1 3 4 3 14v13l-3 30-1 9-2 2v-3h-2l1-5-1-7-1-6 1-2-1-5h2v-7l1-3v-28h-6l-2 1-4 17-1 6-2-1 1-16 3-7z" fill="#3975A9"/>
<path transform="translate(611,903)" d="m0 0 4 2 6 12 3 15v7l-4-5-4-9v-7l-3-4h-3l-1 3-2 1-2 17-1 9-2-2v-26l2-7z" fill="#3976AA"/>
<path transform="translate(697,977)" d="m0 0 4 2-2 4-8 4-8 2h-8l-13-4-2-1v-3l6-1 14-1h7l1-1h8z" fill="#4E88E0"/>
<path transform="translate(674,957)" d="m0 0h9l12 1 2 4-1 4-8-2h-13l-10 1-11 6h-3l-1 2-1-3 1-2h2l2-6 1-2z" fill="#40A6E2"/>
<path transform="translate(557,250)" d="m0 0h2l-1 6 3-3-2 6-4 9h-2l-1 5-4 8-2 3-7-1h-3l1-4 2-5 3-1 2-4 7-6 1-4 2-2z" fill="#32BCDF"/>
<path transform="translate(637,49)" d="m0 0h6l-1 2-10 4-4 3h-2l-2 5-4 1-1 4-3 1v5l-3 5-2 5h-2v4l-3-1 1-9 6-12 7-8 10-6z" fill="#3777A9"/>
<path transform="translate(663,949)" d="m0 0h39l2 4h-20l-37 2 1-4 6-1z" fill="#35B5E0"/>
<path transform="translate(684,924)" d="m0 0 7 1 10 5 7 9 3 6 1 5v8h-3l-5-5-1-3 2-4-1-5h-2l-2-3v-5l-5-1v-2l-4-2-7-3z" fill="#3874A7"/>
<path transform="translate(775,477)" d="m0 0 3 1v2l-27 14-9 5v-2l-3-1 4-6 8-3 4-4 10-2 3 1 2-2 2 1v-2h3z" fill="#4E88E0"/>
<path transform="translate(566,239)" d="m0 0m-1 1m-1 1m-1 1m-1 1m-1 1m-1 1m-1 1m-2 1 2 1-2 1zm-1 2 1 3-3 7h-2l-1 5-8 7-4 4-1 4-6 7-1-2 9-16 11-14z" fill="#3875A9"/>
<path transform="translate(694,150)" d="m0 0h2l-2 4-8 7-8 4-4 1h-21l-4-2 4-1h12l14-2 4-2 4-5z" fill="#3B71A9"/>
<path transform="translate(685,68)" d="m0 0 4 2 9 13 5 11 1 9h-4l-2-12-3-4-1-4h-2l-1-4h-2l-3-5v-3l-2-1z" fill="#3976A9"/>
<path transform="translate(547,615)" d="m0 0 4 1-2 6-2 1-3 5-4 2-3 2-4-1-2-4 4-1v-3h2l1-2 5-1 2-4z" fill="#31BEDF"/>
<path transform="translate(672,923)" d="m0 0h9l-3 2-6 1-9 6-8 7-5 5-2 1 2-7 7-8 12-6z" fill="#3682B0"/>
<path transform="translate(718,980)" d="m0 0 1 3-5 10-2 1-2 4-2 1-1 3-10 6-2-1 2-4 9-7 10-13z" fill="#3974A8"/>
<path transform="translate(611,378)" d="m0 0 6 2 3 4v7l-6 8-8 4h-5l3-3 4-1v-3l5-3 3-3 1-7-3-1v-2h-3z" fill="#3D76B0"/>
<path transform="translate(638,980)" d="m0 0 4 4 6 9 4 5 7 5-1 3-7-3-1-4h-3l-1-6-3-1-1-3h-2l-2-4z" fill="#3977AB"/>
<path transform="translate(744,997)" d="m0 0h2v9l-3 13-2 2-1-7 1-11z" fill="#3975A8"/>
<path transform="translate(703,968)" d="m0 0h5l1 3-6 8-3-2-2-8z" fill="#3972A7"/>
<path transform="translate(578,403)" d="m0 0h13l2 1h5l-1 2-3 1h-15l-4-1v-2z" fill="#3C74AC"/>
<path transform="translate(522,314)" d="m0 0 2 3v6h-2l3 7-2 7-2 2-1-2v-12z" fill="#3B78AF"/>
<path transform="translate(705,115)" d="m0 0h1v16l-1 4h-2l-1-4-2-1 4-14z" fill="#3970A6"/>
<path transform="translate(694,150)" d="m0 0h2l-2 4-8 7-5 3h-2l1-3 6-5 3-3z" fill="#3C73AD"/>
<path transform="translate(604,935)" d="m0 0h2v11h2v4h-3v7l-2-3v-10z" fill="#31BDDF"/>
<path transform="translate(665,54)" d="m0 0 6 1 10 7-1 3-6-3v-2l-4-2z" fill="#377CAC"/>
<path transform="translate(657,932)" d="m0 0h5l-5 5-5 4-4 4 2-7z" fill="#3875A7"/>
<path transform="translate(638,980)" d="m0 0 4 4 4 7-6-2-2-4z" fill="#377DAE"/>
<path transform="translate(775,477)" d="m0 0 3 1v2l-11 5 2-5 3 1v-2h3z" fill="#4C8CE0"/>
<path transform="translate(537,275)" d="m0 0 2 3-7 8-1-2 5-8z" fill="#3A75AB"/>
</svg>
