<?xml version="1.0" encoding="UTF-8"?>
<svg version="1.1" viewBox="0 0 2048 1380" width="1280" height="1280" xmlns="http://www.w3.org/2000/svg">
<path transform="translate(759,340)" d="m0 0 12 3 40 13 69 18 45 9 48 11 81 15 53 8 26 5 6 3 11 14 11 20 7 10 2 4v7l-4 13-7 30-9 34 10-4 15-10 20-12 28-18 7 1 22 5 23 5 33 9-2-6-13-21-12-20-14-22-3-6 1-11 2-5 14 1 22 3 63 6 6 2 5 12 5 17 3 19 1 22-3 21-6 18-8 16-3 7 4 2 45 23 14 8 16 8 26 15 28 17 19 13 16 12 14 12 11 10 7 8 11 13 10 15 6 13 2 8v10l-4 10-10 13-12 9-17 8-21 6-24 5-32 4-26 2-23 1h-21l-34-2-65-6-80-10-70-14-29-5-72-16-38-10-32-8-12-5-10 2-108 18-49 8-90 14-55 9-109 17-46 8-60 10-10 2h-7l4-3 35-10 31-10 36-11 43-14 50-16 46-16 28-11 37-14 28-11 19-8 27-11 2-2-12-6-34-14-25-11-30-13-27-12-29-14-18-10-22-12-27-16-27-18-14-10-14-11-13-12-10-9-12-13-10-15-7-17-2-9 1-11 5-12 6-8 8-8 14-8 17-6 41-9 31-4 16-1h63l57 4 45 5 64 8 38 7 13 2-10-8-11-7-16-11-17-12-18-13-20-14-19-13-13-10-15-11-3-2zm-95 99-23 2-24 4-18 6-8 6-6 9-2 6v7l4 10 9 12 12 12 20 15 13 9 15 9 16 10 35 18 55 24 34 14 66 26 36 12 59 20 67 19 66 17 32 8 46 10 111 19 46 6 50 4 21 1h31l29-2 21-3 15-5 12-7 7-7 3-6-1-9-8-16-9-10-11-11-16-12-17-11-15-9-16-9-27-14-27-13-11-5h-5l-14 15-13 13-20 15-18 12-24 14-15 8-23 11-24 10-7 1-9-2-64-16-64-17-70-19-55-14-3-2 12-5 24-11 20-11 16-11 11-9 11-10 7-6v-2l4-2 12-16 26 5 33 4 27 2h7v-2l-16-5-21-6-15-6-20-9-23-12-23-11-23-12-13-7-13-8-14-7-20-6-27-5-52-10-29-5-82-9-29-2-24-1z" fill="#F5D796"/>
<path transform="translate(621,417)" d="m0 0h63l57 4 45 5 2 2-7 2-3 5-9 7 2 1v2l-39-3-38-2h-30l-23 2-24 4-18 6-8 6-6 10-1 4v7l4 10 9 12 11 11 20 15 13 9 15 9 16 10 35 18 55 24 34 14 66 26 3 2-5 5-9 2h-14l-20 2-9 3h-10l-6 2-2 1-1 3v27l-3 5 5 4-1 2-76-33-27-12-29-14-18-10-22-12-27-16-27-18-14-10-14-11-13-12-10-9-12-13-10-15-7-17-2-9 1-11 5-12 6-8 8-8 14-8 17-6 41-9 31-4z" fill="#FEFEFE"/>
<path transform="translate(1273,1145)" d="m0 0h3l3 13 7 41 10 57 5 32-4 2-27 5h-7l-10-50-3-11-5 18-8 37-3 11-4 3-27 4h-11l-5-5-16-23-11-17-8-9 6 39 3 21-32 8h-5l-3-7-14-80-9-52v-6l12-3 25-4h10l4 5 11 19 24 36 9 15 10 17 2-3 10-48 9-36 4-18 2-3 10-2 26-4z" fill="#FBF6DF"/>
<path transform="translate(179,675)" d="m0 0 5 1 6 7 7 12 10 12v6l-12 16-6 10-10 15-7 11-9 13-12 18-5 7h8l61-10 31-7h11l6 8 16 24 1 4-4 4-16 11-31 21-15 10-26 17-14 9-12 8-6 3-7-10-14-21 5-5 10-6 10-7 15-9 10-8 3-3 1-3-12 2-34 6-15 3h-12l-5-6-14-22-1-4 14-22 22-33 2-5-20 12-20 13-16 8-4-1-9-17-7-10 1-5 21-13 23-15 44-29 15-10 14-9z" fill="#FBF6DF"/>
<path transform="translate(1374,274)" d="m0 0 18 1 15 4 12 6 10 8 11 11 8 13 5 12 3 15v10l-3 17-5 12-9 15-11 12-11 7-15 7-11 3-6 1h-14l-17-4-16-8-11-8-8-8-9-14-6-15-3-12v-11l3-16 6-15 7-12 9-10 7-6 11-7 12-5 9-2z" fill="#F5D796"/>
<path transform="translate(570,524)" d="m0 0h7l13 6 7 3v2l10 3 19 6 11 4 13 6 8 1v-2l6 1 18 7 5 2 25 12 29 13 35 15 86 34 3 2-5 5-9 2h-14l-20 2-9 3h-10l-6 2-2 1-1 3v27l-3 5 5 4-1 2-76-33-27-12-29-14-6-4v-2l-5-2-12-7-14-9-5-6-8-17-6-9-5-3-8-11-9-8-7-8-6-9-4-8 4-7z" fill="#FBF6DF"/>
<path transform="translate(428,972)" d="m0 0 7 1 27 18 8 6 1 4-2 11-3 70-1 19 8-9 13-18 10-15 11-17 6-10 4-2 8 4 23 15 1 4-11 15-20 30-17 25-14 21-12 17-8 12-5-1-14-10-19-13-4-4 2-25 3-58 1-19 1-2h-2l-2 4-7 8-10 16-19 28-12 17-6-2-6-4-11-8-10-7 1-5 7-8 10-14 9-13 15-22 28-42 9-14z" fill="#FBF6DF"/>
<path transform="translate(760,1142)" d="m0 0h22l15 3 20 6 12 5 11 8 7 7 7 11 3 8 1 6v17l-1 2-7-1-23-6-5-4-5-13-8-7-15-8-7-2h-17l-10 6-6 7-7 15-4 14-1 6v13l4 12 7 8 11 6 11 3 13 1 9-2 4-3v-6l-5-3-14-5-4-4-1-5 4-12 4-5h15l29 5 17 5 5 3 1 1-1 11-4 16-8 16-7 9-10 6-14 4-17 1-21-2-22-5-13-5-13-9-8-8-9-14-3-9-1-5v-25l4-17 6-15 9-17 8-9 11-7 8-4z" fill="#FCF7E0"/>
<path transform="translate(1858,676)" d="m0 0h7l21 9 3 3-2 5-10 16-9 15-8 13-9 14-4 6v4l18 10h4l13-24 9-15 5-9 5-1 17 8 9 3 2 3-7 11-13 23-8 12-4 5 1 4 10 7 6 3 4-1 10-15 9-15 10-17 9-16 5-2 8 3 16 9 2 2-1 5-15 27-14 22-12 19-9 14-6 9-6 8-11-6-20-12-26-16-21-13-23-14-24-14-3-2 2-4 14-21 27-45 16-27z" fill="#FCF7E0"/>
<path transform="translate(897,1170)" d="m0 0h26l95 6 3 1v11l-1 16-1 2h-17l-49-2-18-1-1 21-1 6 19 1 37 3 7 2v23l-1 4h-17l-31-1-16-1v10l-1 17 4 1 64 3 14 1 1 1-1 28-2 2h-12l-37-2-63-6-9-1-2-4 2-6 1-8 6-113z" fill="#FCF7E0"/>
<path transform="translate(811,709)" d="m0 0h1l-1 11-1 8 1 5-1 12 1 4 1 8 1 2 7 3 6 3 4 7 4 2 11 1-1 2-234 37-64 10-63 11-37 6-10 2h-7l4-3 35-10 31-10 36-11 43-14 50-16 46-16 28-11 37-14 28-11 19-8z" fill="#FCF7E0"/>
<path transform="translate(623,1089)" d="m0 0 8 1 14 6 14 5 4 3-1 39-3 56-3 62-5-1-20-8-12-6-2-2 1-7 2-5 1-8-3-6-17-9-18-7-14-3-8 7-9 11-3 1-10-6-20-8-3-2 2-5 62-62 14-16 9-9h2v-2h2l2-4 3-3h2l2-4zm-3 58-8 7-9 9-8 6 1 3 12 7 10 4 4-1 1-22v-13z" fill="#FBF6DF"/>
<path transform="translate(337,887)" d="m0 0 7 1 7 7 8 7 11 9-1 6-13 29-12 28-16 35-21 49-5-2-24-24-2-5 7-9 4-9-2-6-7-8-25-25h-11l-10 5-3 2h-6l-8-7-8-8-8-7-2-4 16-8 24-10 32-15 33-15 20-9zm-23 51-17 6-11 6-3 2 2 4 13 14 5 1 6-10 5-11 3-9v-3z" fill="#FCF7E0"/>
<path transform="translate(1780,798)" d="m0 0 4 2 12 23 15 29 10 19 10 20 10 19 11 20 3 6-1 5-12 14-10 13-6-1-14-6-30-10-20-8-35-13-24-9-20-7-2-1 1-5 19-19 5-4 9 1 34 14 32 11 12 5 10 5-6-14-9-16-12-23-8-16-9-17-3-5 1-5 18-20 4-6z" fill="#FCF7E0"/>
<path transform="translate(1182,239)" d="m0 0 2 1-1 8-6 18-6 27-4 12 1 7 6 12 30 45-1 3-8-1-17-6-35-8-3-1h-8l-18 11-15 10-17 11-7 3-4-1 10-30 4-17 3-13v-8l-4-9-8-14-15-22-9-14 1-3 24 8 43 10 16-8 16-10 17-12 10-8z" fill="#F5D796"/>
<path transform="translate(1442,1079)" d="m0 0 4 1-4 18-5 37-8 43v11l6 14 9 24 3 6-1 5-20 7-11 5-5-1-5-12-6-16-7-16-7-10-14-11-17-12-18-13-12-9-18-12v-3l10-5 16-7 9-2 10 6 20 14 16 12 10 5 3-26 4-28 2-7 8-6 22-10z" fill="#FCF7E0"/>
<path transform="translate(1541,1022)" d="m0 0 5 2 7 9 10 16 13 18 14 20 13 20 4 5 3 1 11-7 12-8 23-16 19-13 5 1 4 5 3 5v2l4 2 6 8-5 5-17 12-16 11-17 12-16 11-25 17-5 2-9-9-14-20-9-13-13-19-34-50-6-7 1-4 10-8 16-9z" fill="#FCF7E0"/>
<path transform="translate(1658,928)" d="m0 0 4 2 8 10 12 13 7 8 24 28 26 30 4 4v2h2l5 5 6 7 1 3-16 15-5 5-7 5-7-6-7-7-7-8-11-12-9-11-9-10-7-8-9-10-7-8-12-14-9-10-5-7 2-4 8-6 12-11z" fill="#FCF7E0"/>
<path transform="translate(684,759)" d="m0 0 1 2-16 8v3l4 1 2 2 2 10 4 3 9 4 5 3 28-1-1 2-61 10-109 17-46 8-60 10-10 2h-7l4-3 35-10 31-10 36-11 43-14 50-16 46-16z" fill="#FEFEFE"/>
<path transform="translate(685,418)" d="m0 0h17l50 4 34 4 2 2-7 2-3 5-9 7 2 1v2l-39-3-38-2h-30l-23 2-24 4-10 2h-8l-1-3 7-8 9-7 9-4h2l-1-3 7-2 18-2z" fill="#FCF7E0"/>
<path transform="translate(997,291)" d="m0 0h3l-1 11v15l9 16v3h-7l-12-5-8 1-14 9-3 1-1-2v-7l3-8-1-9-8-13-2-4v-3l15 3 4 1h8l12-7z" fill="#F5D796"/>
<path transform="translate(1030,173)" d="m0 0h2l-3 10-8 16 1 5 9 11 6 7 1 4-6-1-20-10-4 2-12 11-5 3-3-1 3-8 4-6 2-7-1-5-7-8-9-10v-2l8 1 13 6 9 1 18-18z" fill="#F5D796"/>
<path transform="translate(902,102)" d="m0 0h2l-4 16 1 5 5 11v4l-10-1h-10l-7 3-5-1-1-1v-13l-7-14v-2h19l12-5z" fill="#F5D796"/>
<path transform="translate(912,192)" d="m0 0h2l-2 9-2 6v6l6 9 3 3v3l-4-1-10-5-7 1-9 7-6 1 1-5 6-7-1-6-3-6v-2l-5-2-3-3v-2h6l7 4h9l7-7z" fill="#F5D796"/>
<path transform="translate(434,1009)" d="m0 0 7 2 5 6 1 2v7l-2-3-2-4 1 6-4-5-3-2-6 1-4 1-2 4-5 5-6 7-3 11-2-2v8l5 4h-6l-3-4v-7l6-14 8-10 6-7 6-5z" fill="#F5D796"/>
<path transform="translate(623,1133)" d="m0 0h6l3 2v2h-3l2 5-1 3h-6v2l-7 3-6 5-5 4-5-1 1-4 7-11 9-8z" fill="#F5D899"/>
<path transform="translate(451,1102)" d="m0 0 2 4v7l3 12 5 2h6l4-4 2 1 4-1-2 4-8 7-6 2-8-5-3-4-2-10v-14l2 4v5z" fill="#F5D99A"/>
<path transform="translate(1906,759)" d="m0 0 3 1 1 5-10 16-4 5-4-1-1-7 4-8h2l2-5z" fill="#F5D796"/>
<path transform="translate(918,1240)" d="m0 0 6 1-2 4-4 2 1 5 2 4-1 5h-2-1v4l5 1v-2l5-2 2-1v6l-3 5-4 3-5-1-3-5v-15l3-13z" fill="#F5D796"/>
<path transform="translate(924,1242)" d="m0 0h2l3 3v6l-1 4 1 6-3 3h-4v2l-5-1-1-6 2-1v3l2-1-1-7-2-2 1-5z" fill="#FCF7E0"/>
<path transform="translate(1253,1199)" d="m0 0 4 2-5 5-4 2v2l6 1-3 2-7 3-1-1-3 5-3 8-8 9v-3l8-14 3-5 3-9 5-5z" fill="#F5D796"/>
<path transform="translate(919,1235)" d="m0 0h7l5 7 1 6-2 13-2-2-1-7 2-7-3-1-2-6h-6z" fill="#F5D796"/>
<path transform="translate(759,340)" d="m0 0 9 2 4 5v3l-4-2-9-6z" fill="#FBF5DB"/>
<path transform="translate(571,530)" d="m0 0 4 1v2h-2v6l-3 1-3-2 1-5z" fill="#FEFEFE"/>
<path transform="translate(179,675)" d="m0 0 5 1 6 7h-3l-5-4h-6l-6 2 4-4z" fill="#FEFEFE"/>
<path transform="translate(1136,1248)" d="m0 0 7 4 3 3 4 2v2l-5-1-5-4-4-4z" fill="#F5D796"/>
<path transform="translate(1134,1209)" d="m0 0 4 1v2h2l1 5-7-2v-2h2l-1-2-2 1z" fill="#F5D796"/>
<path transform="translate(847,632)" d="m0 0 9 3 2 2-4 1-6-2-2-3z" fill="#F5D798"/>
<path transform="translate(952,1232)" d="m0 0h7l-2 4h-6l-1-3z" fill="#F5D796"/>
<path transform="translate(62,750)" d="m0 0 2 1-3 4 2 8-4-4-1-6z" fill="#FEFEFE"/>
</svg>
