<?xml version="1.0" encoding="UTF-8"?>
<svg version="1.1" viewBox="0 0 1508 912" width="1280" height="1280" xmlns="http://www.w3.org/2000/svg">
<path transform="translate(777,15)" d="m0 0h21l16 3 13 5 14 9 14 12 10 12 8 13 7 17 3 13 1 11v14l-2 17-6 20-9 19-12 18-11 12-1 6 4 29 1 17v18l-2 25-5 29-7 28v5l3-2h3v-2l11-2 11-1h46l19 3 12 6 10 9 6 7 7 14 2 8v15l-3 13-8 14-6 8-11 16-10 14-13 18-12 17-8 11-12 16-10 13-5 6-5 3-10-1-7-6-1-2v-9l13-48 13-47 1-2-24 7-23 7-20 8-16 8-19 10-19 12-14 12-11 11-8 7-14 14-11 9-8 7-14 11-15 12-18 13-27 18-24 15-17 10-8 4-8 1-6-3-6-6-2-7v-6l4-8 9-9 8-7 23-23 7-8 12-14 1-2h2l2-4 13-16 11-16 10-15 10-17 9-16 11-27 5-19 3-20v-26l-3-17-5-14-8-15-11-12-10-6-12-5-6 1-7 5-8 11-2 6-1 12 3 12 7 9 9 5 12 5 3 3 1 6-3 6-7 6-14 5h-19l-16-5-11-6-10-9-8-11-6-12-4-13-2-15v-10l3-18 4-13 5-12 10-16 7-9 5-6h2l2-4 8-7 13-10 15-10 12-7 19-8 22-8 30-9 35-10 27-10 16-8 11-7 10-8 8-7 7-11 5-12 2-16-1-11-5-13-8-11-9-8-17-8-23-4-6-3-3-5 1-8 5-5 8-4 11-3z" fill="#9D9D9D"/>
<path transform="translate(666,293)" d="m0 0h14l18 4 14 5 15 9 12 11 8 9 9 15 5 12 4 14 3 18 1 16-1 18-5 24-7 21-9 19-11 19-10 14-1 3h-2v3h-2v6l-19 19-11 9-8 7-14 11-15 12-18 13-27 18-24 15-17 10-8 4-8 1-6-3-6-6-2-7v-6l4-8 9-9 8-7 23-23 7-8 12-14 1-2h2l2-4 13-16 11-16 10-15 10-17 9-16 11-27 5-19 3-20v-26l-3-17-5-14-8-15-11-12-10-6-13-6v-4l9-6 9-4 16-5z" fill="#3E3E3E"/>
<path transform="translate(862,360)" d="m0 0h46l19 3 12 6 10 9 6 7 7 14 2 8v15l-3 13-8 14-6 8-11 16-10 14-13 18-12 17-8 11-12 16-10 13-5 6-5 3-10-1-7-6-1-2v-9l13-48 12-43h2l3-11 7-34v-24l-5-12-7-9-16-8-1-3z" fill="#9D9D9D"/>
<path transform="translate(984,684)" d="m0 0h5l1 1 10 88 2 17v11l-6 3-16 5h-5l-3-17-5-43v-3h-2l-5 27-9 42-3 3-16 5h-5l-8-14-14-27-8-14v-2h-2l2 11 4 39 2 14-1 2-25 7h-2l-2-10-7-57-5-44v-7l8-3 21-6 5 1 5 8 16 29 13 22 5 9h1l6-27 7-30 7-29 2-3z" fill="#9D9D9D"/>
<path transform="translate(36,187)" d="m0 0h118l2 2 5 26v6l-23 10-34 14-16 7h-2v2l9 2 15 6 44 16 17 7 2 3 5 26v4h-120l-5-25v-3h64v-2l-9-3-54-19-5-2-3-13-1-10 9-4 39-15 12-4 2-3h-65l-2-1-2-10z" fill="#9D9D9D"/>
<path transform="translate(658,49)" d="m0 0h17l14 5 11 7 11 11 8 13 5 12 3 13v15l-3 13-6 11-7 8-11 7-9 2h-14l-13-4-11-7-9-8-9-12-6-12-3-9-2-10v-13l4-16 5-9 7-8 10-6z" fill="#9D9D9D"/>
<path transform="translate(288,518)" d="m0 0 4 1 11 10 6 8 1 3-6 16-15 39-6 16 11-7 42-28 4-3 5 1 11 11v2h2l4 5-2 4-38 25-29 19-20 13-11 6-6-7-13-13 3-10 8-21 13-35 2-6-9 5-22 14-12 8-14 9-5-1-9-10-7-8 4-5 85-56z" fill="#9D9D9D"/>
<path transform="translate(592,713)" d="m0 0h13l14 2 13 5 10 7 8 9 4 9 1 5v12l-1 2-8-1-22-6-6-10-5-4-10-3h-14l-10 4-10 9-6 10-3 8-1 11 3 8 7 8 9 4 4 1h13l10-4 8-6v-2l-18-5-13-4 1-7 6-12 8 1 37 9 15 4-2 9-8 16-7 8-9 7-12 6-13 4-19 1-15-2-12-5-9-6-7-7-7-14-1-4v-18l4-13 7-14 8-10 8-8 13-8 12-4z" fill="#9D9D9D"/>
<path transform="translate(639,509)" d="m0 0 3 4 3 1v2l9 3 11 8 9 8 5 8 2 4v8h2v5h-2l-1 4h-2l-1 4-3 1-1 3-3 1-4 5-2 5-18 14-22 15-15 10-24 15-17 10-8 4-8 1-6-3-6-6-2-7v-6l4-8 9-9 8-7 23-23 7-8 12-14 1-2h2l2-4 13-16 11-16z" fill="#9C9C9C"/>
<path transform="translate(843,362)" d="m0 0h8l4 3 12 5 8 9 5 11 1 3v24l-7 34-4 11-1-4 1-2-24 7-23 7-20 8-16 8-19 10-19 12h-2l2-5 11-13 14-18 20-30 11-19 12-23 9-21 4-10 7-4h3v-2z" fill="#3E3E3E"/>
<path transform="translate(442,649)" d="m0 0 6 1 13 7 7 5 5 3-12 36-21 57-6 16-2 3-5-2-19-11-2-4 5-13v-5l-25-15-9-5-6 2-13 8-6-1-21-12 2-4 22-13 18-11 28-17 19-12 15-9zm-9 35-16 10-19 12 1 3 21 12h2l10-25 3-8v-4z" fill="#9D9D9D"/>
<path transform="translate(86,406)" d="m0 0h64l55 1 13 1 3 1 8 16 5 9-1 5-12 10-26 20-18 14-13 10-18 14-4 3-3-1-13-24 4-5 11-8-1-5-8-16-9-17-1-1-22-1-5-8-8-15zm62 26 2 5 8 16 3 5 11-7 11-9 8-6 2-3z" fill="#9D9D9D"/>
<path transform="translate(777,15)" d="m0 0h21l16 3 13 5 14 9 14 12 10 12 8 13 7 17 3 13 1 11v14l-1 11-3 3-5-5-7-10-2-4-5-5-7-5-8-3v-2l-12-1v2h-2v2h-2l-2 6-5 5-5 6-5 1 3-10 2-16-1-11-5-13-8-11-9-8-17-8-23-4-6-3-3-5 1-8 5-5 8-4 11-3z" fill="#3F3F3F"/>
<path transform="translate(1036,156)" d="m0 0h12l9 2 5 3 3 5v10l-5 12-8 12-9 11-15 16-8 8-8 7-13 12-17 13-11 9-18 13-17 12-15 10-17 12-6 1 5-5 17-14 11-9 20-18 15-14 4-5h2l2-4 11-12 8-12 6-13 1-5v-7l-3-6-7-4-14-1-22 2-23 6-34 12-7 2-1-4 8-5 21-11 29-13 19-8 31-11 25-7z" fill="#434343"/>
<path transform="translate(1319,284)" d="m0 0 4 1 9 10 7 8 9 10 9 11 7 7 7 8 12 14 9 10 7 8 9 11-1 7-10 25-2 3-11-2-53-10-52-10-1-3 10-25 4-1 55 12 20 4h6l-14-15-7-8-11-12-7-8-12-13-7-7-6-7 1-5 6-14z" fill="#9D9D9D"/>
<path transform="translate(546,425)" d="m0 0h4l-1 5-16 15-8 7-15 16-10 13-8 12-5 14v7l4 8 8 4 6 1h19l20-4 29-9 22-9 4 2-2 4-19 10-28 13-28 12-19 7-22 7-21 5-5 1h-18l-8-3-5-5-1-2v-9l4-11 8-12 11-13 9-10 19-19 8-7 11-10 14-11 15-12 14-10z" fill="#404040"/>
<path transform="translate(1335,159)" d="m0 0 6 1 15 5 1 1-2 26-2 16 12 3 11 3 1-17 2-19 4-1 16 5 3 2-3 26v11l21 6h2l4-38 3-3 18 5 3 2-4 37-4 33-9-1-84-25-20-6-3-2 7-59 1-10z" fill="#9D9D9D"/>
<path transform="translate(729,730)" d="m0 0h71l1 5-4 16-4 2h-39l-1 9-2 13-1 2h36l2 1-2 16-2 4-37 1-5 26h42l1 5-3 16-1 1-22 1h-50l1-10 13-78 5-29z" fill="#9D9D9D"/>
<path transform="translate(1125,595)" d="m0 0h2v96l5 12 9 21-1 4-16 10-4 3-4-1-8-17-7-16-12-10-20-15-14-11-17-13-2-3 9-7 12-8 4-3 4 2 11 9 13 11 12 9-1-19v-37l11-8 11-7z" fill="#9D9D9D"/>
<path transform="translate(558,277)" d="m0 0 4 1 6 12 2 8 2 16 5 17 8 15 7 9 5 5v2l4 2 7 4 7 2 9 5 12 5 3 3 1 6-3 6-7 6-14 5h-19l-16-5-11-6-10-9-8-11-6-12-4-13-2-15v-10l3-18 4-13 5-12 3-4z" fill="#3F3F3F"/>
<path transform="translate(1181,536)" d="m0 0 4 1 8 11 14 18 28 38 4 5v2l4-1 12-13 10-11 4 2 8 10 2 3-1 4-10 11-7 8-15 16-10 11h-3l-9-12-14-19-9-12-16-21-12-16-10-14 2-4 7-7 7-8z" fill="#9D9D9D"/>
<path transform="translate(1251,441)" d="m0 0 5 1 16 15 8 7 33 31 10 9 16 15 1 4-14 21-5-1-7-7-8-7-8-8-8-7-7-7-8-7-17-16-12-11-7-6-2-5 10-14z" fill="#9D9D9D"/>
<path transform="translate(1036,156)" d="m0 0h12l9 2 5 3 3 5v10l-5 12-8 12-9 11-2 1v-2l-5 1-11-4-7-1-15-9-5-6-3-6-4-7h-2v-2h-7l-3-1v-2l-2-1 30-10 20-5z" fill="#9C9C9C"/>
<path transform="translate(902,517)" d="m0 0 1 2-10 14-12 16-10 13-5 6-5 3-10-1-7-6-1-2v-9l8-30h4l2 5 9-1 5 2 15-1 3-1 1-2 6-1 1-4z" fill="#424242"/>
<path transform="translate(664,155)" d="m0 0h6l4 2 7 1h15l4 2v4l-9 2h-14l-13-4-2-5z" fill="#484848"/>
<path transform="translate(546,425)" d="m0 0h4l-1 5-16 15-8 6-5-3-4 1 2-4 18-13z" fill="#9B9B9B"/>
<path transform="translate(595,505)" d="m0 0 4 2-2 4-19 10-6 2v-2h-2v2l-4-2-2 1v-3l-3 1v-2l20-7z" fill="#919191"/>
</svg>
