<?xml version="1.0" encoding="UTF-8"?>
<svg version="1.1" viewBox="0 0 2048 1165" width="1280" height="1280" xmlns="http://www.w3.org/2000/svg">
<path transform="translate(1058,41)" d="m0 0h18l19 3 26 7 12 7 15 13 11 11 11 15 8 16 6 15 5 19 1 10v16l-2 16-4 17-8 23-10 19-7 11-10 13-9 10-1 2v7l2 13 2 20 1 5 1 17v18l-2 27-6 41-9 37-2 10-1 2 6-2-2-1v-4l5-3 9-2 29-2h46l16 2 14 5 14 8 11 10 7 11 7 16 2 8v20l-3 11-10 19-11 16-24 34-14 19-13 19-12 17-16 21-18 22-9 6h-6l-8-5-6-7v-10l9-35 7-26 8-27 9-32 1-3-12 5-28 7-29 10-26 12-27 14-21 13-16 12-10 8-14 12-15 15-8 7-14 14-11 9-12 10-14 11-17 13-16 12-20 14-16 10-19 12-21 13-17 9-6 2h-10l-6-4-6-7-3-6v-9l5-8 9-10 13-13 8-7 23-23 7-8 9-10 9-11 10-12 12-16 13-18 8-13 13-21 12-23 10-23 7-22 6-22 2-20v-21l-2-19-5-17-7-16-8-13-8-10-10-9-10-5-11-3v-3l-5 2-9 7-5 5-6 7-4 10-1 4v20l4 10 7 8 13 7 11 4 6 5 2 6-3 7-7 6-8 4-13 5-4 1h-16l-15-4-13-6-9-6-10-9-9-11-8-14-6-18-3-15v-22l6-29 5-14 10-19 12-16 9-10 4-5 8-7 13-11 18-12 15-9 25-12 26-10 45-14 32-9 20-6 25-10 16-8 16-9 11-9 10-9 8-11 5-10 5-14 1-7v-14l-4-15-6-12-6-8-10-8-10-6-19-8-26-6-6-3-3-3v-8l6-9 9-4zm-174 360m-2 1m3 0v2l3-1zm-5 1m-2 2-2 2 2 1 5-1-4-2z" fill="#E78F39"/>
<path transform="translate(916,387)" d="m0 0h30l16 4 15 6 15 9 9 7 10 9 11 14 9 16 6 15 7 26 3 22v20l-1 16-6 27-7 24-5 14-3 9-3 6v4l5-2 4-4h2l2-4 8-10h2l2-4 4-4h2l1-4 4-5 3-1 15-23 15-26 15-29 11-25 7-18 2-1-1 6 6-2-2-1v-4l5-3 9-2 29-2h46l16 2 14 5 14 8 11 10 7 11 7 16 2 8v20l-3 11-10 19-11 16-24 34-14 19-13 19-12 17-16 21-18 22-9 6h-6l-8-5-6-7v-10l9-35 7-26 8-27 9-32 1-3-12 5-28 7-29 10-26 12-27 14-21 13-16 12-10 8-14 12-15 15-8 7-14 14-11 9-12 10-14 11-17 13-16 12-20 14-16 10-19 12-21 13-17 9-6 2h-10l-6-4-6-7-3-6v-9l5-8 9-10 13-13 8-7 23-23 7-8 9-10 9-11 10-12 12-16 13-18 8-13 13-21 12-23 10-23 7-22 6-22 2-20v-21l-2-19-5-17-7-16-8-13-8-10-10-9-10-5-11-3v-3l-2-1 2-4 9-6 15-6zm-32 14m-2 1m3 0v2l3-1zm-5 1m-2 2-2 2 2 1 5-1-4-2z" fill="#E0513E"/>
<path transform="translate(1058,41)" d="m0 0h18l19 3 26 7 12 7 15 13 11 11 11 15 8 16 6 15 5 19 1 10v16l-2 16-4 17-8 23-10 19-7 11-10 13-9 10-1 2v7l2 13 2 20 1 5v16l-5-1-1 3v-2l-4-1v2l-10-2-5-2-7-5-2 2-13-9-1-4-4-2v2h-2l-3-5-8-3-6-1-9-6-10-6-5 1-5-3-9-3-9 1-5 2-7-4-12 1-13-5-6-4-5-4v-2l-11-3-14-5-13-4-2-2-8-2-2-1 1-5 8-3 29-9 25-7 20-6 25-10 16-8 16-9 11-9 10-9 8-11 5-10 5-14 1-7v-14l-4-15-6-12-6-8-10-8-10-6-19-8-26-6-6-3-3-3v-8l6-9 9-4z" fill="#E0513E"/>
<path transform="translate(916,387)" d="m0 0h30l16 4 15 6 15 9 9 7 10 9 11 14 9 16 6 15 7 26 3 22v20l-5 30-5 17-6 17-8 16-8 14-3 3-1 2-10 4h-3l-2-2-4 1-12-3-5-4-4-1-2-4-3-1v-2l-4-2-11-7-3-3v-3h-2v-2h-7l-3-6-3-1-2-9-1-10-1-1v-5l-2-1 1-6 1-7 4-15 2-20v-21l-2-19-5-17-7-16-8-13-8-10-10-9-10-5-11-3v-3l-2-1 2-4 9-6 15-6zm-32 14m-2 1m3 0v2l3-1zm-5 1m-2 2-2 2 2 1 5-1-4-2z" fill="#7B273F"/>
<path transform="translate(1350,887)" d="m0 0 5 1 7 58 8 69 3 28v8l-7 3-27 8-5-1-2-13-3-35-4-35-1-6h-2l-1 8-8 41-6 26-5 25-5 3-23 6h-5l-10-18-14-26-10-20-9-14h-1l7 61 4 24v4l-19 7-16 4h-4l-2-8-5-40-7-61-6-47v-7l8-3 19-5 16-6 4 1 9 17 10 17 24 42 11 19 1 1 5-18 13-55 6-24 4-23 3-3 28-8z" fill="#E89039"/>
<path transform="translate(38,199)" d="m0 0h22l142 2 2 4 6 36v6l-9 4-28 12-44 18-15 7-9 2v2l5 1 35 13 39 14 20 8 19 7 3 5 7 35v7l-2 1-29-1-52-1-82-1-2-2-6-33v-3l88-1v-2l-5-1-39-14-45-15-5-5-5-27 5-4 11-5 26-10 32-12 10-5v-1l-90-1-6-32v-7z" fill="#E79039"/>
<path transform="translate(1172,467)" d="m0 0h46l16 2 14 5 14 8 11 10 7 11 7 16 2 8v20l-3 11-10 19-11 16-24 34-14 19-13 19-12 17-16 21-18 22-9 6h-6l-8-5-6-7v-10l9-35 7-26 8-27 9-32 5-18 6-29 1-9v-24l-4-12-7-11-11-7-12-5-11-1-3 2-1 3h7l5 1v1l-17 1 1-2-2-1v-4l5-3 9-2z" fill="#E0513E"/>
<path transform="translate(927,263)" d="m0 0 2 1-1 4 10 2 2 2 13 4 23 8 8 7 9 5 11 3 10-1 7 4 5-2 11-1 9 4 4 2 4-1 15 9 7 4 6 1 6 3 2 5h2v-2l5 2 2 2h-2l4 4 9 6 2-2 10 7 9 1 3 2v-2l4 1 3-1 4 2v18l-2 27-5 36-4 9-6 2-1 2h-6l1-2-7-2 3-2-12-6-1 2-5-5-7-8-2-1v-2l-4-2-4-5-2-1 2 5-5-2-5-5-4-2v-2l-4-2-5-4-3-6-4-4-12-5-12-6-12-4-1-3-14-1-11-2-3-3h-7v-2h-12l-5-3-16-6-10-6-5-5-3-2-1-3-4-3-9 1-8-3-1-3v-3l-3-3-9-4-12-5-9-5v-2l-3-1 2-5 2-6 2-5 4-4 4-1 1-3 28-11z" fill="#E58236"/>
<path transform="translate(386,659)" d="m0 0 4 1 12 13 11 11 1 2v7l-15 39-16 42-6 14 12-6 43-29 22-14 5-4 4 1 9 11 13 12 4 4-7 6-16 10-93 62-13 8-8 6-5-2-11-12-14-13 1-6 12-30 10-27 14-37-6 2-18 11-17 11-22 15-12 8-4 3h-5l-9-10-7-8-10-10 4-4 16-10 39-26 29-19 25-16 19-13z" fill="#E89039"/>
<path transform="translate(807,927)" d="m0 0h15l21 5 19 7 12 8 7 7 6 10 5 17 1 7v8l-1 2h-9l-31-8-5-3-4-9-5-5-10-6-8-2h-18l-11 4-13 9-7 9-8 16-3 10v14l3 8 6 8 10 6 12 4 11 1 11-2 11-5 9-6 2-4-10-3-16-5-16-4-2-2 1-8 8-18 10 1 72 18 3 2-1 6-11 24-8 10-7 7-13 9-12 6-18 6-13 2h-21l-17-4-17-8-13-10-10-12-5-10-3-14v-15l3-15 6-15 9-16 11-12 8-8 15-10 15-6 19-5z" fill="#E89039"/>
<path transform="translate(913,82)" d="m0 0h11l12 2 13 5 11 8 10 9 10 13 8 15 5 17 1 6v19l-4 17-6 12-9 10-7 6-8 4-8 2h-19l-13-3-14-7-12-10-9-11-8-13-5-12-4-17-1-12 2-17 4-13 6-10 8-9 9-6 10-4z" fill="#E0513E"/>
<path transform="translate(600,839)" d="m0 0 5 1 21 12 15 10 1 2-5 11-12 35-20 55-13 36-6 15-4 1-20-12-13-8-1-4 5-10 4-10-1-5-23-13-10-6-11-6-5-3-5 2-5 4-11 6-5 4-4-1-22-12-10-6v-3l13-9 20-12 19-12 29-17 14-9 46-28zm-10 48-18 10-17 11-17 10-1 3 23 14 7 4 4-1 12-30 8-18z" fill="#E89039"/>
<path transform="translate(106,505)" d="m0 0h92l65 1 27 1 4 5 10 21 7 12-1 5-5 4-17 13-14 11-18 14-13 10-27 21-13 10-12 9-9 7-3-1-8-16-8-14-3-4 2-4 19-13 2-3-19-38-7-13-33-1-10-20-8-14zm86 37 9 20 7 13 5-1 18-13 16-12 5-4v-3z" fill="#E79039"/>
<path transform="translate(1812,335)" d="m0 0 4 1 12 13 7 8 9 10 12 14 10 11 9 11 13 14 9 11 13 14 9 11 11 12 5 6-1 7-7 18-5 13-5 10-11-2-32-6-118-22-2-2 7-16 7-21h8l38 7 29 7 33 6 12 3-6-8-8-8-7-8-12-13-14-15-7-8-15-16-7-8-15-16 12-30z" fill="#E89039"/>
<path transform="translate(1833,163)" d="m0 0 8 1 21 7 3 3-5 51v5l7 3 21 6 2 1 2-27 3-24 4-1 25 7 3 2-1 14-5 35-1 3 9 2 23 6 2 1 6-55 1-2 12 2 17 5 2 2-1 18-6 57-2 23-9-1-47-14-103-30-2-4 8-77 2-16z" fill="#E78F39"/>
<path transform="translate(996,952)" d="m0 0h99l-1 9-4 21-4 3h-56l-5 29-1 2 53 1v8l-3 19-2 4h-53l-1 13-4 23 35-1h24l-1 14-2 13-2 3-10 1-55 1h-35l1-11 14-85 7-43 4-22z" fill="#E89039"/>
<path transform="translate(1139,472)" d="m0 0 11 1 12 5 11 7 7 10 4 10 1 4v24l-3 19-6 27-3 7-12 5-28 7-29 10-26 12-27 14h-4v-2h-2l-1-10 9-14 12-17 11-17 15-26 15-29 11-25 7-18 2-1-1 6 13-1 4-1-7-1 1-4z" fill="#7B273F"/>
<path transform="translate(1544,765)" d="m0 0h2v133l4 11 8 17 8 19-1 4-11 6-17 12-5-1-5-8-11-26-7-13-8-7-16-12-30-23-13-10-19-14-3-2 1-4 17-11 16-11 4-1 11 9 10 9 14 11 15 13 2 1-1-14-1-44v-19l6-5 15-9 12-9z" fill="#E89039"/>
<path transform="translate(1377,215)" d="m0 0h18l11 3 8 7 2 4-1 9-8 17-9 13-10 13-14 15-19 19-8 7-13 12-14 11-12 10-19 14-21 16-19 13-15 11-16 11-9 6-5-1 2-4 19-14 16-13 11-9 16-13 8-7 9-9h2l2-4 11-11 9-11 7-8 10-14 6-14 1-4v-13l-4-9-8-4-5-1h-26l-25 5-20 6-26 9-19 8-4-1 1-5 22-12 16-8 37-17 23-10 35-12 29-8z" fill="#E0523E"/>
<path transform="translate(1172,467)" d="m0 0h46l16 2 14 5 14 8 11 10 7 11 7 16 2 8v20l-3 11-10 19-11 16-6 8-2-4-3-7-2-4h-2v-2l-3-1v-2l-3-1-4-5-14-10-7-6-24-9-4-4-4-1-2 1 1-18v-12l-2-12-1-5h-2l-6-10-5-5-10-6-10-4-11-1-3 2-1 3h7l5 1v1l-17 1 1-2-2-1v-4l5-3 9-2z" fill="#E58236"/>
<path transform="translate(770,547)" d="m0 0 4 1v6l-7 8-15 14-8 7-15 15-9 11-9 12-11 18-4 10-1 7 3 9 6 7 10 4 5 1h20l26-6 19-5 38-14 7-3h6l1 5-8 5-33 16-29 13-27 11-28 10-28 9-21 4-20 2-12-1-8-5-4-4-1-3v-9l5-13 8-14 14-18 11-12 21-21 8-7 7-7 8-7 14-12 17-14 19-14 16-12z" fill="#A12F41"/>
<path transform="translate(1622,683)" d="m0 0 4 2 10 14 14 18 14 19 16 21 12 16 11 15 7-6 14-15 7-8 4-5 4-2 5 4 6 10 8 8-2 5-8 8-7 8-10 11-7 8-16 17-7 7-4 5-4-2-7-8-14-19-14-18-8-11-16-21-9-12-14-19-10-13-5-6 1-5 12-12 7-8 4-5z" fill="#E89039"/>
<path transform="translate(784,410)" d="m0 0 10 1v2l4 2 5 3 6 17 9 16 9 13 10 8 9 4 7 3 9 6 10 4 10 5 4 5 1 4-3 7-7 6-8 4-13 5-4 1h-16l-15-4-13-6-9-6-10-9-9-11-8-14-6-18-3-15v-22l2-7 7 1 4-3 7-1z" fill="#7C273E"/>
<path transform="translate(1719,553)" d="m0 0 5 1 8 7 9 9 8 7 13 12 10 9 15 14 8 8 8 7 9 9 8 7 12 11 9 8 1 3-14 22-6 9h-4l-12-11-10-9-15-14-17-16-7-7-8-7-17-16-29-27-4-3 1-5 9-12 9-15z" fill="#E89039"/>
<path transform="translate(1058,41)" d="m0 0h18l19 3 26 7 12 7 12 10 1 5-11-1-2 2 1 10 2 12v9l-3 15-5 15-6 9-11 3h-1l-5-23-7-14-6-8-10-8-10-6-19-8-26-6-6-3-3-3v-8l6-9 9-4z" fill="#7C273E"/>
<path transform="translate(936,521)" d="m0 0 4 3 6 4 5 12 8 7 5 5 13 9 8 6 12 6 3 3 10 5 4 3 3 3v4l4-1v2l9 2 3-3-1 6-8 16-9 16-3 3-1 2-10 4h-3l-2-2-4 1-12-3-5-4-4-1-2-4-3-1v-2l-4-2-11-7-3-3v-3h-2v-2h-7l-3-6-3-1-2-9-1-10-1-1v-5l-2-1 1-6 1-7 4-15 2-20z" fill="#A12F41"/>
<path transform="translate(929,269)" d="m0 0 9 1 2 2 13 4 23 8 8 7 9 5 11 3 10-1 7 4 5-2 11-1 9 4 4 2 4-1 15 9 7 4 6 1 6 3 2 5h2v-2l5 2 2 2h-2l4 4 9 6 2-2 10 7 9 1 3 2v-2l4 1 3-1 4 2v18l-1 18-3 9-5-1-6-5-1-4-8-7v-2l-5-2-9-9-2-4v-2l-10-6-11-6-1 2-5-2-5-3-4 1-16-8-9-5-5-4-12-3-1 2-13-8-10-5-12-5-9-5-20-9-10-3-2-4-11-1-6-3-3-4z" fill="#DF7738"/>
<path transform="translate(795,765)" d="m0 0 7 2 5 2 12-2 10 9 5 1 5 4 6 2v1l5 1-1 3v3l-5 5-16 10-21 13-17 9-6 2h-10l-6-4-6-7-3-6v-9l5-8 9-10 13-13 8-7z" fill="#E58236"/>
<path transform="translate(1172,467)" d="m0 0h46l16 2 14 5 14 8 11 10 7 11 7 16 2 8v20l-3 11-2 2 1-10-7-10-6-9-4-3-8-3 3-2-6-3-1-4h-2v-2l-5 2-1-2 3-3-5-2-11-10-11-6-4-3-8-2-9-1-5-2-1 4-6-3-2-6 2-1-6-9h-2v-2l-7 2-2 3-4-1v-3l-2-1z" fill="#E78F38"/>
<path transform="translate(640,662)" d="m0 0 5 1 2 1v2l5 2 6 2 8 6 5 4 4 8 2 5 7 10 4 5v6l-2 3-18 4-13 2-18 1-9-2-6-4-4-4-1-3v-9l5-13 8-14z" fill="#7C283E"/>
<path transform="translate(815,323)" d="m0 0h2l1 6-6 13-4 16-4 11-3 13v19l7 27 1 6h3l5 13 5 5 4 6 9 8 3 2h7l6 10-11-3-13-10-8-11-10-17-4-10-2-9-5-2-4-3v-2h-10l-1 1-7 1-5 3-6-2 1-9 5-20 11-23 8-11 10-13 9-10z" fill="#E0513E"/>
<path transform="translate(932,549)" d="m0 0 4 1 7 17 4 12h2v2l2 1-1 1 9 7 7 6 8 4 8 6 3 3 8 6 6 5 1 5 5 2 10 1-4 6-10 4h-3l-2-2-4 1-12-3-5-4-4-1-2-4-3-1v-2l-4-2-11-7-3-3v-3h-2v-2h-7l-3-6-3-1-2-9-1-10-1-1v-5l-2-1 1-6 1-7z" fill="#B43043"/>
<path transform="translate(1322,317)" d="m0 0 4 1 4 4v3l6 2 1 4-14 12-14 11-21 16-19 14-18 13-20 14-22 15-5-1 2-4 19-14 16-13 11-9 16-13 8-7 9-9h2l2-4 11-11 9-11 7-8z" fill="#B63243"/>
<path transform="translate(784,410)" d="m0 0 10 1v2l4 2 5 3 6 17 9 16v3l-2-4-20-2-1 1-9 1v1l-9 3-3 3-1 3-3 3v2h-2l-5-22v-22l2-7 7 1 4-3 7-1z" fill="#A12F41"/>
<path transform="translate(1186,508)" d="m0 0 2 4 4 12 6 9v3l10 3 8 3 1 3h3l8 4 9 4 7 6 9 2 6 2 4 1 7 10 2 6-3 7-10 14-2-4-3-7-2-4h-2v-2l-3-1v-2l-3-1-4-5-14-10-7-6-24-9-4-4-4-1-2 1 1-18z" fill="#DF7738"/>
<path transform="translate(770,547)" d="m0 0 4 1v6l-7 8-15 14-8 7-15 15-9 11-9 12-4 5-1-4-7 1-6-3-3-4-6 2 6-7 10-9 11-9 9-8 17-13 19-14z" fill="#E0533E"/>
<path transform="translate(829,649)" d="m0 0h6l1 5-8 5-33 16-29 13-22 9h-3l-4-9-1-2v-6l3-3 26-6 19-5 38-14z" fill="#DF533E"/>
<path transform="translate(783,776)" d="m0 0v3 7l2 2v6l-1 4h-2v9l-2 4 3-1 4 4 3 1h15l10-2-3 3-22 12-6 2h-10l-6-4-6-7-3-6v-9l5-8 9-10z" fill="#E78F38"/>
<path transform="translate(1045,543)" d="m0 0h1v8l-6 27-7 24-5 14-3 9-3 6v4l5-2 4-4h2l2-4 8-10h2l2-4 4-4h2l1-4 4-5h2l-2 4-12 18-1 6 1 4-1 2h2v2l3 1-17 10-18 13-11 9-9 8-2-1 7-8 4-12 12-22 12-25 2-8 7-19 6-25z" fill="#DF7638"/>
<path transform="translate(1064,592)" d="m0 0 6 5 6 1 5 3 5 5 2 4v2l3 2-23 11-17 9h-4v-2h-2l-1-10 9-14z" fill="#A23041"/>
<path transform="translate(688,615)" d="m0 0 4 2 2 3 5 2 8-1 1 2-3 7-8 16-3 9-5-3-8-4-7-3v-2l-4-2-6-4 6-7 13-12z" fill="#B53243"/>
<path transform="translate(1118,51)" d="m0 0 5 1 11 7 11 9 1 5-11-1-2 2 1 10 2 12v9l-3 15-5 15-6 9-11 3h-1l-5-23-5-12 6 2 5 5 1 4 6 1 1 1 8-1 2-4 3-8 1-4v-20l-7-21z" fill="#A43042"/>
<path transform="translate(705,673)" d="m0 0 14 4 19 1-1 2v6l4 8v4l-24 9h-2l-4-14-4-9-2-9z" fill="#B53143"/>
<path transform="translate(1253,258)" d="m0 0 13 4 3 2-1 3-26 8-23 8-19 8-4-1 1-5 22-12 16-8 13-6z" fill="#BA3743"/>
<path transform="translate(1276,371)" d="m0 0 5 1-1 4-36 26-16 11-19 13-5-1 2-4 19-14 16-13 11-9 16-13z" fill="#852C3E"/>
<path transform="translate(802,767)" d="m0 0 5 2 12-2 10 9 5 1 5 4 6 2v1l5 1-1 3v3l-2 2-1 2-9 2-4-1v-2l-7-1-1-4-10-7-5-5-5-2-3-4z" fill="#DF7738"/>
<path transform="translate(1301,339)" d="m0 0 3 1 3 4 7 3-1 4-32 24-1-2-4-1h-6l6-7 9-9h2l2-4 11-11z" fill="#A63441"/>
<path transform="translate(784,410)" d="m0 0 10 1v2l4 2 5 3 1 5-6-3-11 3-10 3-1 3-9 4-2-1v-2h-2v-9l2-7 7 1 4-3 7-1z" fill="#B43143"/>
<path transform="translate(1154,468)" d="m0 0h14l2 1 5 13 6 9 3 7-1 3v-2h-2l-6-10-5-5-10-6-10-4-11-1-3 2-1 3h7l5 1v1l-17 1 1-2-2-1v-4l5-3 9-2z" fill="#DF7338"/>
<path transform="translate(1049,612)" d="m0 0v3l-4 7 1 8-1 2h2v2l3 1-17 10-15 11-5 1 2-5 8-9 9-11 9-10z" fill="#E0523E"/>
<path transform="translate(1030,48)" d="m0 0 2 1-4 4v7l6 7 2 3 9 5 1 2-10-1-11-3-5-3-2-2v-8l6-9z" fill="#A53341"/>
<path transform="translate(1118,51)" d="m0 0 5 1 11 7 11 9 1 5-11-1-4 5-3-5-9-19z" fill="#B63343"/>
<path transform="translate(810,434)" d="m0 0h2l5 13 5 5 4 6 9 8 3 2h7l6 10-11-3-13-10-8-11-6-10z" fill="#DF6A3A"/>
<path transform="translate(824,315)" d="m0 0h2v7l-2 5h-2v2h-2l-2 5-4 7-3 11h-1l1-10 6-13-1-7z" fill="#E48036"/>
<path transform="translate(1128,129)" d="m0 0 1 3-6 11-3 2-10 2-2-13 6 5 7-1 5-4z" fill="#B43143"/>
<path transform="translate(1045,543)" d="m0 0h1v8l-6 27-5 18-5 8-1-3 6-16 5-16z" fill="#DF643B"/>
<path transform="translate(1139,472)" d="m0 0 11 1 6 2v1l-17 1-4 1 1-4z" fill="#A12F42"/>
<path transform="translate(829,467)" d="m0 0 4 2 7 5 12 4 3 4-8-2-9-4v-2l-5-2z" fill="#A53341"/>
<path transform="translate(883,401)" d="m0 0 2 1v2l4-1v2h-4v2l-5 1-1 2-5 1-1-5 7-3h2zm-5 4-2 2 2 1 5-1-4-2z" fill="#DD743A"/>
<path transform="translate(1132,472)" d="m0 0h1l1 7h13v1l-17 1 1-2-2-1v-4z" fill="#E48438"/>
<path transform="translate(1134,471)" d="m0 0h12l4 2h-11l-3 2-1 3h7v1h-8l-1-7z" fill="#E0573D"/>
<path transform="translate(1046,618)" d="m0 0 2 2v10l1 3 2 1h-4v-2h-2l-1-10z" fill="#B53043"/>
<path transform="translate(810,434)" d="m0 0h2l5 13 2 5-4-4-5-12z" fill="#E0683A"/>
<path transform="translate(1118,51)" d="m0 0 4 1 3 5v6l-4-5z" fill="#A33141"/>
</svg>
