<?xml version="1.0" encoding="UTF-8"?>
<svg version="1.1" viewBox="0 0 1220 1000" width="1280" height="1280" xmlns="http://www.w3.org/2000/svg">
<path transform="translate(681,55)" d="m0 0h22l22 4 13 5 13 7 10 8 10 9 10 12 9 15 6 14 5 19 2 12v19l-4 23-7 23-13 25-12 17-9 10-2 5 4 25 2 21v37l-3 27-5 26-8 32-1 3 9-3 12-2 11-1h55l17 3 16 8 9 7 9 9 8 15 3 13v15l-4 16-5 10-28 40-13 19-11 15-10 14-13 18-13 17-10 13-7 7-2 1h-10l-6-3-4-5-1-3v-9l11-43 13-46 5-18v-3l-32 9-30 10-25 11-23 12-24 16-13 10-14 12-12 12h-2v2l-8 7-16 15-11 9-13 11-30 23-23 16-15 10-17 11-21 13-18 11-4 2h-12l-7-4-5-8-2-6 1-7 6-10 7-7 8-7 28-28 7-8 11-12 20-25 10-13 18-27 12-20 8-15 9-19 9-27 5-22 1-9v-32l-3-16-7-21-6-11-10-13-8-7-11-5-8-2h-8l-8 4-5 5-6 9-3 10v13l4 11 7 9 10 5 14 5 5 5 1 5-3 7-7 7-13 5-10 2h-16l-16-4-14-8-9-7-9-10-8-13-5-12-4-17-1-8v-13l4-24 6-18 10-19 14-19 16-16 17-13 15-10 20-11 28-11 15-6 30-9 24-7 25-7 28-11 16-8 14-9 9-7 6-5 9-13 7-15 2-7v-23l-5-14-9-14-7-7-11-7-15-6-25-5-6-3-4-6 1-6 7-8 10-5z" fill="#64ACDA"/>
<path transform="translate(556,369)" d="m0 0h15l13 2 12 4 20 9 10 7 9 7 12 13 9 14 6 12 6 17 4 15 2 19v17l-2 23-5 21-8 22-8 18-8 14-6 11-7 11-1 4 7-6 6-8h2l2-4h2l2-4 7-8 8-10 16-21 13-20 6-10 3-6 9-15 7-12 8-17 5-11 8-21 4-8h2l-1 5 9-3 12-2 11-1h55l17 3 16 8 9 7 9 9 8 15 3 13v15l-4 16-5 10-28 40-13 19-11 15-10 14-13 18-13 17-10 13-7 7-2 1h-10l-6-3-4-5-1-3v-9l11-43 13-46 5-18v-3l-32 9-30 10-25 11-23 12-24 16-13 10-14 12-12 12h-2v2l-8 7-16 15-11 9-13 11-30 23-23 16-15 10-17 11-21 13-18 11-4 2h-12l-7-4-5-8-2-6 1-7 6-10 7-7 8-7 28-28 7-8 11-12 20-25 10-13 18-27 12-20 8-15 9-19 9-27 5-22 1-9v-32l-3-16-7-21-6-11-10-13-8-7-11-5-8-2h-8l-8 4-5 5-3 1 2-6h2l2-4 8-7 4-4 10-6 15-6 7-3z" fill="#2A8ABF"/>
<path transform="translate(548,374)" d="m0 0h30l15 3 13 5 15 9 11 9 12 12 9 14 8 16 5 16 4 21v35l-5 28-6 20-7 16-6 8-4 1v2l-5 2-12 1-7-3-5-5-2-1v-2h-2l-6-8-13-8-7-4-2-4-10-5h-3v2l-5 1-2 4-3 3h-2l1-7 7-23 4-18 1-9v-32l-3-16-7-21-6-11-10-13-8-7-11-5-8-2-9-1 1-4 5-4 11-6 17-7z" fill="#105378"/>
<path transform="translate(681,55)" d="m0 0h22l22 4 13 5 13 7 10 8 10 9 10 12 9 15 6 14 5 19 2 12v19l-4 23-7 23-13 25-12 17-9 10-2 5 4 25 1 10v31l-3-1-2-10v-7l-3-14-2-15v-6l-5-5-6-4-5-5-8-3-5-3-4-4-3-1v-2l-3-1-5-5-5-12-4-4-6-5-11-4h-9l-1 1h-12l-10 1-11 1v2h-9l1-2 22-8 23-10 13-8 14-10 7-6 9-13 7-15 2-7v-23l-5-14-9-14-7-7-11-7-15-6-25-5-6-3-4-6 1-6 7-8 10-5z" fill="#2A8ABF"/>
<path transform="translate(777,447)" d="m0 0h55l17 3 16 8 9 7 9 9 8 15 3 13v15l-4 16-5 10-28 40-13 19-11 15-10 14-13 18-13 17-10 13-7 7-2 1h-10l-6-3-4-5-1-3v-9l11-43 13-46 5-18v-5l2-1 3-8 5-27 2-17-1-16-2-9-6-10-9-8-8-4-11-4-1-2z" fill="#64ACDB"/>
<path transform="translate(845,814)" d="m0 0h5l2 5 8 50 8 40 4 27-5 3-21 7-7 1-1-10-6-24-2-2-3 7-5 25-2 12-22 9-5-1-6-10-11-17-7-11-2-1 1 14 5 29v5l-10 5-15 6h-5l-4-15-8-37-8-45-4-19v-4l10-5 23-9h5l16 28 14 22 7 10 4 6h1l7-45 4-37 2-5 12-6z" fill="#65ACDA"/>
<path transform="translate(104,67)" d="m0 0 4 2 16 12 14 10 11 8 19 14 16 11 18 13 2 3-8 20-7 13-1 1h-7l-25-7-28-8-17-4 8 13 18 27 16 21 7 10 1 4-5 12-11 20h-4l-12-8-20-14-18-14-11-9-18-14-16-10-3-2 1-5 8-14 6-11 4 1 11 9 28 20 2 1-2-5-14-20-11-16-7-9 1-6 9-19 3-1 18 5 23 6 7 1v-2l-4-2-18-13-12-8-7-5 2-6 9-17z" fill="#65ACDB"/>
<path transform="translate(546,94)" d="m0 0h16l12 3 9 4 9 6 11 10 10 13 7 14 3 11 1 6v21l-3 13-5 10-9 10-9 7-10 4-5 1h-12l-13-3-15-8-13-11-9-12-8-15-4-14-1-4v-23l3-12 6-12 9-10 10-6z" fill="#2A8ABF"/>
<path transform="translate(132,487)" d="m0 0h5l4 9 5 19v5l-13 11-10 8-14 12-10 9-7 6 26-1 33-4 7-1 4 8 6 23-1 3-11 2-101 10h-10l-3-5-5-18-1-9 11-10 8-7 13-11 14-13 8-7-13 1-42 4h-12l-5-18-3-13 4-1 58-5z" fill="#65ACDB"/>
<path transform="translate(298,789)" d="m0 0h26l12 3 16 8 10 8 8 9 5 10 2 6v16l-4 12-2 3-5-2-13-10-11-8v-9l-4-7-7-6-7-3-5-1h-12l-11 4-9 7-7 8-4 8v11l6 9 10 7 9 3h11l7-2-5-5-12-8-8-6 1-4 14-14 5 2 14 9 15 10 18 10 4 3-1 4-16 16-11 7-13 4-12 2h-13l-15-3-14-7-11-8-7-7-8-13-3-11v-12l4-13 6-11 7-8 7-7 11-7 12-5z" fill="#65ACDB"/>
<path transform="translate(754,450)" d="m0 0h7l14 5 10 7 8 9 4 9 2 17-1 13-3 20-4 19-3 6h-2v2l-32 9-30 10-25 11-23 12-9 6-3-1 3-6 3-1 1-7 6-5 2-5 8-13h2l2-6 8-13 11-19 12-22 11-23 11-28 3-4z" fill="#105378"/>
<path transform="translate(971,215)" d="m0 0h22l10 4 5 6 1 2v9l-5 13-8 13-11 14-9 10-5 6h-2l-2 4-12 11-7 7-8 7-13 11-11 9-15 12-19 14-16 11-17 12-16 11-11 7-5 1 1-4 9-8 19-14 15-13 11-9 9-9 8-7 19-19 9-11 7-10 8-14 3-11v-8l-4-7-10-5-7-1h-11l-18 2-23 6-46 16-6 2-2-4 5-4 24-13 30-14 28-12 24-9 29-9z" fill="#2A8ABF"/>
<path transform="translate(213,671)" d="m0 0 6 1 6 7 11 17 3 5-1 4-8 10-26 26-7 8-9 10-7 8-9 10-17 17-4-2-12-17-6-10 1-5 10-8 2-3-8-14-13-17-4-1-16 3-5-1-13-17-7-9v-4l30-3 60-9zm-32 36-26 5v4l3 4 5 9 4 1 17-16 4-5v-2z" fill="#64ACDB"/>
<path transform="translate(419,521)" d="m0 0 5 1-1 5-7 7-8 7-12 11-9 9-7 8-9 10-13 19-5 12-1 5v9l4 8 10 5 5 1h19l20-3 20-6 39-14 4-2 5 1 1 5-19 9-19 10-39 17-28 11-19 6-30 8-13 2h-18l-9-4-5-5-2-5 1-9 5-12 11-16 9-11 9-10 6-7h2l2-4 7-7 8-7 10-9 11-9 13-11 14-11 15-12 13-9z" fill="#105479"/>
<path transform="translate(16,283)" d="m0 0 5 2 24 15 27 18 18 13 23 15 15 9 3 2v37l-3 2-24 3-45 3-43 4h-8v-12l2-21 1-1 18-1 2-15 1-14v-12l-15-9-4-2 2-26v-8zm41 64-2 22 31-2 4-2-9-6-22-12z" fill="#65ACDB"/>
<path transform="translate(766,448)" d="m0 0h20l1 2h-6v2l-2 1 8 7 3 1 7 10 4 10 1 11 2 7-2 15 1 7v23l1 9 5 4 7 3 8 4 4 4 5 2 7-1 12-3 10-1v-2l6-5 4-6 6-5 3-1-1 4-16 23-13 19-10 14-8 11-10 14-13 18-13 17-10 13-7 7-2 1h-10l-6-3-4-5-1-3v-9l11-43 13-46 5-18v-5l2-1 3-8 5-27 2-17-1-16-2-9-6-10-9-8-8-4-11-4-1-2z" fill="#2A89BE"/>
<path transform="translate(1055,223)" d="m0 0 29 9 40 11 49 14 11 3 2 2 7 32-1 5-12 6-20 9-28 12-21 8-25 12-6 2-2-6-4-26v-5l34-12 29-12 9-4 1-3-17-4-40-10-27-7-3-5-4-23z" fill="#66ADDB"/>
<path transform="translate(451,848)" d="m0 0 8 1 47 13 16 5 5 2-1 7-9 16-3 3-6-1-32-9h-4l-8 17 30 8 7 3-9 19-2 4-9-2-30-10-3 9-4 9-2 4 39 9 3 1-1 6-9 17-1 1-8-1-43-12-23-5-1-3 21-42 12-27 17-36z" fill="#65ACDB"/>
<path transform="translate(1105,72)" d="m0 0 3 1 10 19 14 24 7 11 7 10v4l-21 8-36 12-26 9-22 8-9 3-4-1-7-10-14-25-10-17-6-11v-2l23-8 4-1 10 19 10 18 6-1 13-5 1-2-13-21-7-11 3-2 20-7h3l14 27 4 6 6-1 15-6-2-5-10-17-8-11-2-5 10-5z" fill="#65ACDB"/>
<path transform="translate(974,705)" d="m0 0h3l2 8 3 45 4 38 3 12 12 19 6 9 1 4-11 11-11 9h-4l-14-24-7-10-24-14-26-14-16-7-8-5 1-4 7-7 8-7 9-8 6-1 11 9 16 11 11 7-1-9-8-43 1-5 10-10 8-7z" fill="#65ADDB"/>
<path transform="translate(425,361)" d="m0 0 2 1-1 4h-2l1 9 1 4 6 3v2h2v2h2v3l4 1 5 5 5 10 4 11 2 7 12 17 5 4 1 3 4 2 1 2 4 2 3 3 11 3 10 5 14 5 5 5 1 5-3 7-7 7-13 5-10 2h-16l-16-4-14-8-9-7-9-10-8-13-5-12-4-17-1-8v-13l4-24 6-18z" fill="#105479"/>
<path transform="translate(681,55)" d="m0 0h22l22 4 13 5 13 7 10 8 5 5-8-2-3-3-4-1-1 7 3 10v26l-2 11h-2l-2 8h-2l-1 4-5 8-2 2-2 5-2 2h-4l-1-18-5-15-7-12-9-10-10-7-17-7-25-5-6-3-4-6 1-6 7-8 10-5z" fill="#105479"/>
<path transform="translate(1067,509)" d="m0 0 5 1 25 13 19 10 26 13 15 7 6-37 1-2 9 3 16 9-2 10-10 37-5 20-1 2-5-2-23-11-41-18-16-8-19-9-8-5 4-19z" fill="#66ADDB"/>
<path transform="translate(488,682)" d="m0 0 3 2 1 11 3 3 2 12 2 2 2 6 1 4-1 3h2v3h-2l-2 4-2 3h2v2l-3 1-1 4-17 11-21 13-18 11-4 2h-12l-7-4-5-8-2-6 1-7 6-10 7-7 4-2 2 1 2-4 5-3h2v-2h2v-2h2v-2l8-7 7-6h2l2-4 9-11 8-6h2l1-3z" fill="#63ABDA"/>
<path transform="translate(1081,391)" d="m0 0 16 4 26 6 31 6 44 11 4 2v15l-2 18-23-3-63-14-25-5-9-3-1-1v-24l1-11z" fill="#64ACDB"/>
<path transform="translate(546,94)" d="m0 0h16l12 3 9 4 9 6 6 5v4l2 1 3 5 5 5v4h2l5 9v5l-1 2-1 9-3 3-7 1-6-2-9-1-10-4-4-3-9-3-3-5-12-3-5-2-5-4-1-4-5-1-1-4-7-1-1-7 2-1-1-2 3-5 3-1 6-8h5l-1-4z" fill="#63ABDA"/>
<path transform="translate(669,473)" d="m0 0h1l1 5v39l-4 23-6 21-11 25-12 21-3 4-3 6h-15l-5-2-7-1-2-3-8-4-15-15-6-3h-3l-9-6-3-3-5 1-3 1v2l-7 7-3-1 8-17 5-10 2-3v2l6-5 3-3h3v-2l3-1 10 5 2 5 6 2 10 7 5 3 5 6v2h2v2l5 2 5 5 7 1 9-1 5-1v-2l5-3 5-8 7-16 6-22 4-24z" fill="#186FA1"/>
<path transform="translate(1075,630)" d="m0 0 4 1 11 10 8 7-1 5-16 27-12 20-10 18h-4l-13-11-8-7 2-6 9-15 11-18 14-25z" fill="#63ABDA"/>
<path transform="translate(571,920)" d="m0 0h79l-1 13-3 15-3 2-53 1h-25l1-11 4-19z" fill="#64ACDB"/>
<path transform="translate(971,288)" d="m0 0 2 1-2 3h-2l-2 4-12 11-7 7-8 7-13 11-11 9-15 12-19 14-16 11-17 12-16 11-11 7-5 1 1-4 9-8 19-14 15-13 11-9 9-9 8-7 19-19 9-11 7-10 6-9 3 1 2 7 3 1 5-1 7-1 4-3h4v-3h4v-3l5-1v-2z" fill="#14587E"/>
<path transform="translate(489,292)" d="m0 0 3 1-5 4-4 2-5 5-3 1-2 4-5 5-3 1-2 5-2 1-1 4h-2l-6 18-4 20v22l3 17 5 14 11 19 11 12 6 4h6l6 8-10-2-4-4-4-2-1-2-4-2-3-5-5-5-8-11-3-5-3-9-4-11-5-8-3-3-3-1v-3h-2v-2h-2l-3-3-5-3v-8l-1-2 1-2h2l-1-6 9-16 13-17 15-15 17-13z" fill="#2A8ABF"/>
<path transform="translate(213,671)" d="m0 0 6 1 6 7 11 17 3 5-1 4-8 10-26 26-7 8-9 10-7 8-9 10-17 17-4-2-12-17-6-10 1-5 4-3 2 1-2 3v5l14 18 2 1 8-7 7-8 10-9 3-4h2v-2l8-7 2-3h2v-2l8-7 10-12 5-5h2l1-3h2l2-4 6-9-1-8-11-13-4-4h-9l-24 3-12 2-27 4-30 2-17 2-7 3-1 6 1 4-6-5-4-6v-4l30-3 60-9z" fill="#9C6B83"/>
<path transform="translate(1081,391)" d="m0 0 16 4 26 6 31 6 44 11 4 2v2l-27-4-6-2-14-3-33-8-30-6h-6v25l16 4 21 5 16 3 16 4 15 3 1 1 14 3 14 4v1l-15-1-26-5-38-9-31-6-9-3-1-1v-24l1-11z" fill="#9D6A83"/>
<path transform="translate(888,241)" d="m0 0h5l-2 1v6l-2 1 4 4v2h2l1 3-5 2-19 4-36 12-20 7-6 2-2-4 5-4 24-13 30-14z" fill="#1A70A2"/>
<path transform="translate(451,848)" d="m0 0 8 1 47 13 16 5 5 2-1 7-9 16-3 3-6-1-6-2 2-2 9-1 3-5 3-7v-4l-13-4-11-3-30-8-8-3-4 1-10 19-11 23-7 13-6 12-7 18-6 12-1 4 3 6-9-1-1-3 21-42 12-27 17-36z" fill="#9D6982"/>
<path transform="translate(473,613)" d="m0 0 5 1 1 5-19 9-19 10-39 17-4 1v-2l-3-1 1-10 1-2h2v-4l19-4 35-12z" fill="#2C8BC0"/>
<path transform="translate(571,920)" d="m0 0h79l-1 13-3 15-3 2-53 1h-25l1-11 4-19zm5 6-3 5-2 7v7l5 2h56l7-1 4-6 1-3v-10l-1-1z" fill="#9E6A82"/>
<path transform="translate(1075,630)" d="m0 0 4 1 11 10 8 7-1 5-16 27-12 20-10 18h-4l-13-11-8-7 2-6 9-15 11-18 14-25zm1 7-8 10-6 10-6 11-8 14-7 12-1 5 2 4 12 6 5-1 6-9v-2h2l11-17 7-12 5-13v-6l-6-8-4-4z" fill="#9E6B83"/>
<path transform="translate(419,521)" d="m0 0 5 1-1 5-7 7-8 7-12 11-9 9-7 8-2 1-3-1-1 4h-3l-3 4h-2l-1 3-5-1-1-1v-5l4-3 2-5 3-3-1-2 14-11 16-13 17-12z" fill="#2B8ABF"/>
<path transform="translate(845,814)" d="m0 0h5l2 5 8 50 8 40 4 27-2 2h-4l1-6-3-19-5-27-8-44-5-18-1-1h-6l-14 6-8 4-3 6-3 18-3 2v-9l3-21 8-5z" fill="#9E6C84"/>
<path transform="translate(556,369)" d="m0 0h15l13 2 12 4 20 9 10 7 9 7 12 13 9 14 6 12-1 5-2-3-9-17-9-12-12-12-11-8-12-7-17-6-11-2h-30l-15 5-13 6-10 6-2 2v4l-8 4-5 5-3 1 2-6h2l2-4 8-7 4-4 10-6 15-6 7-3z" fill="#2481B5"/>
<path transform="translate(156,560)" d="m0 0 3 1 4 11 5 19-1 3-11 2-101 10h-10l3-3 58-7 27-3 23-3 4-2v-6l-4-14-5-5v-2z" fill="#9D6C84"/>
<path transform="translate(425,361)" d="m0 0 2 1-1 4h-2l1 9 1 4 6 3v2h2v2h2v3l4 1 5 5 5 10 4 11-1 2-4-6-8-5-11-3-6-5-4-5v-6l-4-2 3-12 5-12z" fill="#186EA0"/>
<path transform="translate(366,561)" d="m0 0 3 1-3 3-2 7-5 1 2 6h4l6-7 3 1 1-4h3l-2 4-10 13-10 15v-2l-4 2h-3v-2l-9-2-2-6 3-3h2l3-6h2v-2l-3-1 15-13z" fill="#1970A2"/>
<path transform="translate(73,210)" d="m0 0 4 2 19 13 17 13 11 7 1 3 6 2 5 4 6 1 2-1 3-7 4-8 3-8v-8l-5-8 1-2 9 11 2 6-5 12-11 20h-4l-12-8-20-14-18-14-11-9-7-6z" fill="#9F6E86"/>
<path transform="translate(971,288)" d="m0 0 2 1-2 3h-2l-2 4-12 11-7 7-7-1-1 2-3 1-2 2h-2l-1 2-6 1-2-7-1-3 2-4-1-2 6-9 3 1 2 7 3 1 5-1 7-1 4-3h4v-3h4v-3l5-1v-2z" fill="#1A70A2"/>
<path transform="translate(861,253)" d="m0 0 4 1h-2v2l-5 1-2 6-5 3h-2l-1 6-32 11-6 2-2-4 5-4 24-13z" fill="#155C83"/>
<path transform="translate(390,638)" d="m0 0h9v3h-2l-1 12 2 1-1 3-12 5-5-2v-2l-3-1v-2h-2l-1-11 1-2h2l1-3z" fill="#186FA2"/>
<path transform="translate(183,125)" d="m0 0 5 2 14 10 2 3-8 20-7 13-1 1h-7l-25-7-5-2v-1l17 1 16 1 5-3 4-9 3-10-2-8-9-7z" fill="#9D6B84"/>
<path transform="translate(733,481)" d="m0 0 1 3-12 25-12 22-13 22-8 14h-2l-2 5-7 11-1 3-5 4-2 7-3 2-3 8-12 8-4 1 2-5h3l1-4 4-5 5-7h2l2-4 5-7h2l2-5 13-18 12-20 13-22 14-27z" fill="#1970A2"/>
<path transform="translate(751,78)" d="m0 0 5 1 5 3 7 3 10 11 10 15 3 7h-3l-3-5-2-1-4-7-4-4v-2l-4-2v-2l-4-2v-2h-2v-2h-4l-6 2 1 8-1 2v10l-1 9h-1l-1-27-3-8z" fill="#1A71A2"/>
<path transform="translate(1138,128)" d="m0 0h2l6 9v4l-21 8-36 12-17 6-4-1 12-5 14-6 13-5 12-5 16-6 3-3z" fill="#9E6D86"/>
<path transform="translate(752,849)" d="m0 0h5l8 14 3 5-1 3v-2l-5-2-3-7-1-3h-7l-16 5-7 3-4 4v11h-2l-3-13v-4l10-5z" fill="#9C6B83"/>
<path transform="translate(16,283)" d="m0 0 5 2 24 15 27 18-1 2-18-10-19-10-10-5-8-1-1-9z" fill="#9D6E86"/>
<path transform="translate(596,378)" d="m0 0h7l16 8 14 10 7 7 9 11 8 13 5 10-1 5-2-3-9-17-9-12-12-12-11-8-12-7-10-4z" fill="#237FB3"/>
<path transform="translate(914,759)" d="m0 0 5 1 3 4-6 2-9 6-9 8h-2v6l14 9v2l-6-2-16-8-1-4 8-8 8-7 9-8z" fill="#9F6C84"/>
<path transform="translate(974,705)" d="m0 0h3l2 8 1 17v11l-2-4-3-16-1-5-6 1-12 10-6 8-3-1 1-5 10-10 8-7z" fill="#9D6B84"/>
<path transform="translate(827,888)" d="m0 0 3 1 6 20 1 12h-3l-3-10-2 1-4 13h-1l-1-11 2-20z" fill="#9D6A83"/>
<path transform="translate(132,487)" d="m0 0h5l4 9 5 19v5l-5 4-2-1 3-5v-8l-8-16h-28v-3l10-2z" fill="#9F6E86"/>
<path transform="translate(993,114)" d="m0 0 3 1 3 9 4 7 2 5 7 9 6 11 4 9 4 7 2 1v2l8 2h3v2l-10 2-7-9-15-27-10-17-6-11v-2z" fill="#9E7089"/>
<path transform="translate(661,440)" d="m0 0h2l5 14 4 15 2 19v17l-1 12h-2l-1-44h-2l-5-23-2-5z" fill="#2786BA"/>
<path transform="translate(130,384)" d="m0 0h1v10l-3 2-24 3h-22v-1l41-7 5-3z" fill="#9D6981"/>
<path transform="translate(1067,509)" d="m0 0 5 1 23 12 1 2-5-1-22-6-3 9-3 7h-1l1-10z" fill="#9D6D86"/>
<path transform="translate(536,374)" d="m0 0m-1 1m-3 1 6 1-3 2-11 5-11 6-5 4v4l-8 4-5 5-3 1 2-6h2l2-4 8-7 4-4 10-6z" fill="#227EB1"/>
<path transform="translate(418,919)" d="m0 0h2l-3 9-5 13-6 12-1 4 3 6-9-1-1-3z" fill="#A0738A"/>
<path transform="translate(749,132)" d="m0 0 1 3-3 10-7 11-1 3-3 3-3 5h-2v2h-2l-1 3-2-1 1-8 1-20h1v18h4l3-9 4-2 5-10h2z" fill="#1A72A4"/>
<path transform="translate(1076,319)" d="m0 0 2 1 4 15 2 4h8l3-1 2 2-12 7-5 1-2-6-2-13z" fill="#9C6D86"/>
<path transform="translate(760,676)" d="m0 0 1 4 5-1 3 2 6-1h3v-2h2v2l4-3h3l-2 4-7 6h-10l-6-3-3-3z" fill="#1A71A3"/>
<path transform="translate(733,481)" d="m0 0 1 3-12 25-12 22-13 22-5 8h-2l2-5 9-15 13-22 14-27z" fill="#186FA1"/>
<path transform="translate(454,418)" d="m0 0 4 5 5 8 5 5 9 10 5 4 6 1 4 2 4 6-10-2-4-4-4-2-1-2-4-2-3-5-5-5-8-11-3-5z" fill="#2580B4"/>
<path transform="translate(744,448)" d="m0 0h2l-1 5 2 1-3 4-9 23h-2l-2 6h-2l1-5 6-15 5-14z" fill="#227EB2"/>
<path transform="translate(126,123)" d="m0 0 4 1 11 7v4h-8l-13-5-6-3v-1l9 1 7 1v-2l-4-2z" fill="#9F6C84"/>
<path transform="translate(1164,514)" d="m0 0 9 3 10 6v1l-20 1v-9z" fill="#9E6981"/>
<path transform="translate(761,911)" d="m0 0 4 2 5 9v2h-3v14l-3-4-4-16z" fill="#9F6F87"/>
<path transform="translate(1061,94)" d="m0 0h3l1 4-20 7-2 2h-3l-2-5z" fill="#9D6D86"/>
<path transform="translate(280,794)" d="m0 0 3 1-13 8h-2l-2 4-12 12-1 3h-2l-1 4-3-1 6-10 12-12 11-7z" fill="#9D6D85"/>
<path transform="translate(90,93)" d="m0 0h3v2l4 2 6 5v2l4 2 8 7-1 2-18-12-7-5z" fill="#A37288"/>
<path transform="translate(1102,73)" d="m0 0 3 1-8 5-7 3-2 3-1 6-4-4-2-5 10-5z" fill="#A16E86"/>
<path transform="translate(356,866)" d="m0 0 5 1 4 3-1 4-10 10v-3l3-7v-6z" fill="#9F7088"/>
<path transform="translate(796,519)" d="m0 0h1v8l-5 24-4 11h-1l-1-7 2-1 3-8z" fill="#1971A3"/>
<path transform="translate(979,850)" d="m0 0 1 2 11 2-1 3-5 4-4-2-3-6z" fill="#9C718B"/>
<path transform="translate(15,299)" d="m0 0h1l2 15 1 7-6-2 1-17z" fill="#9E738B"/>
<path transform="translate(173,706)" d="m0 0 5 1-2 2-11 2h-8l1-4z" fill="#A2778E"/>
<path transform="translate(510,387)" d="m0 0m-1 1m-2 1h2l-2 4-3 4h-2l1 3-7 5-2 3h-2l2-6h2l2-4 8-7z" fill="#2F8DC1"/>
<path transform="translate(1086,555)" d="m0 0 6 1 24 12-3 1-18-8-9-5z" fill="#A17A92"/>
<path transform="translate(759,662)" d="m0 0 3 1 1 7-1 5h-5v-8z" fill="#1A72A4"/>
<path transform="translate(45,185)" d="m0 0 4 5 8 7-1 2-13-8 1-5z" fill="#986E88"/>
<path transform="translate(744,448)" d="m0 0h2l-1 5 2 1-3 1-4 10h-2l2-9z" fill="#2C8ABF"/>
<path transform="translate(1088,158)" d="m0 0m-3 1h3v2l-16 6-4-1 12-5z" fill="#9D758E"/>
<path transform="translate(489,292)" d="m0 0 3 1-5 4-4 2-5 5h-3l5-6z" fill="#3892C5"/>
<path transform="translate(479,956)" d="m0 0h5l-1 6-2 3h-2l-1-5z" fill="#9A738D"/>
<path transform="translate(143,511)" d="m0 0h2l1 9-5 4-2-1 3-5z" fill="#A0738B"/>
<path transform="translate(760,449)" d="m0 0h10l1 3 4 3-6-1-9-4z" fill="#1B72A4"/>
<path transform="translate(80,116)" d="m0 0 6 2-1 3-7 2 1-6z" fill="#988DA9"/>
<path transform="translate(639,237)" d="m0 0 2 1-1 2h-2v2h-9l1-2z" fill="#3892C5"/>
<path transform="translate(611,245)" d="m0 0h7l-3 2h-3v2l-4 1-1-4z" fill="#3791C5"/>
</svg>
