<?xml version="1.0" encoding="UTF-8"?>
<svg version="1.1" viewBox="0 0 2048 1206" width="1280" height="1280" xmlns="http://www.w3.org/2000/svg">
<path transform="translate(1066,34)" d="m0 0 22 2 26 6 13 5 13 10 12 11 9 9 9 12 9 16 8 21 4 17 1 10v15l-2 18-5 20-7 19-12 23-8 12-9 11-7 7-2 6 3 23 3 26v42l-4 35-4 25-9 36v5l9-6 12-2 33-2h33l14 1 15 4 16 8 9 7 8 8 8 14 5 13 2 10v13l-3 14-9 17-13 19-12 17-14 20-14 19-13 19-13 18-14 19-11 13-7 8-9 7-9-1-8-6-4-6v-8l7-27 9-34 8-27 7-25 3-12-14 5-26 7-29 10-35 16-22 12-22 14-16 12-13 11-10 9-16 16-8 7-10 10-8 7-16 13-14 11-21 16-15 11-19 13-22 14-19 12-20 12-16 8-9 1-7-3-8-8-3-5-1-4v-7l7-11 16-16 8-7 32-32 7-8 13-15 11-14 10-13 13-18 10-15 12-20 12-22 12-26 7-21 6-23 2-16v-37l-3-17-7-19-8-15-10-13-8-8-10-6-10-4-4-1h-7l-10 6-8 9-5 12-1 4v18l4 12 4 5v2l18 9 11 4 6 7v7l-4 6-10 7-18 7h-22l-17-5-14-7-14-12-8-10-9-15-6-18-4-21v-13l4-24 6-21 12-23 14-19 11-12 10-9 12-10 15-10 15-9 19-10 33-13 41-13 39-11 33-11 25-11 22-13 11-9 10-9 9-14 6-14 2-8v-22l-3-12-7-14-9-10-11-8-14-7-17-6-19-4-8-4-2-3v-8l6-9 7-4 23-5z" fill="#D39361"/>
<path transform="translate(918,385)" d="m0 0h18l16 2 21 7 17 9 14 11 7 7 10 13 9 15 8 20 6 24 2 13v8h2l1 16-2 21-5 25-6 20-10 24-8 18-9 14-1 6h2l8-12 7-8h2l2-4 10-11 13-17 13-19 10-15 8-13 13-23 12-23 7-16 8-21 4-6h1l1 6 9-6 12-2 33-2h33l14 1 15 4 16 8 9 7 8 8 8 14 5 13 2 10v13l-3 14-9 17-13 19-12 17-14 20-14 19-13 19-13 18-14 19-11 13-7 8-9 7-9-1-8-6-4-6v-8l7-27 9-34 8-27 7-25 3-12-14 5-26 7-29 10-35 16-22 12-22 14-16 12-13 11-10 9-16 16-8 7-10 10-8 7-16 13-14 11-21 16-15 11-19 13-22 14-19 12-20 12-16 8-9 1-7-3-8-8-3-5-1-4v-7l7-11 16-16 8-7 32-32 7-8 13-15 11-14 10-13 13-18 10-15 12-20 12-22 12-26 7-21 6-23 2-16v-37l-3-17-7-19-8-15-10-13-8-8-10-6-10-4-10-3 2-4 10-7 14-7 12-4z" fill="#B97136"/>
<path transform="translate(918,385)" d="m0 0h18l16 2 21 7 17 9 14 11 7 7 10 13 9 15 8 20 6 24 3 21v22l-2 15-6 25-6 19-7 16-7 14-6 11-8 12-11 9-7 6-7 3-9-2-3-4-9-5-12-12-10-6-9-5-3-4-2-8v-8l-1-11-1-13 2-12 7-24 3-21v-37l-3-17-7-19-8-15-10-13-8-8-10-6-10-4-10-3 2-4 10-7 14-7 12-4z" fill="#78451B"/>
<path transform="translate(1066,34)" d="m0 0 22 2 26 6 13 5 13 10 12 11 9 9 9 12 9 16 8 21 4 17 1 10v15l-2 18-5 20-7 19-12 23-8 12-9 11-7 7-2 6 3 23 3 26v42l-2 6h-3l-3-4-4-23-2-9-4-4-3-9-3-7-3-11-4-7v-2l-18-4-10-3-16-10-5-9-9-5-4-3v-2l-4-1-2-2-8-3-8-4v-2l-3 1-5-3-4-1v-2l-17-4-10-1-1-4 8-3 11-2 4-2 1-3 20-8 17-8 21-13 15-13 8-10 8-16 4-13v-22l-3-12-7-14-9-10-11-8-14-7-17-6-19-4-8-4-2-3v-8l6-9 7-4 23-5z" fill="#B97136"/>
<path transform="translate(48,171)" d="m0 0 49 2 57 3 53 3 8 1 2 6 4 29 1 12-8 4-73 26-21 8-9 1v2l10 3 20 8 40 17 21 9 23 10 8 5 2 9 3 31v5h-25l-121-6-22-2-1-1-4-32v-7h26l42 3 22 1-3-3-29-12-27-11-26-10-9-4-2-2-3-23v-8l16-6 36-12 32-11h2v-2l-52-3-31-1-7-1-2-6-3-34z" fill="#D49462"/>
<path transform="translate(1356,889)" d="m0 0h3l2 7 13 102 6 46 1 11-6 3-24 7-9 2-1-1-7-49-4-38h-2l-4 18-10 52-6 27-3 4-21 6-8 1-4-4-15-27-12-23-10-18-6-7 10 73 2 17-5 3-31 9h-4l-2-10-7-54-8-65-4-29v-7l15-5 20-7 8-3 4 1 11 18 15 26 26 44 5 8 2-4 12-54 10-44 3-18 5-4 35-12z" fill="#D49462"/>
<path transform="translate(1183,466)" d="m0 0h33l14 1 15 4 16 8 9 7 8 8 8 14 5 13 2 10v13l-3 14-9 17-13 19-12 17-14 20-14 19-13 19-13 18-14 19-11 13-7 8-9 7-9-1-8-6-4-6v-8l7-27 9-34 8-27 7-25 8-25 6-31 2-17-1-18-3-10-5-9-6-7-10-5-16-5-10-1 2-2 12-2z" fill="#D49462"/>
<path transform="translate(383,650)" d="m0 0 4 1 10 11 7 8 7 7 1 7-14 34-18 43-8 19 10-4 19-12 24-15 18-11 11-7 5 1 12 12 7 8 6 5-1 4-21 14-24 15-26 16-19 12-23 14-22 14-4 2-5-1-11-12-7-8-7-7 3-9 19-46 12-29 6-14 1-4-29 17-24 15-21 13-9 6-4-1-12-13-9-11-4-4 1-3 20-12 38-24 23-14 42-26 13-9z" fill="#D39361"/>
<path transform="translate(802,932)" d="m0 0h20l19 4 16 6 11 6 11 10 8 14 4 13 1 17-2 3-10-1-30-8-5-3-4-9-5-6-12-6-8-2h-14l-13 4-11 7-8 8-7 12-6 18v15l5 10 8 8 11 5 7 2h19l12-4 11-8 2-4-5-2-15-4-21-5-4-3 1-5 7-17 3-5 20 4 46 12 17 4 3 2-1 5-8 18-6 11-11 12-12 9-16 8-15 5-21 3h-10l-15-2-15-5-15-8-12-11-6-8-6-12-3-14v-14l3-16 6-15 8-14 9-11 10-10 13-9 14-7 12-4z" fill="#D39361"/>
<path transform="translate(594,839)" d="m0 0 7 1 24 14 10 7 2 2-1 6-15 41-13 34-17 44-12 31-2 1-15-9-14-8-8-5 1-5 9-19-1-4-10-7-26-15-11-7-3-1-11 6-15 10-7-3-13-8-18-10v-2l28-17 16-9 53-31 15-9 22-13 19-11zm-11 49-14 8-19 12-15 9-6 3 3 3 21 12 8 5h3l10-23 7-16 4-9v-4z" fill="#D49462"/>
<path transform="translate(907,77)" d="m0 0h20l15 4 10 5 11 9 10 10 10 15 6 14 4 15 1 6v16l-4 17-8 16-11 11-8 5-16 4h-11l-16-3-14-7-10-8-9-9-9-13-6-12-5-16-2-15 1-16 4-16 6-11 9-10 10-7z" fill="#B97136"/>
<path transform="translate(105,482)" d="m0 0 49 3 125 7 12 1 4 4 11 25 6 11-2 4-20 15-17 12-15 11-14 10-18 13-17 12-18 13-14 10-4-2-16-34 1-5 19-12 3-1-10-22-12-26-4-7-2-1-28-1-4-4-8-16-7-16zm85 42 2 5 9 19 4 9 1 2 5-1 14-10 16-11 9-7 3-4-16-1z" fill="#D49462"/>
<path transform="translate(1806,317)" d="m0 0 4 2 47 47 7 8 8 8 7 8 15 15 7 8 18 18 7 8 9 9 2 3-2 9-13 38-4 2-43-7-90-13-30-4-1-5 9-24 4-13 10 1 49 8 62 11-7-8-32-32-7-8-49-49 3-10 7-22 2-7z" fill="#D39361"/>
<path transform="translate(995,957)" d="m0 0h102l-1 9-5 23-2 2h-59l-2 18-2 14h53l-1 12-4 18-2 2-52 1-5 31-1 4h60l-1 12-3 18-1 1-7 1-54 1h-40v-9l20-125 6-32z" fill="#D49462"/>
<path transform="translate(1819,140)" d="m0 0 18 4 13 4 1 1-1 29-1 16v14l31 7 1-25 1-20 1-7 14 2 15 4 2 2v26l-2 27 12 2 22 6 2-47 1-12 16 2 16 4 1 1v15l-4 75-1 11-7-1-63-15-87-21-8-3v-14l5-67 1-19z" fill="#D49462"/>
<path transform="translate(1135,472)" d="m0 0h11l21 7 8 6 6 8 5 11 2 15-1 19-6 33-5 16-13 5-32 9-26 9-35 16-22 12-16 10-4-1 3-5 8-10 9-12 7-11 10-15 13-21 11-19 13-24 11-23 11-27 3-4 6-2z" fill="#78451B"/>
<path transform="translate(1550,761)" d="m0 0h2l2 135 5 12 13 28 3 7-1 6-14 8-15 11-3 1-4-7-17-36-5-8-20-15-18-13-20-15-19-14-14-10v-3l20-13 15-11 5 1 13 11 17 13 10 8 12 9-1-5-3-69 1-5 17-12 14-10z" fill="#D49462"/>
<path transform="translate(1384,211)" d="m0 0h16l11 3 7 6 3 6v6l-8 18-10 15-10 13-14 15-19 19-8 7-14 13-14 11-16 13-18 14-13 10-19 14-36 26-11 6-5-1 1-5 9-7 13-10 15-12 14-11 11-9 14-12 17-17 7-8 10-11 11-15 6-12 3-12v-7l-3-10-4-4-7-2-8-1h-21l-22 4-25 7-28 10-17 7-4-1 1-4 5-4 35-18 33-15 20-9 25-9 25-8 23-6z" fill="#B97136"/>
<path transform="translate(1150,468)" d="m0 0h10l2 5h2v2l5 1 7 5 7 10 5 13 2 16-1 34 2 12 1 2h11l8 7 3 3 16 6 12-1 16 2 6-1 3-2 5 1-1 7-13 18-13 19-9 12-12 17-10 14-12 17-14 19-11 13-7 8-9 7-9-1-8-6-4-6v-8l7-27 9-34 8-27 7-25 8-25 6-31 2-17-1-18-3-10-5-9-6-7-10-5-16-5-10-1 2-2z" fill="#B97136"/>
<path transform="translate(766,548)" d="m0 0 5 1-1 7-13 13-8 7-13 12-8 8-18 22-12 19-6 13-1 9 4 10 7 6 9 3 15 1 20-2 30-7 30-11 20-8 6-1 2 2-1 4-8 5-37 18-20 9-21 9-29 11-37 12-25 5-14 2h-13l-10-4-5-5-2-3v-12l4-11 9-15 10-13 11-13 31-31 8-7 11-10 11-9 13-11 32-24z" fill="#79461C"/>
<path transform="translate(1625,676)" d="m0 0 4 1 11 14 9 11 13 16 10 13 12 15 10 13 11 13 5 7 3 1 5-5 9-10 9-11 8-9 5 1 9 10 8 10-4 7-14 17-11 12-7 8-10 11-11 14-4 3-7-7-11-14-13-16-10-13-9-11-10-13-13-16-11-14-13-16-8-11 2-4 7-7 9-11z" fill="#D39361"/>
<path transform="translate(1066,34)" d="m0 0 22 2 26 6 13 5 13 10 12 11 9 9 5 11-1 4-2 1-3 13-7-1-5-3-5 1-9 17-8 20-7 11-6 8-4-1-1-1v-27l-3-12-7-14-9-10-11-8-14-7-17-6-19-4-8-4-2-3v-8l6-9 7-4 23-5z" fill="#79461B"/>
<path transform="translate(769,400)" d="m0 0 6 2 9 1 12 9 14 30 11 16 9 10 8 6 11 2 1 3 18 9 11 4 6 7v7l-4 6-10 7-18 7h-22l-17-5-14-7-14-12-8-10-9-15-6-18-4-21v-13l3-19 5-5z" fill="#78451B"/>
<path transform="translate(1722,541)" d="m0 0 5 2 7 7 8 7 14 12 15 13 14 12 10 9 11 9 7 7 11 9 15 13 9 8-1 6-11 18-6 12-6-2-10-9-11-9-14-13-11-9-11-10-11-9-11-10-11-9-12-11-11-9-10-9 1-5 7-10 10-17z" fill="#D49462"/>
<path transform="translate(816,744)" d="m0 0v3 2l2 1 7-3v2l5 2 4 9 3 5 2 2 3 16 2 6-3 7 3 2-20 13-25 15-16 8-9 1-7-3-8-8-3-5-1-4v-7l7-11 16-16 8-7z" fill="#D49462"/>
<path transform="translate(1347,292)" d="m0 0h11l4 4 5 1v2h2l-1 5-8 8-8 7-14 13-14 11-16 13-18 14-13 10-19 14-36 26-11 6-5-1 1-5 9-7 13-10 15-12 14-11 11-9 14-12 17-17 7-8 10-11 12-16 8-7 3-3h2v-2z" fill="#7A471C"/>
<path transform="translate(907,77)" d="m0 0h20l15 4 10 5 11 9 10 10 10 15 3 6v3l-7-2-9-4-6-3-8-2-11-1-16-8-13-5h-20l-10 1-9 4-5 2-3 3 3-9 6-9 7-8 10-7z" fill="#D49462"/>
<path transform="translate(803,329)" d="m0 0h4l1 7-4 13-5 25-1 11 2 17 6 23 6 14 11 17 4 4v2l4 2 5 4 4 1h4l4 7-10-1-9-7-7-7-14-21-12-26v-2l-4-2-8-6-9-1-6-2-4 1-1 3-1-4 6-21 12-23 14-19z" fill="#B97136"/>
<path transform="translate(1290,238)" d="m0 0 5 1v2l5 1 6 4 7 6 2 4v3l-21 1-22 4-25 7-28 10-17 7-4-1 1-4 5-4 35-18 33-15z" fill="#7D491E"/>
<path transform="translate(766,548)" d="m0 0 5 1-1 7-13 13-8 7-13 12-8 8-5 6v-3l-4-1-13 4-6 4-7 1 5-5 12-11 14-11 19-14 18-14z" fill="#BA7238"/>
<path transform="translate(1171,702)" d="m0 0 9 3h5v5l-13 15-9 8-2 1-9-1-8-6-4-6v-8l1-2 12-2 14-6z" fill="#7B471D"/>
<path transform="translate(831,650)" d="m0 0 3 2-1 4-8 5-37 18-9 3-1-3v-2l-2-7 30-11 20-8z" fill="#BA7338"/>
<path transform="translate(917,382)" d="m0 0h16l13 2 14 4 8 3-3 1-13-4-16-2h-18l-16 3-16 6-13 8-5 4-1 2 4 1-10 2 1-5 5-5 14-9 13-6 9-3z" fill="#B87136"/>
<path transform="translate(1150,468)" d="m0 0h10l2 5h2v2l5 1 7 5 7 10 5 13 2 15h-3l-2-15-7-14-6-7-10-5-16-5-10-1 2-2z" fill="#BA7237"/>
<path transform="translate(1857,370)" d="m0 0 7 6 8 8 7 8h-3l-17-17z" fill="#B97136"/>
<path transform="translate(1012,234)" d="m0 0h2v2l-4 3-17 3 1-2z" fill="#D49462"/>
<path transform="translate(1127,470)" d="m0 0h1v7l-3 3-2 4h-2l1-6z" fill="#BB7339"/>
<path transform="translate(832,651)" d="m0 0 2 1-1 4-2 2-5-1v-4z" fill="#7D491E"/>
</svg>
