<?xml version="1.0" encoding="UTF-8"?>
<svg version="1.1" viewBox="0 0 2048 1189" width="1280" height="1280" xmlns="http://www.w3.org/2000/svg">
<path transform="translate(1063,8)" d="m0 0h13l21 3 21 5 10 4 14 10 13 12 9 9 9 12 9 16 8 21 4 18v34l-4 19-9 27-10 19-9 14-11 14-7 8-1 6 4 31 2 17v40l-4 35-4 26-9 34v4l9-4 14-2 15-1h59l15 3 14 6 13 9 10 10 7 12 6 16 1 4v21l-4 13-8 15-11 16-10 14-13 18-9 13-11 15-15 22-12 16-14 19-12 14-8 8-5 3-7-1-6-4-7-8v-9l11-42 8-28 14-50v-3l-21 6-25 7-24 9-33 15-22 12-24 15-13 10-14 12-10 9-17 16-10 10-8 7-11 10-14 11-16 13-19 14-15 11-16 11-22 14-24 15-19 11-13 6-7 1-8-3-7-7-4-7-1-8 4-8 9-10 13-13 8-7 26-26 7-8 10-11 9-11 12-15 14-19 16-24 15-25 11-21 9-21 7-22 6-22 2-15v-34l-2-14-5-16-7-16-7-12-11-13-10-8-11-5-6-2h-7l-9 5-8 8-7 14-2 10v9l4 13 6 9 14 8 13 5 5 4 2 4v6l-6 8-10 6-16 6h-24l-19-7-11-6-12-11-8-9-9-15-5-14-5-21-1-14 3-19 5-23 5-12 9-17 13-18 12-13 12-11 17-13 19-12 23-12 30-12 40-13 43-12 33-11 23-10 16-9 17-12 8-7 8-10 8-16 4-12 1-5v-16l-3-13-8-16-9-10-13-9-18-8-18-5-16-4-5-4-1-8 4-8 7-5 16-4z" fill="#DD6573"/>
<path transform="translate(922,354)" d="m0 0h14l16 2 19 6 21 11 16 12 7 6 10 13 8 13 7 15 7 25 4 23 1 8v25l-4 24-7 29-3 9-3 11-4 9-1 6 5-1 3-4h2l2-4 8-11h2l2-5 10-14 9-11 7-10 10-16 10-18 11-20 11-28 6-16 3-1 1 4 9-4 14-2 15-1h59l15 3 14 6 13 9 10 10 7 12 6 16 1 4v21l-4 13-8 15-11 16-10 14-13 18-9 13-11 15-15 22-12 16-14 19-12 14-8 8-5 3-7-1-6-4-7-8v-9l11-42 8-28 14-50v-3l-21 6-25 7-24 9-33 15-22 12-24 15-13 10-14 12-10 9-17 16-10 10-8 7-11 10-14 11-16 13-19 14-15 11-16 11-22 14-24 15-19 11-13 6-7 1-8-3-7-7-4-7-1-8 4-8 9-10 13-13 8-7 26-26 7-8 10-11 9-11 12-15 14-19 16-24 15-25 11-21 9-21 7-22 6-22 2-15v-34l-2-14-5-16-7-16-7-12-11-13-10-8-11-5-6-2h-7l-9 5-4-1 4-7 14-10 21-11 16-4z" fill="#BE394A"/>
<path transform="translate(1063,8)" d="m0 0h13l21 3 21 5 10 4 14 10 13 12 9 9 9 12 9 16 8 21 4 18v34l-4 19-9 27-10 19-9 14-11 14-7 8-1 6 4 31 2 17v40l-4 35-2 15-2 2-3-6-3-1-4-6-4-3-8-3-4-5-5-5-4-3v-2l-4-2-5-2-1-4-4-2-6-5-5-9v-2l-3-1v-3l-2-1-8-6-8-5-4-1v-2l-5-1-3-5-5-2-1-5-5-2-6-3v-2l-6-2-1-3-4 1-4-1-3-3-10-2-3-2-6-2-12-7-7-2v-2l-6-1-10-4-10-3-4-2-10 1-11-1h-33l-9 3-4-1-3-3h-11l-1-2 5-3 3-3 17-8 26-10 44-14 36-10 33-11 23-10 16-9 17-12 8-7 8-10 8-16 4-12 1-5v-16l-3-13-8-16-9-10-13-9-18-8-18-5-16-4-5-4-1-8 4-8 7-5 16-4z" fill="#BE394A"/>
<path transform="translate(929,358)" d="m0 0h13l17 3 14 5 16 8 11 8 14 12 9 11 9 15 6 13 6 18 4 19 2 22v14l-3 23-10 35-8 18-8 13-7 7h-3l-1 4-5-1-12-4-9-4-3-6-5-3-1-1-1 2-8-4-9-6-3-6-4-2-2-6-3-3-3-9-1-1-1-12-2-8-2-9v-11l1-9v-34l-2-14-5-16-7-16-7-12-11-13-10-8-11-5-11-4 2-4 10-7 12-6 16-4z" fill="#721422"/>
<path transform="translate(32,169)" d="m0 0h81l84 1 2 4 6 34v9l-23 10-39 16-24 10-17 7h-3v2l10 3 63 23 26 10 19 7 4 5 6 28 2 10-1 5h-25l-139-2-3-2-7-36 23-1 64-1-3-2-35-13-37-13-16-6-3-9-3-21 8-6 66-25 10-5 1-2h-90l-2-2-6-31v-6z" fill="#DC6472"/>
<path transform="translate(1355,864)" d="m0 0h5l2 6 5 44 5 40 8 73-4 3-29 9-5 1-2-4-5-53-4-33-2-3-6 29-12 56-3 16-2 3-17 5-8 2h-6l-5-8-15-28-15-29-9-14-1-2 4 40 4 33 3 16v4l-21 7-17 4-2-3-5-35-6-57-8-61v-8l7-3 28-8 7-3h5l10 19 14 24 13 23 10 17 7 12 1 3h2l4-19 8-33 11-46 5-25 9-4 22-6z" fill="#DD6573"/>
<path transform="translate(1170,439)" d="m0 0h59l15 3 14 6 13 9 10 10 7 12 6 16 1 4v21l-4 13-8 15-11 16-10 14-13 18-9 13-11 15-15 22-12 16-14 19-12 14-8 8-5 3-7-1-6-4-7-8v-9l11-42 8-28 14-50 2-6 5-18 6-32v-25l-4-13-7-11-8-6-14-6-7-2h-13l2-2 8-2z" fill="#BE394A"/>
<path transform="translate(382,633)" d="m0 0 5 1 12 13 12 12v8l-15 39-18 47-5 11 12-6 60-40 10-7 5-1 11 12 15 15-2 4-16 10-15 10-23 15-15 10-44 29-14 9-8 6-5-2-25-25 1-5 14-36 8-21 13-34 2-6-6 2-19 12-14 9-42 28h-5l-11-12-14-15 2-4 14-8 27-18 44-29 42-28z" fill="#DD6573"/>
<path transform="translate(807,904)" d="m0 0h18l22 5 19 8 11 8 8 9 5 11 3 10 1 7v11l-1 2-10-1-30-8-4-2-4-10-5-5-11-6-9-2h-13l-12 3-12 7-7 6-9 14-6 14-2 15 2 9 6 9 7 6 14 6 4 1h18l14-5 11-7 1-5-18-6-23-6-2-2 1-8 6-15 2-2 11 1 53 13 17 4 4 4-11 24-6 10-8 9-12 9-15 8-17 6-21 3-18-1-16-4-16-8-9-7-5-4-9-12-5-11-2-9v-21l4-16 7-16 9-14 9-10 10-9 16-10 18-6z" fill="#DC6472"/>
<path transform="translate(911,51)" d="m0 0h19l16 4 10 5 13 11 7 7 10 15 6 13 4 15 1 5v20l-4 16-6 12-9 10-8 7-9 4-10 2h-11l-13-2-12-5-14-9-10-10-10-15-7-15-4-17-1-7v-13l3-16 5-12 7-9 8-8 11-6z" fill="#BE394A"/>
<path transform="translate(101,477)" d="m0 0h79l63 1 42 1 4 4 12 24 6 10v5l-11 9-19 14-16 13-12 9-14 11-21 16-10 8-17 13-9 7-4-1-12-23-3-6-3-4 1-4 15-11 6-4-1-5-18-36-7-13h-32l-5-8-8-16-6-10zm87 37-1 2 10 21 7 12 12-7 18-13 12-9 4-5-2-1z" fill="#DD6573"/>
<path transform="translate(599,815)" d="m0 0 5 1 20 11 10 7 6 4-1 6-7 18-11 32-20 55-9 24-6 17-4 4-34-20-1-4 6-12 3-8-1-5-10-6-17-10-23-13-6 3-9 6-10 6h-4l-16-8-17-10v-3l15-10 14-8 21-13 25-15 21-13 46-28zm-11 48-16 9-22 14-16 10 5 4 12 7 11 7 5 2h3l8-20 10-24 2-5v-4z" fill="#DC6472"/>
<path transform="translate(1823,307)" d="m0 0 4 1 11 11 9 11 13 14 9 11 14 15 7 8 12 14 11 12 9 11 12 13 9 11 4 6-6 16-6 17-6 12-1 1-9-1-55-11-40-7-24-5-34-6-1-2 6-15 7-21 4-2 38 7 34 8 34 6 10 3h3l-16-17-12-13-9-10-12-13-7-8-13-14-7-8-14-15-2-2 1-6 10-23z" fill="#DD6573"/>
<path transform="translate(1845,132)" d="m0 0 10 2 19 7 2 3-5 49v7l11 4 20 5v-9l4-40 1-3 10 2 19 6 2 2-1 16-5 36 9 2 24 7 2 1 1-15 5-42 5-1 21 5 5 3v13l-7 63-2 23-2 1-157-46-2-1v-11l7-67 3-20z" fill="#DC6472"/>
<path transform="translate(1079,928)" d="m0 0h18l2 1-2 12-4 18-2 2h-59l-1 12-3 21h51l2 1-1 10-2 15-3 5h-53l-1 12-4 23-1 2h61l-2 14-3 15-4 1-62 1h-34l-1-5 4-24 14-86 7-42 2-7z" fill="#DD6573"/>
<path transform="translate(1139,444)" d="m0 0h10l15 5 11 6 7 8 6 12 2 8v25l-7 36-4 14-5 4-41 11-27 10-33 15-15 8h-4l1-10 1-4 1-7h2l1-5 13-20 11-19 12-21 15-29 5-11 13-32 5-3z" fill="#721422"/>
<path transform="translate(1381,185)" d="m0 0h23l9 3 8 7 2 8-5 13-8 15-14 19-15 16-20 20-8 7-12 11-11 9-14 11-18 14-19 14-17 12-18 13-16 11-10 7-5 3h-3l-1-3 5-5 20-15 14-11 26-22 11-9 16-16 9-11 10-11 11-15 6-12 3-13-1-9-4-8-7-4-15-2h-11l-20 3-23 6-37 13-16 7-4-1-1-5 24-13 21-10 33-15 26-11 30-10 25-7z" fill="#BE394A"/>
<path transform="translate(1552,740)" d="m0 0h2l1 7-1 53v72l4 13 9 20 6 14v6l-10 6-17 12-3 1-5-5-10-22-7-16-6-8-14-11-17-13-13-10-18-14-20-15-6-5 5-5 20-12 11-8 4 1 12 11 14 11 10 8 13 11h2l-1-27-1-49 7-6 17-11z" fill="#DC6472"/>
<path transform="translate(770,520)" d="m0 0 5 1v6l-14 14-8 7-10 9-14 14-9 11-10 13-10 17-4 9-1 11 4 9 7 6 13 4h16l19-3 24-6 34-12 18-7h7v5l-10 6-31 15-36 16-34 13-36 12-21 5-20 3h-16l-8-3-7-6-2-5 1-9 5-13 9-15 10-13 12-14 11-11 8-7 13-13 8-7 12-11 14-11 15-12 19-14z" fill="#731422"/>
<path transform="translate(1631,657)" d="m0 0 6 5 10 14 11 14 14 19 10 13 14 19 10 13 7 9 3-1 7-8 9-9 7-8 6-7 4-2 6 5 6 9 7 7-2 4-11 12-7 8-12 13-7 8-7 7-7 8-8 9-4-1-9-11-14-19-13-17-12-16-14-19-13-17-12-16-11-15 1-4 15-15 7-8z" fill="#DD6573"/>
<path transform="translate(793,387)" d="m0 0 6 2 4 4 5 11 10 18 7 11 5 5 11 9 6 3 10 2 10 6 15 6 5 4 2 4v6l-6 8-10 6-16 6h-24l-19-7-11-6-12-11-8-9-9-15-5-14-1-8 1-13 5-15 1-2 8-4 2-4z" fill="#731422"/>
<path transform="translate(1730,525)" d="m0 0 4 2 8 7 9 9 8 7 16 15 24 22 33 31 8 7 11 10 1 5-14 22-6 9-4-2-7-7-8-7-13-12-46-43-13-12-30-28-2-4 11-16 8-13z" fill="#DD6573"/>
<path transform="translate(1063,8)" d="m0 0h13l21 3 21 5 4 2v2h2v2l3 1 1 8 4 8 5 13 2 9v17l-2 10-4 14-5 8-4 1-1 2-4-2-3-5-5-5-4-13-6-11-9-10-13-9-18-8-18-5-16-4-5-4-1-8 4-8 7-5 16-4z" fill="#731422"/>
<path transform="translate(1212,439)" d="m0 0h17l15 3 14 6 13 9 10 10 7 12 6 16 1 4v21l-4 13-3 6-2-1 2-4-5-5-1-10-6-3v-2l-3 1-6-3h-6v2l-4 1-5-4-10-1-4-1-3-4v-3l-3 1-3-1-2-7-2-2-4-1v-2l-3-1h-7l-2 1-4-4v-2l-5-2-4-6-3-16 1-5h5v-4l3-3 2-4 7-3z" fill="#DC6472"/>
<path transform="translate(832,280)" d="m0 0h4l-2 4-5 5-4 8h-2v2l-2 1-4 7-1 5-4 7-4 13-3 18-1 7 1 17 5 21 5 13 7 12 7 10 6 6h10l9 14 1 2-11-2-8-6-7-6v-2l-4-2-6-9-9-16-4-6-4-10-1-3-8-2-8 2-1 5-6 3h-3l-3 10-2 7-1 13-2 1-3-14-1-14 3-19 5-23 5-12 9-17 13-18 12-13 12-11z" fill="#BE394A"/>
<path transform="translate(770,520)" d="m0 0 5 1v6l-14 14-8 7-10 9-14 14-9 11-10 13-10 17-4 9-2 10-5 1-5-5-5-3-9-3-5-2h-8l-7 6 2-4 12-12 8-7 13-13 8-7 12-11 14-11 15-12 19-14z" fill="#BE3A4B"/>
<path transform="translate(830,623)" d="m0 0h7v5l-10 6-31 15-36 16-34 13-9 3h-2l-5-8h2l-2-11-1-5h3l-4-3-4-7 10 3 5 1h16l19-3 24-6 34-12z" fill="#BE3A4B"/>
<path transform="translate(785,750)" d="m0 0 1 2-1 2h4l1 5-1 4 1 9 4 1 2 6-1 4h4v2h2v2l4 1 6 3-3 3-19 10-10 2-8-3-7-7-4-7-1-8 4-8 9-10z" fill="#DD6573"/>
<path transform="translate(1262,352)" d="m0 0h5l3 2 2 1-1 3-16 11-34 24-8 5h-3l-1-3 5-5 20-15 14-11 13-11z" fill="#7C1A28"/>
<path transform="translate(1129,442)" d="m0 0h2v6h-2l-3 10-2 4h-2l2-9 4-10z" fill="#BF3A4B"/>
<path transform="translate(1214,390)" d="m0 0h3l3 4-7 4h-3l-1-3z" fill="#C34050"/>
<path transform="translate(1550,858)" d="m0 0h2l1 12h-4l-1-8z" fill="#BE394A"/>
<path transform="translate(1022,26)" d="m0 0 4 8 1 6-4-2-2-4z" fill="#BF3D4E"/>
<path transform="translate(218,347)" d="m0 0 6 1 1 3-2 1h-7l-3-2z" fill="#BE394A"/>
</svg>
